<?xml version="1.0" encoding="utf-8"?>
<!-- Generator: Adobe Illustrator 16.0.0, SVG Export Plug-In . SVG Version: 6.00 Build 0)  -->
<!DOCTYPE svg PUBLIC "-//W3C//DTD SVG 1.1//EN" "http://www.w3.org/Graphics/SVG/1.1/DTD/svg11.dtd">
<svg version="1.1" id="Calque_1" xmlns="http://www.w3.org/2000/svg" xmlns:xlink="http://www.w3.org/1999/xlink" x="0px" y="0px"
	 width="311.5px" height="307px" viewBox="0 126.5 311.5 307" enable-background="new 0 126.5 311.5 307" xml:space="preserve">
<title>logo</title>
<path fill="#FFFFFF" d="M200.51,414.129c0.029-0.207,0.029-0.416,0-0.623c-0.895,0.32-1.646,0.949-2.117,1.774
	c-0.669,0.717-1.16,1.58-1.433,2.521h0.25c0.996,0.374,0.996,1.121,1.152,1.931c0.105,0.385,0.335,0.725,0.653,0.965
	c0.984-0.992,2.023-1.928,3.113-2.802h-0.249C199.825,417.242,199.576,416.184,200.51,414.129z"/>
<path fill="#FFFFFF" d="M165.053,421.258c-0.92,1.361-2.553,2.056-4.172,1.774c-1.494,0-2.802,1.308-3.331,3.112
	c-0.529,1.806-0.997,1.899-1.993,2.023c0.07,0.817,0.71,1.471,1.525,1.557c0.572,0.098,1.134,0.244,1.681,0.437
	c1.165,0.744,2.709,0.427,3.487-0.716h0.872c0,0,0.218,0.279,0.342,0.279c1.068,0.085,2.141-0.108,3.113-0.56
	c1.214-0.623,1.649-2.211,3.113-2.802c0.187,0,0-0.561,0-0.81c-0.898-1.122-0.79-2.743,0.249-3.735
	C168.306,422.341,166.526,422.137,165.053,421.258z"/>
<path fill="#FFFFFF" d="M205.211,138.595L205.211,138.595c-1.009-0.292-2.093,0.083-2.708,0.934l0,0
	C203.468,139.442,204.397,139.122,205.211,138.595z"/>
<path fill="#FFFFFF" d="M12.794,405.35h0.28l0.311-0.342C13.2,405.14,13.002,405.255,12.794,405.35z"/>
<path fill="#FFFFFF" d="M307.474,297.826c0-0.623,0-1.276,0.343-1.806c0.342-0.529,0-1.151,0.155-1.743
	c-0.49-0.458-0.516-1.227-0.059-1.717c0.019-0.02,0.039-0.039,0.059-0.058c0.016-4.033-0.172-8.064-0.56-12.079
	c-0.297-3.824-1.608-7.499-3.798-10.647c-0.405-0.498-0.934-0.965-0.84-1.712l0,0l0.28-1.09c0-0.902,0.218-1.774,0.342-2.677
	c0.125-0.903-0.934-1.059-0.872-1.806c0.479-1.229,0.577-2.575,0.28-3.86c-0.329-1.859-0.454-3.748-0.374-5.634
	c0.665-6.079-0.575-12.214-3.549-17.558c-0.107-0.111-0.222-0.215-0.342-0.312c-0.558-1.545-1.278-3.027-2.148-4.42
	c-0.436-0.84-0.903-1.681-1.276-2.553c-0.304-0.902-0.923-1.665-1.743-2.148c-1.121-0.529-0.903-1.214-0.405-1.681
	c0.841-0.81,1.285-1.947,1.214-3.113l-0.28,0.249c0,0.28,0,0.623,0,0.965s-0.965,0.218-0.903,0.903
	c-0.622,0.156-1.12,0.81-1.898,0.561c0,0-0.187-0.249-0.187-0.343c0-0.716,0-1.432,0-2.179c0.56,0,0.685,0.529,1.027,0.747
	c0.343,0.218,0-0.747,0.28-1.059c0.107-0.074,0.222-0.137,0.342-0.187c0.374,0,0.903,0.249,0.965-0.498
	c0-0.218,0.311-0.436,0.498-0.654l0.28-0.311c0.098-0.562,0.244-1.114,0.437-1.65c0.295-0.83,0.453-1.703,0.467-2.584
	c1.349-1.238,2.183-2.938,2.335-4.763c0.136-1.241,0.622-2.417,1.4-3.394c0.996-1.307,0.467-3.113,1.027-4.607
	c0.187-0.467,0-1.027,0.28-1.495c0.076-0.351,0.321-0.643,0.654-0.778v-1.775c-0.405-0.187-0.374-0.529-0.343-0.902
	c0.031-0.374,0-1.588,0.747-1.993c-0.22-0.71-0.093-1.483,0.343-2.085c0.38-0.371,0.524-0.922,0.373-1.432
	c-0.404-1.183-0.778-2.335,0.374-3.362c0,0,0-0.56,0-0.84c-0.28-1.432-0.498-2.895-0.778-4.327c0,0-0.249-0.156-0.249-0.374h0.187
	c-0.31-1.838-0.887-3.621-1.712-5.292c-0.187-0.312-0.312-0.654,0-0.903c0.778-0.374,1.089,0.778,1.93,0.404
	c-0.256-0.864-0.645-1.683-1.151-2.428c-0.909-1.325-1.671-2.745-2.272-4.234c-0.688-2.004-1.619-3.917-2.771-5.697
	c-0.801-1.053-1.267-2.321-1.338-3.642c-1.686-1.535-3.069-3.372-4.078-5.417c-1.121-1.712-2.428-3.3-3.705-4.887
	c0.276,0.737,0.423,1.517,0.436,2.304c-0.52-0.488-1.008-1.008-1.463-1.557c-1.37-1.743-2.708-3.549-4.109-5.292
	c-0.28-0.312-0.81-0.405-1.183-0.654c-1.25-0.791-2.447-1.664-3.58-2.615c-1.027-0.903-0.809-1.774,0.467-2.241
	c-1.287-1.101-2.71-2.032-4.234-2.771c-1.681-0.685-2.708-2.242-4.327-3.113c-2.864-1.308-5.697-2.708-8.592-3.985
	c-6.737-2.994-14.17-4.071-21.479-3.113c-0.884,0.12-1.782,0.066-2.646-0.156c-1.024-0.375-2.161-0.284-3.113,0.249
	c-0.218,0.156-0.591,0.343-0.778,0.28c-2.462-0.419-4.99-0.205-7.347,0.623c-0.592,0.084-1.116,0.426-1.432,0.934
	c-1.246-0.172-2.499,0.269-3.362,1.183c-0.377,0.296-0.83,0.479-1.307,0.529c-1.463,0.778-2.958,1.432-4.327,2.335
	c0.168,0.145,0.315,0.312,0.436,0.498c-0.872,0.592-1.743,1.152-2.584,1.774c-1.743,1.245-4.047,1.681-5.137,3.829
	c0,0.249-0.654,0.249-0.996,0.374c-0.591,0.154-1.173,0.341-1.743,0.561c-1.245,0.591-1.401,0.685-2.677-0.28
	c-0.425,0.369-0.673,0.901-0.685,1.463c-0.451,1.003-1.353,1.731-2.428,1.961l-0.374,1.774l-2.334,0.218l1.089-1.276
	c-0.498,0-0.902,0-0.778,0.903h-0.467h-2.179c-0.84-0.56-0.591,1.027-1.495,0.716c-0.902-0.312-0.809,0-0.747,0.996
	c-0.218,0.436-0.467,0.84-0.716,1.245v0.81c0,0.156,0.187,0.312,0,0.467c-0.187,0.156,0-0.311,0-0.467v0.591l0,0
	c-0.168,1.381-0.742,2.681-1.65,3.736c-0.983,1.522-1.65,3.227-1.961,5.012c-0.171,1.828-1.068,3.51-2.49,4.67
	c-0.902,0.56-0.498,1.587-0.685,2.428c-0.187,0.841-0.28,0.778-0.81,0.778c1.463,1.09,1.588,1.432,1.152,3.113
	c0.06,0.896,0.216,1.783,0.467,2.646c0.059,0.204,0.059,0.419,0,0.623c-0.004,2.543-0.275,5.079-0.81,7.565
	c0,0.249-0.312,0.498-0.436,0.747c-1.345,4.032-2.191,8.214-2.522,12.452c-0.032,0.123-0.032,0.251,0,0.374l0,0l0,0l0,0l0,0
	c0-0.623,0-1.276,0-1.899h0.342c0,0.623-0.249,1.245-0.404,1.868l0,0l0,0c0,0,0,0,0,0.249c0.068,0.142,0.176,0.261,0.311,0.342
	c0,1.027,0,2.086,0,3.113c-0.358,0.822-0.477,1.728-0.342,2.615l-0.467,2.677c-0.473,0.204-0.804,0.641-0.872,1.152
	c-0.067,0.811-0.358,1.586-0.841,2.241c-0.944,1.148-0.944,2.805,0,3.954c0,0,0,0.187,0,0.28c-0.84,0.84-1.587,1.836-3.113,1.37
	c-0.685-0.218-1.338,0.467-1.868,0.996c-2.584,2.572-4.977,5.33-7.16,8.25c-0.404,0.872-1.557,1.245-1.619,2.366
	c-0.623,0-0.965,0.654-1.432,0.997c-1.126,0.203-2.007,1.084-2.21,2.21c-1.146,0.406-2.322,0.718-3.518,0.934
	c0-0.28,0-0.654-0.405-0.654s-0.374,0.498-0.374,0.84c-3.803,1.596-7.523,3.383-11.145,5.354c-1.432,0.81-3.113,1.183-3.984,2.802
	l0.218,0.249l-0.218-0.249c-0.234,0.057-0.378,0.292-0.321,0.526c0.003,0.011,0.006,0.023,0.01,0.034c-0.311,0-0.498,0-0.467,0.436
	c-0.24-0.064-0.493,0.037-0.623,0.249c-1.463,0.405-1.93,1.899-3.113,2.74c0-0.187-0.28,0-0.374,0
	c-1.059,0.467-1.65,1.525-2.584,2.148l-0.934,0.405c0,0.809-0.312,1.463-0.498,2.459c-0.287-0.334-0.472-0.746-0.529-1.183
	l-1.059,0.872c-2.429,1.689-4.537,3.797-6.226,6.226l0,0c-0.574,0.345-1.276,0.402-1.899,0.155c-0.685-0.28-1.276,0-1.307,0.654
	c0,1.276-1.027,1.712-1.868,2.241l-8.032,4.95c-0.536,0.221-1,0.587-1.338,1.058l-1.743,0.81c0,0.187,0,0.342,0,0.529
	c-0.356-0.065-0.715,0.095-0.903,0.405l-3.362,1.93c-0.559,0.267-0.795,0.936-0.529,1.494c0,0,0,0,0,0
	c-0.716,0.436-1.743,0.342-2.117,1.276c-0.85,0.201-1.633,0.619-2.272,1.214c-0.933,0.928-2.246,1.366-3.549,1.183
	c-0.498,0.654-1.09,1.183-0.996,2.117c0.042,0.83-0.317,1.629-0.965,2.148c-1.184,1.183-2.272,2.491-3.331,3.767
	c-1.171,1.518-2.73,2.69-4.514,3.393c-0.695,0.235-1.347,0.582-1.93,1.027c-1.681,1.463-3.735,2.771-2.864,5.541l0,0
	c-0.015,0.145-0.015,0.291,0,0.436l0.56-0.404c1.681,0.84,1.65,0.84,1.245,2.553c-0.134,0.648-0.473,1.238-0.965,1.682
	c-0.917,0.844-1.741,1.783-2.459,2.801c-0.271,0.644-0.975,0.988-1.65,0.81c-1.652-0.357-3.37,0.188-4.514,1.433
	c-1.784,2.075-4.309,3.371-7.035,3.61c-0.685,0-1.121,0.592-1.557,1.09c-0.36,0.468-0.693,0.956-0.996,1.463
	c-0.481,1.049-1.681,1.561-2.771,1.184c-0.868-0.181-1.772-0.048-2.552,0.373c-2.864,1.09-5.043,3.455-7.97,4.452
	c-0.155,0-0.218,0.373-0.312,0.56l0,0c-0.471-0.045-0.935,0.141-1.245,0.498c-0.925,0.19-1.784,0.619-2.49,1.245
	c-1.992,1.37-2.428,2.584-1.214,4.607c0.653,1.027,0.249,1.463-0.374,1.962c-1.088,0.719-2.128,1.509-3.113,2.365
	c-1.762,1.742-3.691,3.306-5.759,4.67c-0.56,0.373-1.12,0.716-1.151,1.494h-0.374c-3.076,1.183-5.656,3.379-7.315,6.226
	c-0.108,0.191-0.172,0.404-0.187,0.623c-0.187,1.059,0.28,1.65,1.338,1.37c1.514-0.149,2.984-0.594,4.327-1.308h1.308
	c0.884,1.204,2.468,1.664,3.86,1.12c3.204-0.626,6.334-1.586,9.339-2.863c0.248,0.263,0.637,0.339,0.965,0.187
	c0.964-0.295,1.877-0.736,2.708-1.308c0.267-0.265,0.698-0.265,0.965,0c0.167,0.244,0.167,0.565,0,0.81
	c-0.249,0.498-0.716,0.902-0.685,1.557c-0.861,1.298-2.026,2.366-3.394,3.113c-1.098,0.604-1.987,1.526-2.553,2.646
	c-0.311,0.744-0.843,1.375-1.525,1.806c-1.525,0.902-2.895,1.992-4.451,2.802c-2.698,1.556-5.024,3.681-6.818,6.226
	c-0.561,0.585-0.986,1.287-1.245,2.055c-0.374,1.401,0,2.242,1.307,2.366c1.308,0.124,1.837,0.903,2.864,1.027
	s0.81,0.529,0.623,1.12c-0.124,0.417-0.124,0.86,0,1.276v0.156c-2.646,0.965-2.708,1.059-3.58,4.047
	c-0.065,0.295-0.296,0.526-0.591,0.591c-0.996,0.156-0.996,0.966-1.152,1.65c-0.116,0.639-0.199,1.283-0.25,1.93
	c3.375,1.098,6.913,1.604,10.46,1.494h0.841c1.183,0,1.214,0.529,0.529,1.308c-0.091,0.113-0.165,0.239-0.218,0.374
	c-1.603,0.902-2.927,2.227-3.829,3.829c-1.35,0.83-2.55,1.883-3.549,3.113c-1.556,1.214-3.113,2.49-4.576,3.767
	c0.187,0.187,0.342,0.404,0.56,0.653l-1.806,1.806l-0.436-0.249c0-0.28,0-0.622,0-0.934c-0.342,0.249-0.623,0.529-0.965,0.747
	c-1.276,0.934-2.833,1.898-3.113,3.798c-1.556,0.869-3.008,1.914-4.327,3.113c-1.464,1.044-2.829,2.222-4.078,3.518
	c-0.424,0.302-0.601,0.845-0.436,1.338c-0.084-0.225-0.335-0.339-0.561-0.255c-0.058,0.021-0.111,0.056-0.155,0.1l-6.662,5.915
	c-0.249,0.529-0.841,0.591-1.214,0.934c-0.374,0.343,0,1.806-0.592,2.584c1.78-0.979,3.44-2.159,4.95-3.518
	c2.23-1.147,4.251-2.663,5.977-4.483c0.312,1.464-1.059,2.086-0.747,3.113c-0.902,0.561-0.996,1.557-1.245,2.459
	c0.032,1.309-0.35,2.594-1.09,3.674c1.811-0.967,3.805-1.54,5.853-1.682c-0.591,0.872-0.778,1.464-1.151,1.65
	c-0.374,0.187-1.494,0.716-2.241,1.027c0.132,0.914,0.362,1.812,0.685,2.677c0.076,0.438,0.459,0.754,0.902,0.747
	c0.593,0.376,1.295,0.541,1.993,0.467c-0.498,0.966-1.556,1.619-1.587,2.864l0,0c0,0.374,0,0.81-0.343,0.935l-1.432,0.653
	c-0.523,0.718-0.826,1.572-0.872,2.459c-1.408,0.861-3.02,1.334-4.669,1.37c-0.913,1.102-2.158,1.877-3.549,2.21
	c0,0.28,0,0.654-0.404,0.716c-1.845,0.495-3.528,1.461-4.888,2.802c-0.061,0.132-0.134,0.257-0.218,0.374
	c-0.716,1.214-0.716,1.214,0.747,1.339h1.681h0.529c1.398-1.073,3.219-1.431,4.919-0.966c-0.405,0.343-0.778,0.623-1.183,0.903
	l3.113,0.187c2.439,0.142,4.883-0.197,7.191-0.996c0.218-0.404,0.529-0.841,0.965-0.778c1.619,0,3.113-0.685,4.794-0.374
	c1.537,0.259,3.111-0.124,4.358-1.058c0.811-0.595,1.797-0.901,2.802-0.872c1.646-0.271,3.316-0.354,4.981-0.249
	c0.747,0,1.525-0.187,2.21,0.437c0.685,0.622,1.276,0.218,1.93,0.279h0.436c-0.112,0.679,0.347,1.32,1.025,1.432
	c0,0,0.001,0.001,0.002,0.001c1.681,0.418,3.405,0.638,5.137,0.653c0.598,0.008,1.14-0.35,1.37-0.902h0.997
	c0.436,1.557,2.366,2.086,2.646,3.798c0,0.28,1.214,0.685,1.588,0.498c1.587-0.841,3.113-0.312,4.918-0.592
	c2.042-0.617,4.232-0.541,6.226,0.218c2.125,0.968,4.507,1.22,6.786,0.717c2.896-0.312,5.043,1.369,7.565,1.992c0,0,0,0,0,0.187
	c0.467,0.685,0.84,0.467,1.401,0c0.982-0.899,2.365-1.219,3.642-0.841c0.971,0.416,2.098,0.165,2.802-0.622
	c0.498-0.561,1.059-0.343,1.587,0h1.308c0.799-0.048,1.599-0.048,2.397,0c2.646,0.498,3.269,0,3.798-2.771
	c0.186-0.298,0.522-0.466,0.872-0.437c0.685,0.592,0.778,0,0.903-0.467h0.404c0.81,0,1.525,0.343,1.806,1.339
	c0.467,1.743,0.841,1.961,2.584,1.649c0.623,0,1.245-0.498,1.868,0c1.133,0.747,2.603,0.747,3.736,0
	c0.82-0.501,1.805-0.657,2.739-0.436c0.903,0.312,1.401-0.155,1.401-1.121c-0.066-0.52,0.119-1.039,0.498-1.4
	c1.098-1.308,2.685-2.106,4.389-2.21h0.623c2.085,0.187,2.397,0.591,2.21,2.583c0,1.059-0.872,1.774-1.183,2.802
	c1.164,0.632,2.601,0.457,3.58-0.436c1.088-0.634,2.263-1.105,3.486-1.4c0.088-0.195,0.192-0.383,0.312-0.561
	c0.059,0.132,0.131,0.257,0.218,0.373c0.365-0.112,0.72-0.258,1.059-0.436c0.335-0.157,0.723-0.157,1.059,0
	c1.743,0.467,1.774,0.467,2.49-0.934c0.422-1.125,1.507-1.861,2.708-1.837c1.276,0.187,3.113,0,3.113,2.179
	c0.071,0.602,0.465,1.115,1.027,1.339c1.619,0.934,3.518,1.37,5.105,2.397c0.436,0.279,0.996,0,1.494-0.219l3.892-1.525
	c0.653-0.311,1.276-0.467,1.806,0c0.529,0.468,1.712,0.748,2.739,0.28l0,0c-0.697-1.412-0.229-3.123,1.089-3.984
	c1.174-0.431,2.423-0.621,3.673-0.561c1.266,0.032,2.49-0.45,3.394-1.339c0.591-0.653,1.12-1.338,0.498-2.428l-2.584,0.28
	c0-0.28,0-0.498,0.28-1.09c-0.688,0.104-1.359,0.304-1.993,0.592c-2.428,1.432-2.428,1.463-5.323,0.529
	c0.311-1.276,1.463-1.557,2.459-1.931c2.49-0.902,4.98-1.773,7.564-2.49c1.551-0.219,2.939-1.076,3.829-2.365
	c0.273-0.328,0.587-0.621,0.934-0.872c0.552,0.187,1.13,0.281,1.712,0.28c1.218-0.201,2.438,0.337,3.113,1.37
	c0.288,0.351,0.664,0.618,1.09,0.778c0.001-0.309-0.085-0.611-0.25-0.872c-0.186-0.224-0.333-0.476-0.436-0.747
	c-0.203-0.324-0.203-0.734,0-1.059c0.312-0.342,0.623-0.155,0.965,0c0.926,0.794,1.733,1.717,2.397,2.739
	c0.101,0.272,0.248,0.525,0.436,0.747c0.163,0.15,0.309,0.317,0.436,0.498c0.373,0.156,0.778,0.249,1.151,0.437
	c1.432,0.653,2.802,1.369,4.141,0c0.93,0.679,1.409,1.817,1.245,2.957c0.316,0.014,0.625,0.099,0.903,0.249
	c0.384-0.2,0.741-0.452,1.059-0.747c1.088-1.519,2.412-2.854,3.922-3.953c0.374-0.218,0.498-0.935,0.654-1.464
	c0.223-1.38,1.47-2.356,2.864-2.241c0.929,0.01,1.824-0.348,2.49-0.996c1.557-1.308,2.18-1.214,3.113,0.498
	c0.329,0.99,1.296,1.622,2.335,1.525c1.898,0,3.829,0,6.226,0c-1.256,1.417-3.089,2.185-4.98,2.086
	c-0.563-0.129-1.148-0.129-1.712,0c0.81,0,1.245,0.404,1.743,0.903l0.654,0.871c0.529,0.747,1.307,0.653,2.054,0.716
	s1.121-0.685,1.744-0.996c2.7-1.013,5.017-2.84,6.63-5.229c1.712-3.518,3.3-7.066,4.888-10.646c0.654-1.463,0.778-1.557,2.304-1.121
	l1.837,9.34l2.304-1.837l1.338,1.183c0.28,0,0.591,0,0.716-0.249l2.397-2.833c0.841-0.965,1.681-1.867,3.362-1.12l-3.113,5.354
	l0.343,0.342c1.173-0.534,2.379-0.991,3.611-1.369c1.323-0.298,2.665-0.506,4.016-0.623c1.058,1.152,0.622,2.553,0.436,3.892
	s-0.249,1.992-0.374,3.113c-0.028,0.543-0.09,1.083-0.187,1.618c-0.747,2.709-1.37,3.113-4.265,3.113c-0.218,0-0.436,0-0.716,0
	c-0.498,1.214,0,2.926-1.93,3.58c-2.593-2.823-4.491-6.213-5.542-9.899c-1.432,0-1.681,0.902-1.898,1.681
	c-0.218,0.778,0,1.121-0.28,1.619s-0.685,0.902-0.903,0.871c-0.48-0.155-0.881-0.489-1.121-0.934
	c-0.3-0.832-0.539-1.686-0.716-2.553c-0.507,0.24-0.987,0.532-1.433,0.872c-0.511,0.495-1.256,0.663-1.93,0.436
	c-1.588-0.404-2.023,0-2.272,1.681c-0.186,1.896,0.557,3.763,1.992,5.013c0.235,0.214,0.485,0.411,0.747,0.591
	c0.778,0.623,1.743,1.276,1.401,2.46c-0.343,1.183-1.619,1.4-2.678,1.587c-1.058,0.188-2.771,0.343-4.14,0.561h-0.218
	c0.207,0.353,0.394,0.717,0.561,1.09c0.13,0.16,0.275,0.307,0.436,0.436c0.217,0.029,0.437,0.029,0.654,0
	c1.868-0.934,3.735-1.805,5.666,0c0.131,0.045,0.273,0.045,0.404,0c1.021,0.084,1.98,0.525,2.708,1.246
	c1.23,0.994,2.777,1.513,4.358,1.463c-0.277-0.569-0.204-1.246,0.187-1.743l2.646-4.078h0.374c0,0.218,0,0.436,0,0.653l0.187-0.218
	l1.308,0.467c0.109,0.262,0.245,0.513,0.404,0.747c0.436-0.249,0.934,0,1.899,0.218l0.654-0.965c0.218,0,0.467,0.187,0.561,0.374
	c0.093,0.187,0.404,0.84,0.591,1.245l0.436-0.28c0.653-0.467,1.245-1.027,2.117-0.903c1.52,0.142,3.048-0.173,4.389-0.902h1.37
	c0.211,0.231,0.465,0.422,0.747,0.56c-0.226-0.612,0.087-1.293,0.7-1.52c0.005-0.002,0.011-0.004,0.017-0.005
	c0.653-0.343,2.179,0.528,2.646,1.494c0.467,0.965,0.374,1.058,0.592,1.712c0.747,0.342,1.557,0.592,2.366,0.871h0.436
	c0.73,0.014,1.447,0.206,2.086,0.561c1.089,0.437,1.307,0.28,1.307-0.84c0-1.121,0.249-1.774,1.868-1.744
	c1.619,0.031,1.93-0.56,1.588-1.836c-0.343-1.276,0.155-1.557,0.218-2.335c-0.934,0-2.086,0.155-1.059-1.401
	c0-0.155-0.187-0.529-0.249-0.809c-0.062-0.28,0.996-0.592,0.623-1.215c-0.112-0.188-0.206-0.386-0.28-0.591
	c-0.932-0.079-1.87-0.079-2.802,0l0.467,1.463c-0.872,0-1.588,0-2.304,0c-2.055-0.218-2.459,0-3.269,1.992
	c-1.65-0.187-1.65-0.187-3.113-3.704c-0.965,1.369-1.992,2.553-3.798,2.396c-1.089-1.712-1.121-1.743,0.561-2.708
	c1.283-0.592,2.224-1.739,2.553-3.113c0.187-1.09,0.81-1.432,1.868-1.059c0.366,0.123,0.74,0.217,1.121,0.28
	c1.65,0.28,2.055,1.37,0.996,2.739c-0.358,0.412-0.615,0.902-0.747,1.433c1.562-0.553,3.063-1.262,4.482-2.117h-0.965
	c-0.342-1.712-0.342-1.712-2.023-1.868l-0.529-0.871c0.046-0.12,0.046-0.253,0-0.374c0.273-1,1.299-1.596,2.304-1.338
	c0.405,0.404,0.934,0.685,1.027,1.338c0.094,0.654-0.685,0.747-0.155,1.09c0.529,0.343,0.622-0.218,0.84-0.529l0.187-0.373h1.214
	c0,0.529,0.312,0.871,0.903,0.404c0.584-0.204,1.221-0.204,1.805,0l0.437,0.155c0.586-0.197,1.191-0.333,1.805-0.404
	c0.063,0.214,0.063,0.44,0,0.653c0.855-0.127,1.609-0.629,2.055-1.369c0-0.343,0-0.747,0-1.027c-0.467-0.778-0.997-1.432,0.529-1.65
	c0.467,0,0-0.747,0-1.12c0.899-0.506,1.961-0.64,2.958-0.374c0.155,0.312,0.311,0.623,0.436,0.934
	c0.125,0.312,0.467,0.686,0.934,0.343c-0.155-0.622-0.56-1.214-0.342-1.93l-0.467-0.467h-0.778c0-1.215-1.246-0.903-1.931-1.339
	h-0.218c-0.788-0.032-1.565-0.189-2.304-0.467c0.654-1.121,2.117-1.276,2.927-2.241c-0.354-0.213-0.797-0.213-1.152,0
	c-0.343,0.106-0.699,0.17-1.058,0.187c-1.338,0-1.557-0.529-1.775-1.93c-0.218-1.401,0.685-2.148,0.654-3.301
	c-2.658,0.813-5.2,1.965-7.564,3.425l1.027,1.276c-0.561,1.027-1.308,1.4-1.961,0.778c-0.338-0.279-0.494-0.723-0.405-1.151
	c-0.266,0.062-0.543,0.062-0.81,0v-0.966c0.436-0.312,0.498-0.84,0.716-1.276c1.072-2.201,2.365-4.287,3.86-6.226l0,0l0,0l0,0
	c-0.998-0.428-1.931-0.994-2.771-1.682c-0.374-0.311-0.436-0.965-0.841-1.898c1.424,1.32,3.322,2.005,5.261,1.898
	c0.769-1.201,1.375-2.499,1.805-3.859c0.514-0.711,0.952-1.472,1.308-2.272c1.182-1.6,2.029-3.421,2.49-5.354
	c0.343-0.561,0.685-1.121,1.059-1.682c0.751-1.083,1.319-2.281,1.681-3.549c0.399-0.304,0.911-0.418,1.401-0.312
	c1.234,0.229,2.505-0.115,3.456-0.934c3.722-0.88,7.024-3.025,9.339-6.07c0-0.654,0-1.214-0.623-1.432
	c0.529,0.218,0.623,0.777,0.623,1.432c3.456-3.27,6.349-7.088,8.561-11.301c1.187-1.997,2.227-4.078,3.113-6.226
	c0.694-0.647,1.191-1.479,1.432-2.397c0.934-2.085,1.681-4.202,2.646-6.226c1.557-3.486,1.899-7.347,3.705-10.74
	c0.682-1.533,1.072-3.18,1.152-4.856c1.276-1.027,1.027-2.677,1.712-3.953c0.685-1.276,0.934-2.304,1.245-3.486
	c1.443-3.425,2.234-7.088,2.335-10.803c0.066-0.492,0.159-0.98,0.28-1.463c0-1.245,0.778-1.65,1.898-1.494
	c0-1.09-1.245-1.899-0.872-3.113v-0.436C307.007,298.666,306.944,298.138,307.474,297.826z M301.248,182.986
	c0.033,0.058,0.033,0.129,0,0.187h-0.187c0,0-0.218-0.218-0.187-0.249c0.031-0.031,0.28-0.093,0.405,0.062H301.248z
	 M298.135,171.842c0.28,0.405,1.059,0.654,0.436,1.338c-0.404-0.405-1.183-0.623-0.56-1.307L298.135,171.842z M297.356,170.659
	L297.356,170.659l-0.28,0.156l-0.155-0.156c0.102-0.029,0.209-0.029,0.311,0H297.356z M292.967,161.569l0.498,0.653l-0.498,0.312
	l-0.467-0.778L292.967,161.569z M41.123,380.445c0.068,1.7-0.562,3.354-1.743,4.576C39.496,383.357,40.103,381.766,41.123,380.445z
	 M37.854,373.69c-0.251,2.985-1.329,5.843-3.113,8.249c0.195-2.979,1.279-5.831,3.113-8.187V373.69z M35.644,395.481
	c-0.436,1.65-0.747,2.864-1.214,4.515c-0.685-2.771-0.653-2.833,1.215-4.576L35.644,395.481z M25.776,401.334h0.436l-1.121,5.51
	h-0.56c0.405-1.93,0.716-3.735,1.245-5.572V401.334z M21.387,410.673c0.612,0.976,0.524,2.233-0.218,3.113
	c-1.899-3.735,0-6.444,1.432-9.339l0.498,0.155c-0.498,1.059-0.902,2.18-1.463,3.113c-0.579,0.833-0.674,1.911-0.249,2.833V410.673z
	 M23.224,393.832c-0.654-0.498-2.024-0.156-2.211-1.494c-0.342-1.065-0.011-2.232,0.841-2.958c1.681,0.462,2.866,1.963,2.926,3.705
	c0,1.12,0.685,2.677-1.338,3.424c-0.062-1.059-0.125-1.867-0.218-2.802L23.224,393.832z M23.752,420.572
	c0-2.365,1.899-3.642,2.708-5.665l-0.903-0.841v-0.373l3.3,0.436L23.752,420.572z M27.769,405.941
	c0.129,1.634-0.312,3.262-1.246,4.607c-0.283-1.683,0.17-3.406,1.246-4.732V405.941z M29.044,388.758
	c-0.244,0.239-0.516,0.448-0.809,0.622l0,0l0,0l0,0c0.327,0.962-0.015,2.024-0.841,2.615l0.841-2.615l0,0l0,0
	c0.47-2.44,1.388-4.773,2.708-6.88c-0.934,1.899-0.404,4.172-1.899,6.133V388.758z M31.971,391.87
	c0.321,2.235-0.141,4.512-1.308,6.444l-0.623-0.218c0.623-2.304,1.432-4.358,1.93-6.444V391.87z M30.103,415.343l1.899-2.335
	l0.467,0.405l-1.992,2.241L30.103,415.343z M38.135,415.623c-1.345,2.697-4.327,4.163-7.285,3.58
	c0.498-3.113,3.58-4.421,4.389-7.378l6.662,1.681c-1.899,2.086-2.708,2.584-3.767,1.899V415.623z M46.011,369.457
	c-0.996-1.961-0.467-3.113,2.117-4.452c-0.005,1.665-0.788,3.231-2.117,4.234V369.457z M48.812,385.021
	c-0.872-1.183,0-2.023,0.249-3.112h0.592L48.812,385.021z M48.626,356.476l-0.343-0.28l1.837-2.18l0.342,0.28L48.626,356.476z
	 M53.233,366.53l-1.246,4.421l-1.681,0.155c1.059-3.331,1.121-3.455,2.957-4.731L53.233,366.53z M51.396,379.637
	c-0.685-1.619-0.374-2.117,2.833-4.172c-0.965,1.214-1.837,2.584-2.833,4.016V379.637z M58.369,370.11l0.436,0.249l-0.591,0.965
	l-0.405-0.249L58.369,370.11z M55.879,385.115c0.343-1.276,0.623-2.396,0.965-3.735l1.433,0.996l0.778-0.903
	c0.342,0.498,0.623,0.966,0.903,1.401L55.879,385.115z M57.187,396.571c1.12-2.117,3.704-3.113,3.642-6.039
	c0.322,2.574-1.194,5.024-3.642,5.884V396.571z M83.616,304.893c0.373,0.373,0.934,0.747,0.872,0.902
	c-0.714,1.856,0.166,3.945,1.992,4.732l-3.362,1.369c-0.721-2.366-0.543-4.915,0.498-7.159V304.893z M85.483,323.011
	c-0.559-2.558-0.297-5.227,0.747-7.627c0.094,2.396,1.495,5.043-0.747,7.471V323.011z M81.032,310.559l0.187,0.716l-1.308,0.373
	c0-0.28-0.187-0.778,0-0.778c0.362-0.183,0.736-0.339,1.121-0.467V310.559z M81.717,343.027c0,1.338-0.187,2.677-0.312,4.265
	c-1.136-1.291-1.01-3.258,0.281-4.394c0.01-0.009,0.021-0.018,0.031-0.027V343.027z M77.172,320.676
	c0.934,1.557,0,2.677-0.872,3.767c0.312-1.432,0.592-2.677,0.872-3.923V320.676z M75.989,342.81c0,0.716-0.342,1.4-0.498,2.116
	l-0.716-0.155c0.218-0.716,0.467-1.401,0.716-2.117L75.989,342.81z M69.327,351.245l0.187,0.249l-0.218,0.312
	c-0.015-0.124-0.015-0.249,0-0.373c0,0,0-0.28,0.031-0.343V351.245z M67.926,348.133h0.218c-0.102,0.214-0.216,0.422-0.342,0.622
	h-0.187L67.926,348.133z M66.276,336.832c0.148,2.128-0.69,4.205-2.272,5.635c0.246-2.113,1.028-4.128,2.273-5.853L66.276,336.832z
	 M63.63,373.441c-0.078-0.547-0.078-1.103,0-1.65c0-0.187,0.249-0.373,0.592-0.747c0.373,0.28,0.809,0.468,0.809,0.623
	c-0.064,0.649-0.21,1.287-0.436,1.899c-0.345-0.03-0.678-0.148-0.964-0.343L63.63,373.441z M64.906,384.462l-0.28-0.249l0.654-0.717
	l0.28,0.28L64.906,384.462z M64.471,364.663c0.078-0.662,0.078-1.331,0-1.993l0,0l0,0l-2.024-0.529
	c-0.591-3.112-0.591-3.112,0.249-5.198c1.93,0.561,1.961,2.179,2.024,3.735c-0.006,0.672-0.09,1.34-0.249,1.992l0,0l0,0
	c0.404,0,0.871,0,1.089,0.249s0.436,0.997,0.747,1.433c1.184,1.618,1.214,1.618-0.467,2.895c-1.098-0.285-1.757-1.407-1.471-2.506
	c0.026-0.101,0.061-0.199,0.102-0.296V364.663z M66.836,412.572c-1.058-2.459-1.058-2.49,0.778-3.549
	c0.125,1.059,0.53,2.366-0.777,3.331L66.836,412.572z M67.988,389.66l1.494-3.549l0.498,0.218c-0.021,1.331-0.792,2.536-1.992,3.113
	V389.66z M69.389,370.328c-0.336,0.284-0.778,0.409-1.214,0.343c-0.383-0.234-0.628-0.642-0.654-1.09
	c0-0.871,0.311-1.743,0.467-2.677c2.304,0.902,2.771,2.179,1.401,3.206L69.389,370.328z M71.164,386.672
	c1.276,0,1.743,0.654,1.868,1.992c-1.93-0.28-1.93-0.28-1.867-2.21L71.164,386.672z M72.191,373.598
	c-0.84,0-0.965-0.623-1.027-1.246c-0.286-1.367-0.2-2.786,0.249-4.108c1.285,0.82,2.06,2.241,2.054,3.767
	c0.063,0.716-0.311,1.307-1.275,1.369L72.191,373.598z M74.557,338.202c0,1.494,0.872,3.113-0.218,4.576
	c-1.369-1.931-0.591-3.394,0.218-4.794L74.557,338.202z M74.557,365.441c1.339,1.276,2.397,2.116,3.113,3.112
	c0.463,0.642,0.318,1.536-0.322,2c-0.027,0.019-0.055,0.037-0.083,0.055c-0.716,0.529-1.557,0.935-2.833,1.682L74.557,365.441z
	 M76.176,396.073l-0.249,0.218l0,0c-0.005-0.104-0.005-0.207,0-0.312L76.176,396.073z M75.833,422.129h0.156v0.188L75.833,422.129z
	 M78.074,402.828c-0.653,0.561-1.4,1.308-2.615,0.249l2.833-2.646c0.57,0.597,0.548,1.543-0.049,2.112
	c-0.024,0.023-0.049,0.045-0.075,0.066L78.074,402.828z M77.109,347.261c0-0.778,0.28-1.618,0.405-2.428
	c-0.28-0.249-0.809-0.498-0.809-0.778c-0.089-1.297,0.25-2.588,0.965-3.674c0.965,1.682,0,3.113,0,4.358
	c1.214,0,1.992,0.872,1.774,1.931c-0.218,1.058-1.089,0.902-2.241,0.373L77.109,347.261z M79.07,377.862c0,0,0,0,0-0.156v0.312
	l-0.311,0.249c0.039-0.256,0.187-0.482,0.404-0.622L79.07,377.862z M79.818,388.291c-0.28-0.437-0.529-0.903-0.778-1.339
	l0.436-0.249l0.747,1.369L79.818,388.291z M80.223,395.42c-0.127-0.196-0.202-0.421-0.218-0.654c0,0,0.311-0.218,0.498-0.312
	c0.187-0.093,0.156,0.374,0.28,0.592L80.223,395.42z M79.725,370.733c-0.436-1.464-1.152-3.113,0.187-4.576l2.023,1.12
	c0.343,1.588,0.685,3.113,1.121,4.981c-1.37-0.778-2.833-0.312-3.237-1.743L79.725,370.733z M83.74,339.603
	c1.37,1.899,1.339,2.584-0.342,5.137c-0.903-2.272,0-3.798,0.436-5.448L83.74,339.603z M83.74,347.105l0.778-2.958
	c1.525,1.65,1.557,1.806,1.37,3.798L83.74,347.105z M85.483,397.381L85.483,397.381c0,0,0-0.218,0-0.343l0.343,0.218L85.483,397.381
	z M85.079,389.629v-4.078l1.619,3.113c-0.217,0.541-0.812,0.825-1.37,0.654L85.079,389.629z M222.052,427.515h-0.218
	c-0.012-0.104-0.012-0.208,0-0.312c0,0,0,0,0.218,0c0.218,0,0.188-0.062,0.156-0.062L222.052,427.515z M223.204,422.409
	c0,0-0.187-0.218,0-0.28c0.187-0.062,0.218-0.187,0.342-0.279c0.125-0.094,0,0.248,0,0.311c-0.065-0.011-0.128-0.031-0.187-0.062
	L223.204,422.409z M224.574,420.884c-0.342-0.591-1.027-1.214-0.903-1.587c0.25-0.708,0.778-1.281,1.463-1.588
	c1.245-0.467,1.276,0.965,2.148,1.557L224.574,420.884z M253.183,406.938c-0.393,0.906-1.367,1.414-2.335,1.215
	c0-0.686,0-1.339,0-2.304L253.183,406.938z M272.67,141.209c-1.557,0-2.023-1.183-3.113-2.304c2.896,0.062,2.896,0.062,3.27,1.992
	L272.67,141.209z M265.697,136.976l1.027,0.343v0.311l-1.027-0.342c-0.023-0.219,0.032-0.44,0.156-0.623L265.697,136.976z
	 M266.444,341.284c0.95,0.389,1.875,0.836,2.771,1.339l-0.28,0.809c-1.027-0.187-2.055-0.311-3.113-0.591
	c-0.249,0-0.374-0.716-0.561-1.09c0.623-0.498,1.059-0.903,1.339-0.778L266.444,341.284z M259.813,134.299l1.494,0.56
	c0,0,0,0,0,0.187v0.187l-1.712-0.685c0.25-0.436,0.343-0.592,0.374-0.561L259.813,134.299z M251.812,135.73l0.249,0.592
	l-1.338,0.498l-0.187-0.436L251.812,135.73z M253.525,168.386c-0.032,1.545-1.258,2.799-2.802,2.864
	c-1.451-0.076-2.615-1.227-2.708-2.677c-0.018-1.53,1.209-2.785,2.739-2.802c0.021,0,0.042,0,0.062,0
	c1.409-0.097,2.656,0.906,2.864,2.303L253.525,168.386z M247.641,130.812l2.802,0.467v0.312l-2.771-0.467L247.641,130.812z
	 M246.209,132.991l1.214,0.187c0,0,0,0.249,0,0.374h-1.214V132.991z M243.096,130.501L243.096,130.501h-1.338l0,0H243.096z
	 M239.423,327.275c0.223,0.192,0.33,0.487,0.28,0.778c-0.467,0.902-1.183,0.685-2.18,0.312c0.717-1.433,1.277-1.806,2.148-1.401
	L239.423,327.275z M239.423,374.625l-1.214,0.56c-0.014-0.187-0.014-0.374,0-0.56l1.214-0.312V374.625z M235.999,327.929
	l-1.089,0.188c0-0.156,0-0.405,0-0.405l1.089-0.218c0,0,0.374,0.031,0.405,0.187L235.999,327.929z M233.819,130.719h0.187
	l1.868-0.28v0.342h-1.898h-0.156l-2.272-0.498C232.309,129.846,233.274,130.031,233.819,130.719z M234.069,134.33l-2.242-0.716
	C233.291,132.929,233.291,132.929,234.069,134.33z M230.021,301.842c0,0,0.25,0.187,0.25,0.28c0,0.093-0.187,0.187-0.28,0.28
	l-0.311-0.374L230.021,301.842z M228.527,130.345c0,0,0,0.28,0,0.405l-3.953,0.374c-0.016-0.103-0.016-0.208,0-0.311
	L228.527,130.345z M224.325,132.835l0.374,0.623l-1.401,0.623c-0.095-0.149-0.179-0.305-0.249-0.467L224.325,132.835z
	 M221.586,132.213c0.065,0.108,0.138,0.213,0.218,0.311c-0.187,0.218-0.343,0.529-0.561,0.654s-0.529,0-0.778,0s0-0.218,0-0.342
	L221.586,132.213z M221.586,135.326l-0.903,0.405c-0.058-0.111-0.109-0.226-0.155-0.342l0.902-0.374c0,0,0.249,0.093,0.312,0.187
	L221.586,135.326z M220.247,198.178c0-0.155,0-0.342,0-0.436c-1.186-1.771-0.712-4.168,1.059-5.354
	c0.312-0.334,0.573-0.712,0.778-1.121l0,0l0,0c-0.312,0-0.81-0.218-0.903-0.467c-0.436-1.027-0.747-2.117-1.152-3.362l2.086-0.561
	c0.354,0.782,0.595,1.61,0.716,2.459c-0.12,0.687-0.374,1.342-0.747,1.93l0,0l2.304-0.903c-1.059,1.806-1.899,3.113-2.958,4.95
	l2.615-0.591v2.771h0.841c1.588,0,2.521,1.121,1.868,2.49c-0.33,0.528-0.715,1.019-1.152,1.463
	c-0.623,0.685-1.276,1.307-1.868,2.023c-0.591,0.716-1.432,0.996-2.055,0c-0.619-1.335-1.473-2.548-2.521-3.58
	c-0.405-0.312-0.311-1.245-0.498-2.21L220.247,198.178z M223.641,351.121l-0.903-0.374c-0.012-0.103-0.012-0.208,0-0.311
	l0.903,0.373V351.121z M224.045,365.689c0,0,0.249,0,0.498,0.28c-0.65,0.617-1.536,0.924-2.428,0.841v-0.436L224.045,365.689z
	 M222.894,308.255h0.311c0.051-0.015,0.104-0.015,0.156,0h-0.312H222.894z M223.143,335.649c0.778-1.494,0.902-1.494,3.331-0.405
	c-0.966,0.654-0.966,0.654-3.176,0.28L223.143,335.649z M217.259,134.33c-0.156,1.525-1.059,1.276-1.65,1.556
	c-0.126-0.211-0.24-0.429-0.342-0.653L217.259,134.33z M210.161,223.736c0,0,0.218,0,0.342,0c0.125,0,0,0.374,0,0.591
	s-0.342,0-0.373-0.218c-0.032-0.188,0.039-0.378,0.187-0.498L210.161,223.736z M214.052,224.763
	c0.249,0.841,0.529,1.712,0.716,2.304l3.269,2.117l1.276-0.81c3.113,1.681,3.113,1.961,1.774,3.922l0,0
	c0,1.089-0.218,2.148-0.342,3.549l-1.774-1.681c-1.015,0.793-2.413,0.88-3.518,0.218c-0.592-0.374-1.744,0-2.646,0.249
	c-0.082,1.059-0.291,2.104-0.622,3.113c-0.52,0.754-1.137,1.435-1.837,2.023c-1.881-0.547-3.343-2.033-3.86-3.922l3.113,0.498
	c2.49-2.646,2.615-2.864,2.428-4.203c-2.147,0-2.147,0-3.424-0.903c0.404-1.214,0.778-2.49,1.214-3.705
	c1.183-2.739,1.4-2.739,4.389-2.739L214.052,224.763z M221.212,334.342c0,0-0.28,0-0.373,0c-0.094,0,0-0.218,0-0.343
	c0-0.124,0.187,0,0.218,0s0.311,0.125,0.311,0.218L221.212,334.342z M214.55,239.643l2.896,1.961
	c-2.553,0.374-2.958,0.062-2.74-2.085L214.55,239.643z M215.017,314.355l-0.249,0.312h-0.187c-0.015-0.124-0.015-0.249,0-0.373
	L215.017,314.355z M218.13,326.217c-0.187,0-0.467,0.311-0.56,0.249l-4.981-2.304c1.992-1.898,2.926-1.557,5.666,1.868
	L218.13,326.217z M217.632,298.199c0.434-0.322,0.905-0.594,1.401-0.81c0.155,0,0.716,0.561,0.685,0.592
	c-0.346,0.517-0.731,1.006-1.151,1.463L217.632,298.199z M210.503,358.062c-0.623,0.623-0.623,0.623-1.65,0H210.503z
	 M206.612,223.051c-0.205-0.05-0.403-0.123-0.592-0.218c0.103-0.105,0.231-0.181,0.374-0.218c0.134,0.017,0.256,0.083,0.342,0.187
	c0,0,0.031,0.125,0,0.094L206.612,223.051z M209.134,222.553l-0.249,0.312c0,0-0.249-0.187-0.28-0.312s0-0.187,0.249-0.312
	L209.134,222.553z M208.418,166.207c-1.276,1.151,0,2.023,0.436,2.957c-0.311,0.467-0.965,0.623-0.902,1.214h-0.343
	c-1.377-0.06-2.49-1.146-2.584-2.521c-0.02-1.386,1.046-2.547,2.429-2.646L208.418,166.207z M201.725,165.522
	c0.077-0.245,0.14-0.495,0.187-0.747c0.747-3.113,2.646-3.736,5.511-1.152h-1.152c-1.702-0.245-3.279,0.937-3.524,2.638
	c-0.052,0.365-0.04,0.737,0.038,1.098c0.071,2.526,2.177,4.516,4.704,4.445c0.389-0.011,0.775-0.071,1.149-0.18
	c0,0.623,0,0.374,0,0.965c-2.932,0.876-6.02-0.791-6.896-3.723c-0.343-1.147-0.305-2.375,0.108-3.499L201.725,165.522z
	 M204.184,223.051c-1.618,1.183-3.113,0.685-4.98,0.747c1.12-1.463,1.867-1.556,5.105-0.902L204.184,223.051z M197.646,223.487
	l-2.055,1.027c0.529-1.836,0.529-1.836,2.179-1.183L197.646,223.487z M191.607,161.911l0.778,0.467l-0.343,0.716
	c-0.243-0.156-0.454-0.356-0.622-0.591c0,0,0.217-0.56,0.311-0.747L191.607,161.911z M187.716,177.196l-0.436,0.218l-0.685-1.401
	l0.591-0.28c0.311,0.342,0.466,0.84,0.653,1.308L187.716,177.196z M186.533,159.825h0.342c0,0.374,0,0.778-0.156,1.183h-0.311
	c0.155-0.561,0.217-0.965,0.249-1.338L186.533,159.825z M186.907,226.07c1.463,0,2.926,0.28,4.389,0.28
	c1.468-0.037,2.934-0.151,4.39-0.342c1.681,0,3.362-0.467,5.074-0.498c1.366,0.082,2.728,0.238,4.078,0.467
	c-1.356,2.577-4.317,3.87-7.129,3.113c-0.996,0.436-1.027,1.276-1.027,2.179c0.073,0.896-0.571,1.692-1.463,1.805
	c-1.436,0.293-2.922,0.229-4.327-0.187c0.905-1.062,1.953-1.995,3.113-2.771c1.246-0.56,2.491-0.809,2.74-2.459
	c-1.587-1.152-3.113-0.529-4.483,0.342l-1.089-0.903c-0.883,0.34-1.802,0.58-2.74,0.716c-0.94-0.071-1.87-0.248-2.771-0.529
	c-0.125-0.996,0.529-1.401,1.463-1.37L186.907,226.07z M204.713,356.817c0.01,0.104,0.01,0.208,0,0.312h-0.373l0.28-0.249
	L204.713,356.817z M186.035,231.083l2.895-0.934c0.25,1.557,0.437,2.646,0.623,3.767c-2.429-0.218-2.864-0.623-3.394-2.895
	L186.035,231.083z M188.961,238.305c-1.183,1.743-1.183,1.743-2.646,1.899c0-0.685-0.187-1.152,0.809-1.059
	c0.591-0.124,1.058-0.56,1.961-0.996L188.961,238.305z M189.335,387.948l1.743,0.404c-0.81,0.81-1.401,0.686-1.868,0.187
	c0.155-0.342,0.218-0.528,0.249-0.746L189.335,387.948z M185.941,235.223c0.187,0,0.841,0,0.934,0.343
	c0.343,0.872-0.28,1.183-1.027,1.37c-0.374-0.809-0.653-1.432,0.218-1.868L185.941,235.223z M185.008,165.989L185.008,165.989
	c0,0,0,0,0.218,0.155c-0.156,0.592-0.28,1.214-0.467,1.868c-0.156,0-0.312-0.218-0.312-0.28c0.404-0.84,0.529-1.37,0.685-1.899
	L185.008,165.989z M179.217,326.933c0.32-0.571,0.86-0.988,1.495-1.151c1.201-0.097,2.409-0.097,3.61,0
	c0.305,0.462,0.565,0.952,0.778,1.463c0.33,0.831-0.076,1.771-0.907,2.102c-0.148,0.059-0.304,0.096-0.462,0.108
	c-1.299,0.311-2.669,0.024-3.736-0.778c-0.529-0.685-0.965-1.151-0.653-1.898L179.217,326.933z M179.653,339.385l0.747,0.747
	l-0.249,0.28l-0.778-0.716L179.653,339.385z M181.272,240.453L181.272,240.453l1.744-1.338c0,0.467,0.28,0.623,0.249,0.747
	s-0.218,0.747-0.374,1.308L181.272,240.453L181.272,240.453l-1.121,2.086c-1.588-0.654-0.902-1.836-0.778-2.958L181.272,240.453z
	 M181.895,219.564c0.498-0.654,0.81-1.09,1.152-1.494c0.56,0.809,0.186,1.214-1.028,1.214L181.895,219.564z M183.451,247.582
	c0.482,0.491,0.476,1.279-0.015,1.761c-0.096,0.094-0.207,0.172-0.328,0.231c-0.641,0.492-1.56,0.371-2.051-0.27
	c-0.048-0.062-0.091-0.128-0.128-0.197c-0.344-0.521-0.616-1.087-0.81-1.681c-0.249-0.748,0.343-1.401,1.463-1.339
	c0.71,0.337,1.378,0.755,1.992,1.245L183.451,247.582z M179.031,225.168c-0.221-0.027-0.411-0.169-0.498-0.374
	c0.055-0.201,0.163-0.383,0.311-0.529c0.306,0.138,0.598,0.305,0.872,0.498c-0.219,0.031-0.405,0.187-0.561,0.031L179.031,225.168z
	 M180.12,310.153c-0.529,1.899-0.623,1.962-3.113,1.868l-1.183-2.086c1.743-1.681,1.961-1.649,4.42-0.031L180.12,310.153z
	 M183.576,316.38c-0.218,0-0.747-0.343-0.778-0.561c0-1.059,0.685-1.183,1.65-1.245c0.56,0.747,0.093,1.276-0.747,1.463
	L183.576,316.38z M184.043,180.838h0.373v1.276h-0.436c0.031-0.903,0.031-1.183,0.187-1.619L184.043,180.838z M184.043,195.065
	l-1.152,2.21c-0.187-1.992-0.218-1.992,1.338-2.552L184.043,195.065z M181.771,208.015v1.027h-0.374v-1.027H181.771z
	 M180.992,204.497l0.187,1.588h-0.529l-0.373-1.525L180.992,204.497z M179.218,207.112c0.155,0.28,0.404,0.498,0.436,0.778
	s-0.187,0.498-0.311,0.747H179c0-0.436,0-0.872,0-1.308L179.218,207.112z M179.685,218.07c0.265,0.234,0.403,0.581,0.374,0.934
	c0,0.312-0.529,0.778-0.716,0.716c-0.84-0.155-1.93,0-2.272-1.868c0.929-0.108,1.866-0.15,2.801-0.125L179.685,218.07z
	 M173.022,224.296l0.436,0.436c0,0-0.311,0.218-0.342,0.187c-0.125-0.077-0.214-0.2-0.249-0.343c0,0,0.279-0.623,0.342-0.716
	L173.022,224.296z M173.022,233.635c0.934-0.374,1.183,0.374,1.432,1.058c0.654,1.65,1.276,3.3,1.899,4.981c0,0,0.187,0.312,0,0.436
	c-0.135,0.813-0.332,1.615-0.591,2.397c0,0-0.903,0-0.965,0c-0.443-0.767-0.769-1.596-0.965-2.459c0-0.436,0.374-0.965,0.561-1.401
	l-2.117-3.113c-0.627-0.284-0.906-1.022-0.623-1.65c0.284-0.627,1.022-0.906,1.649-0.623l0,0L173.022,233.635z M171.559,319.742
	c0.529,0,1.027,0.404,1.525,0.467c0.559,0.061,1.123,0.061,1.681,0c0.165,0.457,0.301,0.925,0.404,1.4
	c0.249,2.023-0.436,2.678-2.335,1.992c-0.934-0.342-2.21,0-2.833-1.338c-0.28-0.592-1.027-0.965-0.498-1.774
	C169.902,319.757,170.784,319.437,171.559,319.742z M170.002,317.313c0.411-0.919,1.365-1.471,2.366-1.37
	c0.374,0,0.747,0.778,1.184,1.276c-0.841,1.045-2.369,1.211-3.414,0.37c-0.104-0.084-0.202-0.177-0.291-0.276H170.002z
	 M173.115,298.355l2.646-1.152C175.481,298.854,174.361,298.822,173.115,298.355z M169.535,235.036
	c1.308,1.588,1.152,1.899-0.965,2.304L169.535,235.036z M170.688,238.709c0.218,0.249,0.653,0.561,0.623,0.716
	c-0.467,1.587-0.498,3.486-3.113,3.922C169.068,241.667,170.905,240.795,170.688,238.709z M170.688,268.034l4.233,2.491
	c-0.841,0.809-1.992,0.529-3.113,0.591l0,0c-0.653,0.28-1.276,0.623-1.93,0.84c-1.468,0.49-3.072-0.173-3.767-1.556
	c-0.199-0.489-0.199-1.037,0-1.525c0.841-1.619,2.739-1.93,4.545-0.841H170.688z M163.683,328.77
	c-0.561,0.218-1.152,0.343-1.681,0.498c-1.432-2.023-1.401-2.521,0-4.576l1.899,1.09c0.512,0.348,1.054,0.649,1.619,0.902
	c0.778,0.28,1.743-0.218,2.304,0.778c0.839,1.037,1.281,2.34,1.245,3.674v0.996c-0.968-0.175-1.74-0.909-1.961-1.868
	c-0.81-2.584-0.841-2.584-3.455-1.494H163.683z M164.461,347.884c-0.155,1.4-0.747,2.086-1.93,2.147
	c-1.183,0.062-1.37-0.218-1.245-1.245L164.461,347.884z M159.107,361.114l-1.338,2.147
	C157.271,361.768,157.271,361.768,159.107,361.114z M158.204,347.884c0,0,0.156-0.187,0.436-0.529c0,0.591,0,0.902-0.156,1.245
	c-0.139-0.231-0.264-0.471-0.374-0.716H158.204z M158.391,325.034c-0.621,0.138-1.236-0.254-1.374-0.875
	c-0.02-0.091-0.029-0.185-0.027-0.277c0-0.436,0.716-1.183,1.027-1.151s0.996,0.622,1.774,1.183
	c-0.685,0.498-1.09,1.059-1.494,1.121H158.391z M154.188,316.131c-0.859-0.631-1.046-1.838-0.415-2.698
	c0.116-0.158,0.256-0.299,0.415-0.415c0.41,0.316,0.86,0.578,1.339,0.778c1.806,0.467,1.806,0.436,1.058,2.272L154.188,316.131z
	 M155.061,321.921c0.009,0.177,0.009,0.353,0,0.529l-1.214-0.405v-0.498L155.061,321.921z M146.811,300.13
	c0.498-0.686,2.023-0.28,3.673,0.934l-2.117,1.899l-2.055-1.059c0.018-0.576,0.133-1.145,0.342-1.682L146.811,300.13z
	 M144.476,277.996c-0.187-2.272,0-2.335,2.148-2.241L144.476,277.996z M147.122,263.396l3.58,1.121c0.387,1.13,0.387,2.356,0,3.486
	c-0.249,0.872-0.996,0.997-1.557,0.312c-0.561-0.685-0.312-0.716-0.561-0.965s-1.463-0.81-1.65-1.37
	c-0.11-0.829-0.079-1.671,0.093-2.49L147.122,263.396z M150.453,295.305c0-0.188,0.187-0.436,0.342-0.467
	c0.156-0.031,0.467,0.155,0.498,0.279c-0.034,0.181-0.108,0.352-0.218,0.498L150.453,295.305z M150.453,258.446
	c0.216-0.163,0.445-0.309,0.685-0.436c0.872-0.342,1.743-0.591,2.677-0.903c0.561,1.276,1.059,2.459,1.712,4.047l-2.521,0.561
	L150.453,258.446z M153.566,263.583l4.825,3.892c-1.058,1.774-1.525,1.961-3.331,1.121c-0.965-0.436-1.868-0.965-3.113-1.557
	c0.591-1.183,0.934-2.272,1.525-3.362L153.566,263.583z M161.006,249.667l1.401,2.023l0,0l0,0c0.809,1.774,0.809,1.806-0.841,2.958
	l0.841-2.958l0,0l-1.65,0.529c-0.657-0.68-0.639-1.764,0.042-2.421c0.036-0.035,0.074-0.069,0.114-0.101L161.006,249.667z
	 M160.851,245.527c0,0,0.311-0.187,0.467-0.28c0.062,0.142,0.114,0.287,0.156,0.436l-0.467,0.343
	c-0.156-0.062-0.312-0.28-0.249-0.405L160.851,245.527z M165.582,307.259c-3.518,0.155-4.358-1.121-3.113-4.327
	c1.482,1.085,2.548,2.645,3.019,4.42L165.582,307.259z M165.146,291.32c0.218-0.281,0.467-0.529,0.716-0.811l0.28,0.25
	c-0.222,0.283-0.461,0.555-0.716,0.809L165.146,291.32z M167.201,313.329c-1.09,1.027-1.961,1.774-3.113,1.276
	c-1.088-0.409-1.654-1.609-1.276-2.709L167.201,313.329z M162.22,256.952c-0.741,1.013-2.163,1.233-3.176,0.492
	c-0.111-0.082-0.216-0.173-0.311-0.274C159.885,256.454,159.885,256.454,162.22,256.952z M161.441,262.182l-4.296,0.467
	c1.183-2.179,2.646-2.303,4.172-0.498L161.441,262.182z M158.08,297.483c0,0.249-0.28,0.436-0.405,0.653h-0.312
	c0-0.467,0-0.902,0.156-1.369h0.373c0.06,0.233,0.081,0.476,0.062,0.716H158.08z M154.562,288.829l-0.934,0.249l-0.342-0.311
	l1.058-0.156L154.562,288.829z M152.289,305.826l4.421,0.467c0.307,0.616,0.056,1.363-0.56,1.67
	c-0.031,0.016-0.062,0.029-0.095,0.043c-0.658,0.51-1.425,0.861-2.241,1.026c-1.432,0.062-1.836-0.965-1.649-3.299L152.289,305.826z
	 M159.263,292.16l-0.312-0.467l2.927-2.242c-0.499,2.024-1.744,2.242-2.771,2.709H159.263z M165.021,249.138
	c0.747-1.93,0.747-1.93,2.335-0.405L165.021,249.138z M165.364,245.247c-0.462-0.648-0.799-1.376-0.997-2.148
	c0,0,0.529-0.498,0.84-0.747c0.654,1.121,1.214,2.086,1.993,3.518c-1.089-0.311-1.712-0.311-1.868-0.622L165.364,245.247z
	 M166.453,223.611c-0.342,0.685-0.373,0.996-0.56,1.121c-0.306,0.162-0.63,0.287-0.965,0.374c0-0.187-0.155-0.343-0.218-0.529
	L166.453,223.611z M165.737,233.978c0,0,0,0.374,0,0.405l-1.338,0.778c0-0.28-0.187-0.561-0.311-0.841L165.737,233.978z
	 M164.15,236.468c0.467,1.121,0.872,2.086,1.401,3.269l-2.646,1.09c0.218-0.872,0.467-1.339,0.374-1.774
	c-0.183-0.56-0.456-1.086-0.81-1.557L164.15,236.468z M162.78,246.616c0.28,0,0.498,0.374,0.934,0.747
	c-0.529,0.249-0.872,0.561-1.089,0.498c-0.218-0.062-0.436-0.529-0.467-0.809s0.312-0.467,0.499-0.467L162.78,246.616z
	 M160.383,234.693l1.432,1.681c-0.405,1.37-1.494,1.588-2.739,1.743c0-0.747-0.218-1.401-0.342-2.272L160.383,234.693z
	 M157.644,231.581c0,0,0.342,0.156,0.312,0.218c-0.075,0.202-0.18,0.391-0.312,0.561l-0.467-0.436
	c0.094-0.142,0.21-0.267,0.343-0.373L157.644,231.581z M160.757,242.227c-0.997,0.996-2.148,0.716-3.518,0.561l0.311-1.868
	l-1.12-0.716c2.397-1.121,2.397-1.121,4.233,1.993L160.757,242.227z M158.515,246.149c-0.685,1.432,1.619,3.113-0.654,4.514
	l-1.588-2.74c0.281-0.872,0.561-1.836,2.148-1.805L158.515,246.149z M152.601,255.707c-0.498-0.965-1.027-1.806-1.37-2.677
	c-0.171-0.494-0.171-1.031,0-1.525c0.312-1.214,1.183-1.338,2.023-0.404l2.646,3.113c-0.747,1.463-2.086,1.525-3.393,1.463
	L152.601,255.707z M154.779,236.499c0,1.027,0,1.993,0.187,3.3l-2.708,0.374c0.623-1.619-0.279-3.58,2.429-3.704L154.779,236.499z
	 M151.667,234.071c0.083,0.109,0.136,0.238,0.156,0.374l-1.121,0.654l-0.28-0.654L151.667,234.071z M151.667,242.009
	c0.81,1.587,1.463,2.926,2.117,4.296c-0.846,0.761-2.039,1-3.113,0.623c-0.156-0.965-0.342-1.93-0.529-3.113L151.667,242.009z
	 M147.215,259.536c-0.352,0.04-0.707,0.04-1.059,0c0-1.588-2.864-2.428-0.902-4.669c0.872,0.685,1.743,1.307,2.521,1.992
	c1.152,1.276,0.965,2.179-0.716,2.646L147.215,259.536z M146.063,238.149l0.653,0.342c-0.653,0.903,0,2.615-2.428,2.802
	L146.063,238.149z M143.261,245.62l0.685,1.37l0.498,1.245c-1.712,0.903-2.521,0.934-2.927,0.155
	c-0.404-0.778,0.001-1.805,1.588-2.801L143.261,245.62z M140.397,268.408c2.374,0.971,4.501,2.46,6.226,4.358
	c-1.338,1.525-0.81,1.214-5.385,1.121c-0.81-1.868-2.397-3.456-0.996-5.51L140.397,268.408z M140.055,240.079
	c-0.778,3.113-0.778,3.113-2.116,3.113L140.055,240.079z M136.133,248.142c0.498,0.997,0.996,1.993,1.525,3.113
	c0.315,0.471,0.189,1.109-0.282,1.425c-0.086,0.058-0.18,0.102-0.279,0.131c-0.557,0.219-1.129,0.396-1.712,0.529
	c-1.183-2.584-1.183-3.642,0.591-5.23L136.133,248.142z M134.545,255.675c0.36-0.398,0.756-0.763,1.183-1.089
	c0.374,1.276,0.592,2.334,0.965,3.3c0.374,0.965,0.84,1.806,1.276,2.708c-2.148,1.339-3.113,0.934-3.58-1.338
	c-0.505-1.15-0.502-2.46,0-3.611L134.545,255.675z M132.086,273.14c1.906,1.849,4.22,3.224,6.755,4.016l-3.829,1.899
	c-3.673-1.743-4.233-2.801-3.082-5.946L132.086,273.14z M132.864,304.985c-0.81,0.156-1.619,0.561-2.117,0.343
	c-1.154-0.395-1.853-1.567-1.65-2.771c1.654-0.308,3.253,0.754,3.611,2.397L132.864,304.985z M129.906,301.25
	c0.043-0.114,0.107-0.22,0.187-0.312l0,0L129.906,301.25z M133.02,340.536l0.218,0.312l-0.311,0.249c0,0-0.187-0.218-0.187-0.312
	c0-0.093-0.031-0.217,0.062-0.279L133.02,340.536z M131.4,321.516c-1.027-1.898-2.428-3.58-0.902-5.79
	c1.628,1.493,1.882,3.967,0.592,5.76L131.4,321.516z M128.973,294.433c-0.196,0.132-0.42,0.218-0.654,0.249l-0.498-0.561
	l1.184-0.747l0.373,0.28c-0.159,0.285-0.37,0.539-0.622,0.747L128.973,294.433z M130.467,308.908c0.218,1.12,0,1.837-0.996,2.055
	s-1.463-0.498-1.681-1.868L130.467,308.908z M128.505,353.549c0.965,1.308,1.868,2.615,2.833,3.892
	c0.965,1.276,1.868,2.335,2.864,3.549c-0.841,0.498-1.308,1.027-1.992,0.155c-0.409-0.527-0.977-0.909-1.619-1.09
	c-1.198-0.197-2.123-1.16-2.272-2.365c-0.249-1.245-0.404-2.521-0.591-3.798L128.505,353.549z M127.042,253.465
	c0.249-0.56,0.529-1.058,0.903-1.743c1.649,0.965,1.214,2.74,2.023,3.922c-0.673,0.765-1.814,0.899-2.646,0.312
	c-1.121-0.685-0.903-1.65-0.498-2.521L127.042,253.465z M130.902,266.166c-1.338,1.401-1.37,1.401-2.833,0.467
	c-1.463-0.934-1.432-2.148,0-5.417L130.902,266.166z M131.151,283.102c0.804,0.334,1.654,0.544,2.521,0.622
	c-1.4,1.962-2.241,2.179-4.451,1.37c-0.919-0.256-1.855-0.443-2.802-0.561c-0.778-1.432-0.249-2.771,0.249-4.514
	c1.419,1.094,2.895,2.112,4.421,3.051L131.151,283.102z M124.926,306.604c1.867,1.4,1.867,1.4,0.809,3.892
	c-2.147-0.965-2.147-0.996-1.058-3.923L124.926,306.604z M124.614,301.717c0-0.28,0.218-0.561,0.343-0.84h0.28l-0.312,0.84H124.614z
	 M126.513,315.819c0.529,0.591,1.059,1.214,0.405,1.992c-0.864,0.569-2.02,0.396-2.677-0.405c-0.56-0.809-1.027-1.681-1.712-2.863
	c1.375-0.225,2.771,0.241,3.736,1.245L126.513,315.819z M124.521,324.225l-0.404,0.871h-0.374c0-0.312,0.156-0.623,0.249-0.934
	L124.521,324.225z M126.077,353.082c0.989,0.993,1.25,2.498,0.654,3.767c-2.014-1.639-3.254-4.041-3.425-6.631
	c0.81,1.059,1.557,1.993,2.522,2.833L126.077,353.082z M127.354,340.318v1.743c-1.338-0.653-1.214-1.183-0.249-1.773
	L127.354,340.318z M126.793,327.306c-0.653-0.311-0.965-0.778,0-1.992c0.28,0.536,0.53,1.087,0.747,1.65c0,0-0.84,0.374-0.995,0.312
	L126.793,327.306z M126.202,275.661c-1.339,2.054-2.18,2.085-3.674,0.436c-1.499-1.373-1.677-3.674-0.404-5.261L126.202,275.661z
	 M120.91,258.57h0.623c0.487,1.007,0.903,2.048,1.245,3.113c0.312,1.121-0.28,1.494-2.179,1.432
	c-0.656-1.459-0.633-3.135,0.062-4.576L120.91,258.57z M119.727,283.724c0.716,1.681,1.339,3.113,1.837,4.39
	c0.312,0.871,0.654,1.557,1.681,1.681c1.027,0.124,1.339,0.28,2.023,0.437c-1.346,1.539-3.516,2.062-5.416,1.307
	c-1.538-2.354-1.681-5.355-0.374-7.844L119.727,283.724z M117.641,317.251l1.214,2.646c-2.085-0.217-2.085-0.217-1.462-2.677
	L117.641,317.251z M119.26,328.178l-0.498,0.343l-0.81-1.401l0.343-0.249L119.26,328.178z M119.882,371.48
	c0.591,1.597,0.535,3.361-0.156,4.918c-1.116-0.051-1.98-0.996-1.93-2.112c0-0.002,0-0.003,0-0.005
	c0-4.108-1.588-8.156-0.623-12.451c0.017,3.359,0.861,6.664,2.46,9.619L119.882,371.48z M117.828,340.879l2.615,3.394
	c-2.646,0.187-3.268-0.592-2.864-3.425L117.828,340.879z M119.291,312.861c0.064-0.598,0.603-1.03,1.201-0.966
	c0.057,0.007,0.114,0.018,0.169,0.032c0.903,0.187,1.059,0.778,0.591,2.708c-1.961-0.497-2.459-0.934-2.21-1.93L119.291,312.861z
	 M114.435,262.586h0.467c0.221,0.459,0.358,0.955,0.405,1.463c0,0.342-0.436,0.654-0.685,0.996c-0.28-0.374-0.778-0.747-0.809-1.121
	c0.014-0.52,0.141-1.029,0.374-1.494L114.435,262.586z M113.937,274.229c1.214,1.525,2.335,2.864,3.331,4.265
	c0.406,0.532,0.575,1.208,0.467,1.868c-0.218,0.436-1.089,0.716-1.681,0.809c-1.214,0.218-1.868-0.249-2.397-1.525
	c-0.96-1.736-0.948-3.847,0.031-5.572L113.937,274.229z M112.411,262.15h0.343l-0.592,1.121l-0.342-0.187
	C112.003,262.765,112.2,262.453,112.411,262.15z M112.878,293.281c0.204,0.322,0.341,0.682,0.405,1.059
	c0.716,2.365,0.778,2.396,3.113,1.867c-1.069,1.888-2.935,3.192-5.074,3.549c-1.611-2.765-1.94-6.094-0.903-9.121
	c0.934,0.841,1.712,1.65,2.397,2.646H112.878z M107.524,339.977c1.191,1.453,1.388,3.481,0.498,5.137
	c-1.837-1.868-0.748-3.331-0.561-5.137H107.524z M106.684,364.383v-3.767c0.612,1.164,0.588,2.561-0.062,3.704L106.684,364.383z
	 M106.933,324.287c-2.241-2.927-2.241-2.927-1.619-4.95c1.645,0.499,2.575,2.237,2.076,3.883c-0.11,0.363-0.286,0.704-0.52,1.005
	L106.933,324.287z M106.59,332.567c0.498,0.685,0.778,1.37,0,2.055s-1.276,0.312-1.93-0.374c-1.214-1.307-2.615-2.459-1.276-4.918
	c0.544,0.287,1.055,0.632,1.525,1.027c0.561,0.622,1.059,1.4,1.619,2.147L106.59,332.567z M106.59,367.216
	c0.405,0.342,0.872,0.528,1.027,0.871c0.277,1.124,0.774,2.183,1.463,3.113c0.436,0.498,0,1.806-0.187,3.113
	c-2.273-1.557-2.708-3.549-2.242-7.16L106.59,367.216z M108.396,329.859v-3.113c1.307,1.339,1.307,1.339,0.062,3.175
	L108.396,329.859z M109.205,314.512c-0.778,0.841-1.525,0.343-2.334-0.529l2.117-1.867c1.338,0.902,0.934,1.805,0.311,2.459
	L109.205,314.512z M110.232,347.79l2.678,1.214c0,0,0,0,0,0.188c-1.027,0.965-1.774,1.089-2.678,0.373
	c-0.902-0.716-0.778-0.996,0.062-1.712L110.232,347.79z M111.945,312.208c1.2-0.196,2.373,0.48,2.802,1.619
	c0.235,0.524,0.235,1.125,0,1.649c-0.272,0.518-0.912,0.717-1.429,0.445c-0.135-0.07-0.252-0.169-0.345-0.289
	c-0.311-0.28-0.965-0.188-1.619-0.28c-0.437-2.023-0.28-2.802,0.653-3.082L111.945,312.208z M112.505,352.335
	c1.821,2.274,1.821,5.509,0,7.783c-0.691-2.52-0.67-5.182,0.062-7.689L112.505,352.335z M114.436,321.766
	c0.653,1.618,2.085,2.708,0.84,4.296c-1.557-0.903-1.619-1.121-0.779-4.234L114.436,321.766z M106.622,277.187l3.331,6.226
	c-1.774,1.34-3.113,1.184-3.798-0.467c-0.872-1.854-0.67-4.035,0.529-5.696L106.622,277.187z M106.124,302.091
	c-0.369,1.204-1.553,1.967-2.802,1.806c-1.432,0-1.899-0.498-2.148-1.93c-0.186-2.344,0.024-4.701,0.623-6.974
	c0.645,2.836,2.183,5.39,4.389,7.284L106.124,302.091z M99.244,372.788c-0.949-2.511-1.259-5.217-0.903-7.876
	c1.339,1.369,2.21,2.21,2.21,3.735c0,0.653,0.623,1.339,0.996,1.992c0.374,0.654,0.498,1.868-0.342,2.46
	c-0.84,0.591-1.495,0.746-1.899-0.125L99.244,372.788z M100.987,382.625l-0.467,0.623h-0.155c0.096-0.237,0.21-0.467,0.342-0.686
	L100.987,382.625z M99.68,377.955h-1.619c-0.016-0.196-0.016-0.395,0-0.591h1.619V377.955z M101.89,345.767
	c-1.276-0.28-1.65-1.027-1.4-1.93c0-0.28,0.809-0.405,1.587-0.778c0,1.307-0.063,2.055-0.125,2.895L101.89,345.767z
	 M101.423,279.085c0.404,0.249,0.685,0.312,0.716,0.436c0.28,1.401,0.592,2.802,0.778,4.233c0.1,0.506-0.001,1.03-0.28,1.464
	c-0.28,0.217-0.965,0-1.463,0c-0.389-0.16-0.755-0.369-1.09-0.623c0.498-1.743,0.934-3.456,1.4-5.323L101.423,279.085z
	 M101.765,321.578c-1.059,0.592-1.619,1.557-2.553,0.872s-0.436-1.588,0.685-3.113L101.765,321.578z M98.341,305.733
	c2.21,1.525,1.806,4.078-0.934,5.665C97.241,309.462,97.562,307.515,98.341,305.733z M95.663,283.941l0.374,0.188
	c0,0.996,0.28,1.961,0.373,2.926c0.094,0.965-0.373,1.806-2.054,1.401L95.663,283.941z M92.831,286.682h0.436
	c0,0.436-0.249,0.84-0.405,1.245h-0.311L92.831,286.682z M92.146,299.383c0.547,2.709,1.469,5.328,2.74,7.782
	c-1.65,1.37-3.113,1.059-3.736-0.934c-0.433-2.392-0.083-4.858,0.996-7.036V299.383z M92.146,347.541l-0.529,0.249
	c0-0.374-0.218-0.747-0.342-1.12h0.404L92.146,347.541z M91.398,327.307c-0.187,0.653-0.311,1.151-0.529,2.055
	c-0.841-1.401-0.685-1.837,0.56-2.242L91.398,327.307z M88.628,339.759l1.619,2.179c0.404,0.529,0.436,0.529-0.374,2.023
	c-1.898-0.871-1.898-0.871-1.214-4.39L88.628,339.759z M88.255,367.153c3.113,1.276,3.829,4.016,1.4,6.226
	c-0.854-2.032-1.319-4.208-1.37-6.412L88.255,367.153z M94.48,390.064c-0.508,0.777-1.55,0.995-2.327,0.487
	c-0.104-0.068-0.201-0.148-0.288-0.237c-0.693-0.795-1.185-1.746-1.432-2.771c-0.28-0.871,0.249-1.588,1.276-2.147
	c0,0.653,0,1.151,0.218,1.712l1.245,0.467c1.339,0.343,1.868,1.37,1.401,2.211L94.48,390.064z M94.263,373.348
	c-1.961-2.086-1.588-4.389-1.37-7.253c1.152,1.463,0.529,3.486,2.553,3.486c0.841,1.525-0.031,2.429-1.089,3.58L94.263,373.348z
	 M94.667,328.084c-0.311-0.84-0.561-1.681-0.934-2.832l1.65-1.215l1.463,4.515c-0.935,0.343-1.682,0.467-2.086-0.654L94.667,328.084
	z M96.162,349.19c0-1.151,0-1.774,0.187-2.521c1.618,0.748,1.618,0.748-0.094,2.335L96.162,349.19z M97.376,390.189
	c0-1.37,0.218-2.179,1.525-2.584c0.929-0.441,1.805-0.984,2.615-1.618c0.436,1.183,0.872,2.272,1.276,3.361l-0.28,0.374
	c-1.712-1.276-3.237,0.062-5.043,0.28L97.376,390.189z M102.543,404.852c-0.218,0-0.498-0.218-0.84-0.404
	c0.218-0.249,0.342-0.529,0.467-0.529c0.267,0.037,0.521,0.133,0.747,0.28c-0.031,0.031-0.125,0.436-0.28,0.467L102.543,404.852z
	 M103.415,346.576c1.027,1.183,2.802,1.774,2.117,3.859c-2.148-0.653-2.771-1.712-2.023-4.046L103.415,346.576z M105.034,353.518
	c0.496,1.62,0.281,3.374-0.591,4.825c0.093-1.681-0.903-3.3,0.685-5.012L105.034,353.518z M105.407,402.922
	c-0.187-1.37,0.467-1.401,1.432-0.965L105.407,402.922z M107.058,390.47c-0.218-0.374-0.436-0.747-0.778-1.245l-1.961,1.432
	c-0.249-1.774,0-2.459,1.37-2.553c0.45-0.046,0.896,0.114,1.214,0.436c0.302,0.539,0.533,1.114,0.685,1.713L107.058,390.47z
	 M108.863,379.512c-0.654-0.561-1.774-1.059-0.467-2.086l3.829,2.46c-1.089,1.089-1.463,1.058-3.269-0.437L108.863,379.512z
	 M112.411,413.226l-0.404-0.436l0.249-0.249c0.187,0,0.312,0.249,0.467,0.343L112.411,413.226z M122.809,382.843L122.809,382.843
	L122.809,382.843c0.24,1.71-0.391,3.428-1.681,4.576c-1.432,1.245-1.214,2.896,0.405,5.043c-0.943,0.601-2.193,0.322-2.793-0.62
	c-0.014-0.021-0.026-0.043-0.039-0.064c-0.46-0.707-1.027-1.337-1.681-1.868c-0.616-0.432-1.374-0.61-2.117-0.498
	c-1.027,0.218-1.837,0.343-2.521-0.561c-0.753-0.901-0.753-2.212,0-3.112c0.46,0.352,0.976,0.626,1.525,0.809
	c0.467,0,0.934-0.404,1.557-0.685c0.747,1.09,1.432,2.086,2.116,3.113c2.13-0.544,3.658-2.412,3.767-4.607
	c-0.089-0.75-0.404-1.456-0.903-2.023c-0.498-0.685-1.307-1.121-1.806-1.806c-0.249-0.444-0.249-0.987,0-1.432
	c0.371-0.316,0.887-0.4,1.339-0.218c1.214,0.84,3.113,1.463,1.93,3.549l0.778,0.467l0,0l0.716-1.992
	c0.592,1.556,0.592,1.587-0.653,1.93H122.809z M121.563,365.939c1.308,1.494,2.459,2.739,3.518,4.016
	c0.436,0.561,0.218,1.338-0.498,2.802c-3.207-0.218-4.234-2.304-3.082-6.817H121.563z M129.44,425.087l-1.495-3.113
	c0.997,0.592,1.059,2.241,2.771,2.117L129.44,425.087z M128.817,390.127c-1.035-0.372-2.019-0.874-2.927-1.494
	c-0.788-0.385-1.115-1.335-0.73-2.123c0.015-0.029,0.03-0.059,0.046-0.087c0.405-0.81,2.117-1.774,2.739-1.433
	c1.085,0.646,2.125,1.363,3.113,2.148c0.28,0.187,0.343,0.654,0.436,0.81c0.027,1.255-0.968,2.294-2.223,2.32
	c-0.174,0.004-0.347-0.012-0.517-0.048L128.817,390.127z M131.152,381.068c-0.256-0.576-0.434-1.183-0.529-1.806
	c0.075-0.424,0.295-0.809,0.622-1.09c0,0,0.685,0,0.81,0.156c0.263,0.349,0.395,0.778,0.374,1.214
	c-0.219,0.529-0.686,0.902-1.339,1.619L131.152,381.068z M132.927,369.581c1.276,0,1.587,1.276,2.366,1.899
	c0.566,0.595,1.077,1.241,1.525,1.93c1.214,1.276,1.214,1.992-0.187,3.643c-3.735-3.02-3.767-2.272-3.767-7.378L132.927,369.581z
	 M134.888,345.798l1.65,0.436c-1.401,0.935-1.401,0.935-1.712-0.343L134.888,345.798z M137.036,348.164l0.405-0.312l0.342,0.404
	c0,0-0.249,0.218-0.311,0.218c-0.171-0.061-0.338-0.133-0.498-0.218L137.036,348.164z M138.032,395.108
	c-2.49-0.654-3.113-1.743-1.556-3.985c2.147,1.775,2.303,2.273,1.494,4.078L138.032,395.108z M134.452,332.691
	c0.685,2.023,3.673,1.059,4.234,3.331c-3.424,0.841-4.172,0.343-4.296-3.237L134.452,332.691z M139.868,398.065
	c0.016-0.27,0.016-0.54,0-0.81h0.312v0.81H139.868z M139.152,304.083c-0.187-0.934-0.342-1.681-0.529-2.553
	c0.835-0.02,1.668,0.106,2.459,0.374c0.498,0.249,0.716,1.027,1.059,1.587c-0.445,0.333-0.925,0.614-1.432,0.841
	c-0.538,0.067-1.083,0.058-1.619-0.031L139.152,304.083z M142.795,414.222c-0.182-0.062-0.351-0.157-0.498-0.28l0.311-0.279
	l0.467,0.342c0,0-0.28,0.467-0.343,0.437L142.795,414.222z M142.079,309.687c1.4,1.09,3.549,0.374,4.576,2.397
	c-1.214,1.992-1.37,2.054-3.487,1.245c-1.369-0.28-1.619-0.996-1.151-3.425L142.079,309.687z M144.756,317.251l3.486,2.646
	l-1.836,1.681c-3.238-1.494-3.642-2.553-1.712-4.109L144.756,317.251z M144.756,327.462c-0.934-1.37-0.312-2.335,1.899-2.771
	c0.187,0.965,0.374,1.774,0.529,2.584c2.117,1.369,2.117,1.369,1.494,3.112c-1.607-0.478-3.037-1.42-4.109-2.708L144.756,327.462z
	 M146.779,373.784c-0.218-1.993-1.308-3.768-0.436-6.227c0.935,1.397,1.797,2.842,2.584,4.327c0.373,1.463-0.312,2.055-2.273,2.117
	L146.779,373.784z M150.079,383.123c-0.84,0-1.245-0.529-0.996-1.339c0.561-1.837,1.681-2.21,3.86-1.214
	c-0.067,1.694-1.479,3.023-3.176,2.988L150.079,383.123z M153.192,367.558c-0.187,0.374-0.872,0.467-1.339,0.685
	c-1.743-0.311-3.113-0.902-3.3-2.802c0-0.84-0.623-1.618-0.778-2.428c-0.155-0.81,0-1.276,0.405-1.432c0.56-0.16,1.152-0.16,1.712,0
	c0.292,0.121,0.542,0.327,0.716,0.591c0.841,1.276,1.712,2.553,2.459,3.86c0.264,0.565,0.252,1.22-0.031,1.774L153.192,367.558z
	 M152.943,357.721c0,0,0.218-0.467,0.342-0.778l2.926,1.712c0.685,0.36,0.948,1.207,0.587,1.893c-0.018,0.034-0.037,0.067-0.058,0.1
	c-0.384,0.551-1.14,0.686-1.69,0.303c-0.118-0.082-0.22-0.185-0.302-0.303c-0.7-0.836-1.325-1.731-1.868-2.677L152.943,357.721z
	 M155.776,395.855c-0.706-0.918-0.706-2.195,0-3.113c0.81-0.872,1.837-0.156,2.926,0c-0.654,1.774-1.868,2.428-3.082,3.269
	L155.776,395.855z M160.601,388.727c-0.622-0.047-1.246-0.047-1.868,0c-1.712,0.311-2.553-0.623-3.113-2.117
	c1.147-1.507,2.753-2.6,4.576-3.113c0,0.623,0,1.09,0,1.743l1.837-0.653c0.282,0.545,0.531,1.106,0.747,1.682
	c0.457,0.981,0.032,2.148-0.95,2.605c-0.434,0.202-0.926,0.238-1.385,0.103L160.601,388.727z M162.812,379.823
	c0-0.218-0.436-0.467-0.405-0.561c0.28-0.685,0.623-1.339,0.934-1.992h0.622l0.965,1.837L162.812,379.823z M165.675,344.304
	c-0.311-0.903-0.467-1.774,0.218-2.366c0.57-0.344,1.254-0.444,1.898-0.28c1.056,0.275,2.095,0.607,3.113,0.996l4.047,7.503
	c-2.086,1.089-3.767,0-5.759-0.654c1.276-1.712-0.903-2.49-0.716-3.984c-1.028,0-2.397,0.685-2.958-0.965L165.675,344.304z
	 M172.244,355.572c-1.308,0.747-1.308,0.747-4.732-0.28c0.156-0.871,0.343-1.743,0.561-2.708c3.02-0.155,3.487,0.28,4.016,3.237
	L172.244,355.572z M166.485,396.789c0,0,0-0.218-0.187-0.343c-0.187-0.124,0.28,0,0.343,0c0.062,0,0,0.218,0.187,0.343
	c0.187,0.124-0.436,0.312-0.498,0.249L166.485,396.789z M169.972,373.41c-0.561,1.214-1.121,1.463-2.397,0.934
	s-1.37-0.996-0.747-2.179c0.623-1.184,1.214-1.962,2.117-3.362c0.529,2.055,1.618,3.238,0.871,4.856L169.972,373.41z
	 M170.376,366.997c0-1.245,0-1.245,1.027-2.366c0.156,1.868,0.156,1.868-1.183,2.615L170.376,366.997z M172.026,406.812
	c0.785,0.551,1.659,0.961,2.583,1.215c0.81,0,1.65-0.561,2.491-0.872c-2.989,2.615-4.639,2.46-5.23-0.093L172.026,406.812z
	 M176.26,410.175c1.774-1.027,2.677-0.778,3.798,1.276L176.26,410.175z M178.75,391.217v-0.561h3.113
	c-0.667,1.123-2.119,1.493-3.242,0.825c-0.009-0.005-0.018-0.011-0.026-0.016L178.75,391.217z M184.011,340.879
	c0,0-0.342,0-0.498-0.187l0.342-0.498l0.436,0.155C184.198,340.537,184.167,340.786,184.011,340.879z M185.879,401.271
	c-0.018-0.207-0.018-0.415,0-0.622l1.961,0.467C187.124,401.926,186.501,401.895,185.879,401.271z M188.089,335.556
	c-1.51,1.821-3.997,2.505-6.226,1.712c-0.709-0.439-1.272-1.078-1.619-1.836c-0.373-0.81,0.249-1.401,0.965-1.557
	c1.111-0.217,2.234-0.372,3.362-0.467c1.045,0.05,2.086,0.175,3.113,0.373C188.556,334.03,188.681,334.685,188.089,335.556
	L188.089,335.556z M193.039,408.463c-1.37,0.716-2.833,1.214-4.358,1.837c-0.479-0.815-0.205-1.864,0.61-2.343
	c0.103-0.061,0.211-0.11,0.323-0.147c1.744-0.935,3.58-1.65,5.666-2.584C195.06,406.588,194.236,407.777,193.039,408.463z
	 M192.043,378.951l8.498,1.276c-2.861,1.129-6.108,0.629-8.498-1.308V378.951z M197.988,272.081c1.37-0.404,1.806-0.28,3.487,1.214
	L197.988,272.081z M202.689,405.07c-0.374-0.529-0.716-0.841-0.778-1.215c-0.062-0.373,0.498-0.685,0.716-0.622
	c0.218,0.062,0.654,0.436,0.996,0.653L202.689,405.07z M204.868,388.415v-0.155h0.405v0.155H204.868z M205.833,365.846
	L205.833,365.846c-1.432,0.404-2.895,1.09-4.203-0.778C203.312,364.507,204.464,365.877,205.833,365.846L205.833,365.846
	l4.047,0.529c-0.965,1.339-2.023,1.183-4.078-0.529H205.833z M209.476,402.859c0.131-0.196,0.288-0.375,0.467-0.529
	c0,0,0.249,0,0.405,0c-0.015,0.135-0.015,0.271,0,0.405L209.476,402.859z M210.908,379.886c-0.623-0.28-0.934-0.778-0.498-1.806
	l2.522,0.965c-0.187,0.751-0.947,1.208-1.697,1.021c-0.149-0.037-0.291-0.098-0.42-0.181H210.908z M212.775,350.467h4.421
	c-0.996,2.771-1.837,2.803-4.514,0H212.775z M216.573,379.294L216.573,379.294l-0.342-0.249l0.311-0.218
	c0.012,0.158-0.009,0.317-0.062,0.467H216.573z M214.301,387.886c1.037,0.063,2.076,0.063,3.113,0c0.84,0,1.681-0.373,2.553-0.436
	c-2.335,2.116-3.487,2.335-5.759,0.436H214.301z M218.565,364.632c0,0,0.28,0,0.343,0c0.062,0,0,0.218,0.155,0.342
	c0.156,0.125-0.28,0-0.342,0c-0.112-0.09-0.198-0.208-0.249-0.342H218.565z M216.791,341.813c0.529-0.218,1.059-0.654,1.339-0.529
	c1.461,0.572,3.084,0.572,4.545,0c0,0,0.249,0.155,0.343,0.249c-2.023,2.708-3.829,2.802-6.319,0.28H216.791z M221.99,391.621
	l3.113,0.405c-1.65,1.494-2.334,1.4-3.207-0.28L221.99,391.621z M225.757,399.56l-0.405-0.56l2.428-1.682
	c-0.187,1.619-1.214,1.806-2.117,2.366L225.757,399.56z M226.659,365.814l-0.436-0.498c0.155-0.902,0.903-1.027,1.899-0.871
	L226.659,365.814z M224.2,356.787l5.417,0.685c-2.428,1.183-4.016,1.183-5.51-0.561L224.2,356.787z M226.162,317.905
	c0.167-0.755,0.916-1.231,1.671-1.063c0.123,0.027,0.241,0.07,0.352,0.129c2.058,0.697,4.209,1.075,6.381,1.121l0.654,0.187
	c-1.837,2.397-5.137,2.272-9.152-0.093L226.162,317.905z M234.566,341.751c-0.28,0.343-0.311,0.436-0.373,0.467
	c-0.747,0.187-1.557,0.498-2.023-0.436c-0.086-0.274-0.015-0.573,0.187-0.778c0.81-0.28,1.463,0.093,2.117,0.871L234.566,341.751z
	 M230.426,356.85c0.913-0.678,1.985-1.106,3.113-1.246l0,0l0,0l0,0l0,0c0.312-0.373,0.654-0.716,1.09-1.183
	c0.155,1.151-0.592,1.027-1.09,1.183l0,0l0,0c-0.809,1.09-1.494,2.055-3.206,1.37L230.426,356.85z M231.983,371.324l2.272,0.312
	c-0.996,1.059-1.743,0.81-2.366-0.187L231.983,371.324z M234.878,392.96l-0.498-0.436c0.208-0.175,0.438-0.321,0.685-0.436
	c0,0,0.249,0.28,0.374,0.436L234.878,392.96z M235.812,365.441l2.366-0.437c0,0.188,0,0.374,0,0.561l-2.304,0.685L235.812,365.441z
	 M236.497,394.175c2.107,1.847,4.768,2.942,7.565,3.112c-0.611,1.409-2.157,2.162-3.643,1.774c-3.082-0.653-3.984-1.774-4.016-4.763
	L236.497,394.175z M243.812,407.934c-0.666,0.008-1.313-0.212-1.837-0.622c-1.027-0.778-1.899-1.774-2.896-2.584
	c-0.498-0.436-1.059-0.778-0.623-1.494s1.059-0.436,1.619-0.187c0.892,0.246,1.72,0.682,2.429,1.276
	c0.907,1.151,2.412,1.652,3.829,1.276c-0.187,1.332-1.274,2.354-2.615,2.459L243.812,407.934z M243.532,388.695
	c-0.938,0.191-1.902-0.187-2.459-0.965c-0.81-1.027-1.65-2.023-2.615-3.113c0.854-0.375,1.853-0.147,2.459,0.561
	c1.41,1.968,3.999,2.692,6.226,1.743c-0.937,1.096-2.267,1.778-3.704,1.899L243.532,388.695z M244.995,366.002l0.249,0.56
	l-1.712,0.903l-0.312-0.686L244.995,366.002z M243.002,356.881c-0.342,0-0.809-0.437-1.183-0.686v-0.529l2.771-0.249l0.187,0.498
	c-0.572,0.444-1.2,0.811-1.868,1.09L243.002,356.881z M240.854,319.368h6.008c-2.738,2.21-4.762,2.179-6.101,0.124L240.854,319.368z
	 M247.952,378.952c-0.018-0.208-0.018-0.416,0-0.623l1.557-0.374c0.015,0.26,0.015,0.52,0,0.779L247.952,378.952z M250.723,386.236
	c0,0-0.249,0-0.373,0l0.249-0.436l0.342,0.249c0,0-0.217,0.311-0.311,0.311L250.723,386.236z M250.101,349.721v-0.343l0.872-0.404
	v0.56L250.101,349.721z M249.665,324.567c0-0.28,0-0.685,0.156-0.841c0.716-0.592,1.214-0.187,1.557,1.027L249.665,324.567z
	 M243.438,172.029c-1.027-0.529-2.148-0.903-3.331-1.401c0.903-2.335,1.743-4.234,4.514-4.888c-0.2,0.734-0.482,1.445-0.84,2.117
	c-1.027,1.463,0,2.771,0.903,3.643c0.306,0.247,0.654,0.436,1.027,0.56c3.292,1.091,6.87,0.936,10.055-0.436
	c1.276-0.561,2.18-2.179,3.113-3.456c0.529-0.747,0.218-1.587-0.561-2.241c-1.104-1.126-2.528-1.887-4.078-2.179
	c-0.539-0.072-1.058-0.252-1.525-0.529c1.677-0.509,3.489-0.307,5.012,0.56c1.214,0.529,2.304,1.308,3.487,1.93
	c0.678,0.248,1.026,0.999,0.778,1.677c-0.032,0.088-0.074,0.173-0.125,0.253c-0.705,1.772-2.049,3.216-3.767,4.047
	c-4.521,2.645-10.085,2.774-14.724,0.342L243.438,172.029z M262.864,355.697l-2.242-1.463c1.215-0.467,1.65,0.155,2.18,1.525
	L262.864,355.697z M258.475,360.959l-0.623-0.529c0,0,0.343-0.374,0.436-0.343s0.28,0.312,0.436,0.467L258.475,360.959z
	 M258.692,373.784l-1.806,0.902l-0.218-0.498l1.837-0.81L258.692,373.784z M252.964,373.037l-0.56-0.902l0.311-0.156l0.561,0.872
	L252.964,373.037z M257.011,384.991L257.011,384.991L257.011,384.991c-1.307-0.249-2.864-0.155-3.113-2.086
	c0.027-0.317,0.09-0.631,0.187-0.934l2.802,3.112l0,0l0,0l0,0l3.113-1.618c-0.402,1.279-1.765,1.991-3.044,1.589
	c-0.002,0-0.005-0.001-0.007-0.002L257.011,384.991z M260.124,366.002l2.646-0.28c-0.934,1.524-0.934,1.587-2.583,0.342
	L260.124,366.002z M263.237,348.102c-0.217-0.264-0.395-0.558-0.529-0.871c0,0,0.249-0.219,0.561-0.468
	c0.168,0.333,0.313,0.676,0.436,1.027c0,0-0.373,0.374-0.404,0.374L263.237,348.102z M263.735,142.299l-0.561-0.436
	c0.154-0.217,0.344-0.406,0.561-0.561c0,0,0.342,0.187,0.498,0.28L263.735,142.299z M265.292,370.982l3.86,0.685
	c-1.992,1.401-3.361,1.183-3.797-0.561L265.292,370.982z M267.564,365.441c1.4-0.717,2.241,0.467,3.767,0.622
	c-2.179,0.872-2.459,0.81-3.704-0.561L267.564,365.441z M271.082,344.833l1.619-0.685c-0.311,0.996-0.311,0.996-1.525,0.746
	L271.082,344.833z M272.514,368.149c-0.081-0.147-0.144-0.304-0.187-0.467c0,0,0.218,0,0.343-0.187c0.012,0.124,0.012,0.249,0,0.373
	L272.514,368.149z M271.362,146.377c-1.376-0.259-2.738-0.591-4.078-0.997v-0.498l2.023-0.342c0.436,0,1.059,0,1.276-0.342
	c0.841-1.121,1.837-0.872,3.113-0.529c0,0.716,0,1.65-0.405,2.055c-0.518,0.453-1.179,0.707-1.867,0.716L271.362,146.377z
	 M273.978,362.483c0,0-0.28-0.249-0.343-0.404c-0.062-0.155,0.156-0.312,0.249-0.312c0.228,0.07,0.446,0.164,0.654,0.28
	c-0.249,0.28-0.249,0.498-0.498,0.498L273.978,362.483z M275.253,352.086l-0.872-0.747l0.436-0.467l0.747,0.934L275.253,352.086z
	 M276.748,322.917l-0.467-1.276l0.498-0.155l0.28,1.339L276.748,322.917z M291.099,158.58l0.436,0.716l-0.218,0.187l-0.591-0.654
	L291.099,158.58z M288.889,218.662c0.252-0.397,0.451-0.827,0.591-1.276c0.218-0.467,0.436-0.498,0.934,0l0.373,0.405
	c0,0.436,0,0.84-0.249,1.09c-0.406,0.303-0.684,0.747-0.778,1.245h-0.996c-0.021-0.134-0.021-0.271,0-0.405
	c-0.095-0.343-0.025-0.711,0.188-0.997L288.889,218.662z M279.113,333.844c0-0.716,0-1.339-0.155-1.898l4.856-0.343
	c-0.965,1.898-2.708,1.898-4.638,2.304L279.113,333.844z M279.829,347.074c0,0-0.187-0.343,0-0.373
	c0.187-0.031,0.592-0.561,0.872-0.841l0.467,0.685L279.829,347.074z M281.946,338.514c0-0.81-0.312-1.37,0-1.682
	c0.498-0.81,1.121-0.436,2.023,0.218L281.946,338.514z M285.526,327.026c-0.28-1.65-0.28-1.65,1.214-1.494
	c0.001,0.84,0.001,1.587-1.151,1.556L285.526,327.026z M288.172,225.075c-0.28-0.342-0.654-0.249-0.997-0.218
	c-0.342,0.031-0.342,0.374-0.311,0.654c-0.772-0.116-1.478-0.502-1.992-1.089c-0.688-0.002-1.356-0.232-1.899-0.654
	c-0.561-0.28-0.405-1.027-0.903-1.37c0-0.343,0-0.716,0.218-1.027l0.902,0.872c0.48-0.088,0.974,0.05,1.339,0.374
	c0.232-0.36,0.232-0.823,0-1.183c0,0-0.218-0.187-0.28-0.311c-0.031-0.133-0.031-0.271,0-0.405l0,0h0.155
	c0.374,0.498,0.685,1.027,1.09,1.525c0.404,0.498,0.84,0.809,1.214,1.245c0.374,0.436,0,0.374,0,0.591h1.059l1.027-1.245
	c0.047-0.257,0.047-0.521,0-0.778c-0.187-0.28-0.498-0.498-0.187-0.903c0.311-0.405,0.498,0.374,0.747,0.592v1.121
	c0.187,0.374,0.436,0.623,0.404,0.84s-0.373,0.623-0.373,0.934c0,0.311,0.28,0.436,0.373,0.685c0.067,0.116,0.067,0.258,0,0.374
	c-0.187,0-0.529,0.156-0.56,0c-0.031-0.155-0.684-0.249-0.964-0.56L288.172,225.075z M288.919,320.77l-0.218-1.152h0.623
	c0,0.374,0,0.716,0.187,1.09L288.919,320.77z M289.511,308.317l2.459-0.437c-0.559,1.339-1.337,1.899-2.396,0.467L289.511,308.317z"
	/>
<path fill="#FFFFFF" d="M206.113,422.752c-0.109,0.104-0.235,0.188-0.373,0.249c0,0.529,0.187,1.027,0.28,1.463
	c0.637-0.211,1.324-0.211,1.961,0c0.22,0.09,0.465,0.09,0.685,0l0.374-0.653L206.113,422.752z"/>
<path fill="#FFFFFF" d="M202.005,140.743v-0.841l0.311-0.311c-0.635,0.191-1.234,0.485-1.774,0.872l0.716,0.56
	C201.479,140.867,201.735,140.771,202.005,140.743z"/>
<path fill="#FFFFFF" d="M197.117,145.101c0.214-0.37,0.577-0.631,0.996-0.716l0,0c0-0.218,0-0.467,0-0.716l-0.374-0.187l-1.37,1.619
	H197.117z"/>
<path fill="#FFFFFF" d="M133.145,242.975L133.145,242.975v-0.374c-0.81,0.872-1.152,1.246-1.121,1.65
	C132.499,243.927,132.885,243.488,133.145,242.975z"/>
<path fill="#FFFFFF" d="M180.493,194.442c-0.725,0.435-1.059,1.309-0.809,2.117c0.28-0.654,0.56-1.308,0.809-1.961V194.442z"/>
<path fill="#FFFFFF" d="M244.933,424.028c-0.414-0.008-0.819-0.114-1.183-0.312c0,0.374,0.218,0.716,0.28,1.059l3.954,1.463
	l-0.28-0.84c-0.489-0.221-0.94-0.515-1.339-0.872C245.955,424.208,245.452,424.033,244.933,424.028z"/>
<path fill="#FFFFFF" d="M294.212,221.339l0.529-0.561c0-0.404,0-0.809,0.28-1.183c0.294-0.339,0.294-0.844,0-1.183
	c-0.374,0-0.187,0.467-0.311,0.654c-0.125,0.187-0.312,0.311-0.467,0.467c-0.031,0.238-0.031,0.479,0,0.716
	C294.182,220.623,294.212,220.965,294.212,221.339z"/>
<path fill="#FFFFFF" d="M231.049,424.401c-0.436,0.218-0.84,0.778-1.619,1.837c0-0.653-0.156-1.151-0.218-1.649
	c-0.062-0.498,0-0.778,0-1.184c-0.373,0.437-0.716,0.872-1.089,1.276c-0.64,0.5-0.932,1.326-0.747,2.117
	c0.311,1.245,0,1.557-1.276,1.681l0,0c0.153,0.308,0.365,0.582,0.622,0.81c0.965-1.369,1.868-1.618,3.269-0.498
	c0.94,0.549,2.058,0.705,3.113,0.436c1.105-0.412,2.152-0.967,3.113-1.649c-0.396-0.604-0.759-1.227-1.09-1.868
	c-0.088-0.133-0.151-0.28-0.187-0.436c-0.862,0.936-2.32,0.994-3.255,0.132C231.389,425.132,231.17,424.786,231.049,424.401z"/>
<path fill="#FFFFFF" d="M14.32,404.198c-0.291,0.19-0.562,0.41-0.809,0.653C13.818,404.686,14.092,404.464,14.32,404.198z"/>
<path fill="#FFFFFF" d="M207.577,138.314c1.369-0.716,3.113-0.903,3.922-2.459c0,0,0.405,0,0.623,0l0,0
	c0.568-0.623,1.218-1.167,1.93-1.619c-0.506-0.448-1.268-0.448-1.774,0c-1.525,0.903-3.113,1.899-4.514,2.833
	c-0.872,0.56-1.681,1.183-2.553,1.712C206.029,139,206.903,138.828,207.577,138.314z"/>
<path fill="#FFFFFF" d="M202.036,423.53c-0.024-0.773,0.584-1.42,1.357-1.443c0.13-0.004,0.26,0.011,0.386,0.042
	c0.212,0.072,0.412,0.178,0.591,0.312c0.436,0.28,0.872,0.685,1.37,0.561v-0.405h0.467l0,0c0.685-0.747,1.681-1.307,1.339-2.583
	c-0.209-0.548-0.325-1.127-0.343-1.713v-0.498c-1.37,0-1.027-1.681-1.712-1.867h-0.436c-1.011,0.609-1.988,1.274-2.926,1.992
	c0.561,0.187,1.027,0.436,1.059,1.12c0.071,0.834-0.309,1.641-0.996,2.117c-1.024,0.533-2.274,0.358-3.113-0.436l-0.591,0.592
	c-0.529,0.528-1.121,0.996-1.806,1.587c0.25-1.432,0.934-2.802,0.529-3.735c-0.19-0.441-0.254-0.926-0.187-1.401
	c-0.754-0.237-1.576-0.099-2.21,0.374c-0.218,0.187-0.561,0.498-0.716,0.436c-1.619-0.685-3.549-0.467-5.012-1.649
	c-0.84,0-1.307,0.934-2.179,0.902c-0.716,1.464-0.778,1.557-1.992,0.872h-0.218l-0.935,0.529c0.015-0.26,0.015-0.52,0-0.778
	c-0.561-0.026-1.093,0.246-1.4,0.716c-1.059,1.339-2.18,0.716-3.362,0.312c-1.028-0.303-1.642-1.354-1.401-2.397
	c0.087-0.666-0.044-1.344-0.374-1.93c-0.934-0.312-1.899-0.592-2.802-0.934l-0.872-0.374c-0.039,0.363-0.262,0.682-0.591,0.841
	c-1.089,0.561-1.121,1.338-0.747,2.396c0.243,0.713,0.075,1.502-0.436,2.055c-0.591,0.654-1.059,1.401-1.649,2.055
	c-0.592,0.654-0.343,0.374-0.467,0.561c0.965-0.218,1.961-0.498,3.113-0.654c2.397,1.619,5.323,0.903,8.063,1.525
	c0,0.405,0,0.841,0,1.401c0.591,0.249,1.183,0.436,1.743,0.716c1.229,0.455,2.391,1.073,3.456,1.837
	c1.012,0.981,2.558,1.16,3.767,0.436c1.964-1.321,4.446-1.612,6.662-0.778c0.854,0.437,1.887,0.313,2.615-0.311
	c0.916-0.743,2.144-0.977,3.269-0.623c1.363,0.35,2.746,0.62,4.141,0.81c0-0.529-0.218-1.059-0.312-1.619
	c-0.478,0.145-0.938,0.343-1.37,0.592c-1.033,0.426-2.216-0.066-2.642-1.1C202.104,423.841,202.061,423.688,202.036,423.53z"/>
<path fill="#FFFFFF" d="M279.363,143.855c0.374,0.81,1.774,0.81,2.49,1.619c0.716,0.81,1.432,1.868,2.117,2.802
	c0.685,0.934,1.525,1.993,2.334,2.958c-0.863-1.832-1.906-3.573-3.113-5.199l1.743-1.152c-0.312-1.027-0.623-2.023-0.903-3.113
	l-4.203,0.997c-0.187-0.841-0.311-1.401-0.467-2.242c-0.788,0.117-1.567,0.283-2.335,0.498l0,0l0.529,0.374
	C278.364,142.044,278.987,142.892,279.363,143.855z"/>
<polygon fill="#FFFFFF" points="200.635,413.506 200.666,413.506 200.635,413.506 "/>
<path fill="#FFFFFF" d="M252.653,413.413L252.653,413.413c1.271-0.289,2.589,0.245,3.3,1.338c0.219,0.443,0.406,0.901,0.561,1.37
	c0.79,0.112,1.545,0.399,2.21,0.841c0.684,0.575,1.683,0.575,2.366,0l2.21-1.557c-1.432-0.374-2.833,0.498-3.767-0.935
	c1.027-0.404,2.335-0.404,2.428-1.867c0-0.686-0.187-1.215-1.214-1.184l-0.591,1.525c-1.09-0.279-0.81-0.965-0.747-1.618
	c-0.634,0.068-1.274-0.017-1.868-0.249C255.825,411.659,254.184,412.443,252.653,413.413z"/>
<path fill="#FFFFFF" d="M252.653,398.844l-0.872-1.059c0,0.778-0.405,1.401-0.467,1.961c0.323-0.131,0.619-0.32,0.872-0.56
	C252.187,399.187,252.498,399.124,252.653,398.844z"/>
<path fill="#FFFFFF" d="M16.53,404.541c-1.058,0.429-2.189,0.651-3.331,0.653c-0.291,0.344-0.542,0.72-0.747,1.12
	c1.497-0.114,2.962-0.494,4.327-1.12c-0.016-0.124-0.016-0.249,0-0.374L16.53,404.541z"/>
<path fill="#FFFFFF" d="M153.814,427.142c0.135,0.347,0.302,0.68,0.498,0.996c0.414,0.045,0.832,0.045,1.246,0l0,0
	C155.402,426.768,154.904,426.55,153.814,427.142z"/>
<path fill="#FFFFFF" d="M301.715,183.609c0.021-0.169-0.084-0.329-0.249-0.374c0.015,0.104,0.015,0.208,0,0.312L301.715,183.609z"/>
<path fill="#FFFFFF" d="M255.611,391.279L255.611,391.279c1.152,0.373,3.113-1.121,3.518-2.366
	c-0.643,0.295-1.324,0.494-2.024,0.592C256.717,390.181,256.211,390.782,255.611,391.279z"/>
<path fill="#FFFFFF" d="M5.23,424.931c-0.528,0.38-0.955,0.882-1.246,1.464c1.792,0.119,3.564-0.424,4.981-1.525
	C7.721,424.78,6.471,424.801,5.23,424.931z"/>
<path fill="#FFFFFF" d="M18.647,412.043c0,0,0-0.187,0-0.249s-0.965-0.28-1.214,0c-1.058,0.747-2.023,1.588-3.113,2.429l0.25,0.404
	l2.147-0.872C17.225,413.048,17.884,412.463,18.647,412.043z"/>
<path fill="#FFFFFF" d="M208.915,424.246h-0.342c-0.561,1.121-1.09,2.086-1.588,3.113c1.743,1.214,2.521,0.498,2.802-2.615
	c0.405,0,0.81-0.342,1.245-0.467C210.69,423.562,210.348,423.686,208.915,424.246z"/>
<path fill="#FFFFFF" d="M126.638,425.958c0,0.156,0.218,0.312,0.343,0.467c0.125,0.156,0.28-0.311,0.312-0.498
	c0.017-0.082,0.017-0.167,0-0.249c-0.17,0.081-0.347,0.144-0.529,0.188L126.638,425.958z"/>
<path fill="#FFFFFF" d="M302.12,183.858c0,0,0-0.187-0.218-0.249h-0.187c-0.033,0.058-0.033,0.129,0,0.187
	c0.061,0.087,0.148,0.152,0.249,0.187C301.964,183.982,302.057,183.92,302.12,183.858z"/>
<path fill="#FFFFFF" d="M301.466,179.282c0,0-0.187,0.218-0.187,0.342c0,0.125,0,0.529,0.436,0.498c0.031-0.196,0.031-0.396,0-0.591
	C301.715,179.531,301.528,179.375,301.466,179.282z"/>
<path fill="#FFFFFF" d="M302.12,180.372c0,0,0-0.187-0.218-0.249h-0.187c-0.033,0.058-0.033,0.129,0,0.187
	c0.068,0.088,0.152,0.163,0.249,0.218L302.12,180.372z"/>
<path fill="#FFFFFF" d="M13.292,431.25c1.557,0.623,2.491,0,3.518-2.179C14.444,428.947,14.04,429.195,13.292,431.25z"/>
<path fill="#FFFFFF" d="M302.307,186.13c0.197-0.166,0.224-0.46,0.058-0.658c-0.018-0.021-0.037-0.041-0.058-0.058l0,0
	c-0.198,0.166-0.224,0.46-0.059,0.658C302.266,186.093,302.285,186.113,302.307,186.13z"/>
<path fill="#FFFFFF" d="M195.094,144.976c0-0.249,0-0.529,0-1.058l-2.148,1.214C194.035,145.723,194.72,146.128,195.094,144.976z"/>
<path fill="#FFFFFF" d="M4.514,419.764c0.912-0.112,1.78-0.455,2.521-0.996c0.437-0.312,0.498-1.121,0.81-1.993
	c-1.347-0.43-2.814-0.248-4.016,0.498c-0.401,0.337-0.611,0.849-0.561,1.37C3.455,419.109,4.14,419.825,4.514,419.764z"/>
<path fill="#FFFFFF" d="M3.145,403.98l-3.113,3.113l0.498,0.467c1.619-0.529,2.21-1.962,3.113-3.113L3.145,403.98z"/>
<path fill="#FFFFFF" d="M179.56,199.579h-0.405c-0.156,1.339-0.342,2.677-0.56,3.985h0.342
	C179.155,202.256,179.373,200.917,179.56,199.579z"/>
<path fill="#FFFFFF" d="M182.61,177.414h-0.312c-0.155,0.965-0.311,1.899-0.498,2.864h0.312
	C182.299,179.282,182.455,178.348,182.61,177.414z"/>
<path fill="#FFFFFF" d="M181.396,184.698L181.396,184.698c0,0.467,0,0.903,0,1.339l0,0V184.698z"/>
<path fill="#FFFFFF" d="M302.307,202.38c-0.218,0.156-0.218,0.623,0,0.685c0.218,0.062,0.218-0.187,0.311-0.28
	c0.094-0.093,0-0.312-0.187-0.405H302.307z"/>
<path fill="#FFFFFF" d="M261.837,390.937l0.467,0.218l0.654-1.151l-0.529-0.218C262.207,390.155,262.009,390.54,261.837,390.937z"/>
<path fill="#FFFFFF" d="M262.958,384.119c0,0,0,0.561,0,0.592c0.321,0.119,0.675,0.119,0.997,0c0.508-0.307,0.979-0.672,1.4-1.09
	c-0.543-0.106-1.096-0.158-1.65-0.155C263.394,383.6,263.132,383.828,262.958,384.119z"/>
<path fill="#FFFFFF" d="M302.867,187.438l0.156-0.156h-0.312l0,0L302.867,187.438z"/>
<path fill="#FFFFFF" d="M299.972,213.463c0,0.187,0,0.498,0.623,0.591c0.374-0.436,0.872-0.716,1.121-1.183v-1.151
	c0,0,0,0-0.218-0.312c-0.312,0.374-0.623,0.591-0.716,1.09C300.688,212.996,300.252,213.121,299.972,213.463z"/>
<path fill="#FFFFFF" d="M300.532,178.317c0.112-0.033,0.218-0.085,0.311-0.156l0,0h-0.28
	C300.562,178.161,300.501,178.317,300.532,178.317z"/>
<path fill="#FFFFFF" d="M40.345,367.558L40.345,367.558l-0.374,0.343c0,0,0,0,0,0.155C40.085,367.882,40.21,367.716,40.345,367.558z
	"/>
<path fill="#FFFFFF" d="M303.458,197.306c-0.016,0.135-0.016,0.271,0,0.405c-0.016,0.145-0.016,0.291,0,0.436
	c0,0,0.187,0,0.28,0.156c0.094,0.155,0,0,0,0c0.031-0.279,0.031-0.562,0-0.841c0,0,0-0.155-0.28-0.187
	C303.457,197.286,303.457,197.296,303.458,197.306z"/>
<path fill="#FFFFFF" d="M303.738,193.104l0.187-0.436c0,0-0.249-0.312-0.311-0.28c-0.062,0.031-0.25,0.529,0,0.685L303.738,193.104z
	"/>
<path fill="#FFFFFF" d="M303.24,196.777c0.241-0.166,0.301-0.495,0.136-0.736c-0.037-0.053-0.083-0.099-0.136-0.136
	c-0.241,0.166-0.302,0.496-0.136,0.736C303.141,196.694,303.188,196.74,303.24,196.777z"/>
<path fill="#FFFFFF" d="M29.574,379.107c0.84-0.934,1.65-1.774,2.397-2.678c0.747-0.902,1.245-1.743,0-2.832
	c-0.472-0.509-0.738-1.175-0.747-1.868c-0.258-1.677-1.03-3.232-2.21-4.452c-0.229-0.48-0.805-0.686-1.286-0.457
	c-0.2,0.096-0.362,0.257-0.457,0.457c-0.508,0.782-1.233,1.398-2.086,1.774c-0.81,0.437-1.432,1.245-2.241,1.682
	c-0.776,0.385-1.59,0.687-2.429,0.902v0.529l3.113,1.245c0,2.148-2.553,1.744-3.113,3.425c2.086,1.308,4.296,0.591,6.227,1.027
	c0,0.622-0.28,1.059-0.405,1.463l2.272,0.653c0,0.343,0,0.654,0,0.966l1.556-1.276L29.574,379.107z"/>
<path fill="#FFFFFF" d="M270.211,378.858l-1.059,0.81l0.561,0.591c0.28-0.373,0.561-0.716,0.81-1.089L270.211,378.858z"/>
<path fill="#FFFFFF" d="M250.288,430.971c0-1.308,0-2.242,0.156-3.27C248.7,428.355,248.7,428.355,250.288,430.971z"/>
<path fill="#FFFFFF" d="M267.16,377.021c0,0,0,0.249,0,0.218c0.141-0.041,0.269-0.116,0.374-0.218l-0.218-0.28L267.16,377.021z"/>
<path fill="#FFFFFF" d="M210.97,426.021c0,0.187,0.28,0.374,0.467,0.592l0.716-0.685c-0.311-0.25-0.591-0.561-0.716-0.499
	C211.193,425.537,211.019,425.759,210.97,426.021z"/>
<path fill="#FFFFFF" d="M301.061,210.132h-0.156c0.033,0.112,0.085,0.218,0.156,0.312v-0.156V210.132z"/>
<path fill="#FFFFFF" d="M153.628,428.013c-0.226,0.142-0.426,0.32-0.592,0.529c0,0,0.187,0.312,0.25,0.312
	c0.215-0.031,0.418-0.117,0.591-0.249c0.143-0.163,0.268-0.341,0.374-0.529C154.05,428.01,153.838,427.988,153.628,428.013z"/>
<path fill="#FFFFFF" d="M154.25,428.075L154.25,428.075z"/>
<path fill="#FFFFFF" d="M215.142,427.483l0.623,0.405c0,0,0,0,0-0.156c0.015-0.29,0.015-0.581,0-0.871L215.142,427.483z"/>
<path fill="#FFFFFF" d="M45.419,426.425l0.249,0.249l0.934-0.685l-0.374-0.404L45.419,426.425z"/>
</svg>
