<svg xmlns="http://www.w3.org/2000/svg" viewBox="0 0 328.94 98.39"><defs><style>.a{fill:#fff;}</style></defs><title>logo</title><path class="a" d="M823,270h16.61v1.21h-.9a8.63,8.63,0,0,0-3.45.44,2.23,2.23,0,0,0-1.08,1.62,34.37,34.37,0,0,0-.27,5.64v45.35a51.54,51.54,0,0,1-.35,6.91,10.87,10.87,0,0,1-6.36,8.09,15.41,15.41,0,0,1-6.33,1.21,11,11,0,0,1-6.25-1.49,4.25,4.25,0,0,1-2.19-3.54,2.94,2.94,0,0,1,.78-2.08,2.47,2.47,0,0,1,1.91-.85,2.67,2.67,0,0,1,1.94.77,2.54,2.54,0,0,1,.77,1.87,3.39,3.39,0,0,1-.31,1.37,2.46,2.46,0,0,0-.29.95,1.46,1.46,0,0,0,1,1.32,5.87,5.87,0,0,0,2.48.47,7.17,7.17,0,0,0,5.06-1.91,7.81,7.81,0,0,0,2.48-4.51,60.7,60.7,0,0,0,.42-8.58V278.87a37.38,37.38,0,0,0-.25-5.51,2.41,2.41,0,0,0-1.06-1.71,8.12,8.12,0,0,0-3.52-.48H823Z" transform="translate(-709.89 -268.86)"/><path class="a" d="M844,295q0,5.75,1.87,8.06a7.18,7.18,0,0,0,10.53,0q1.83-2.31,1.83-8.06t-1.82-8.12a7,7,0,0,0-10.58,0Q844,289.29,844,295m-4.38-.13a11.29,11.29,0,0,1,3.32-8.29,11.71,11.71,0,0,1,16.37,0,11.32,11.32,0,0,1,3.32,8.28,11.1,11.1,0,0,1-3.37,8.58,11.58,11.58,0,0,1-8.15,3.12A11.39,11.39,0,0,1,843,303.4a11.18,11.18,0,0,1-3.36-8.53" transform="translate(-709.89 -268.86)"/><path class="a" d="M873.43,287.67a11.29,11.29,0,0,1,3.55-3.32,8.69,8.69,0,0,1,4.31-1.1,8.19,8.19,0,0,1,4.41,1.1,5.12,5.12,0,0,1,2.28,2.73,18.75,18.75,0,0,1,.53,5.26v6a38.62,38.62,0,0,0,.15,4.61,1.6,1.6,0,0,0,.85,1.2,6.31,6.31,0,0,0,2.64.38v1.21H881v-1.21h.5a3.8,3.8,0,0,0,2.49-.55,2.15,2.15,0,0,0,.66-1.31c.06-.5.09-1.94.09-4.33v-6.49a17.62,17.62,0,0,0-.32-4,3.63,3.63,0,0,0-1.48-2.13,5,5,0,0,0-2.94-.85,6.08,6.08,0,0,0-3.69,1.2,10.16,10.16,0,0,0-2.88,3.6v8.65c0,2.42,0,3.92.12,4.48a1.73,1.73,0,0,0,.81,1.28,5,5,0,0,0,2.5.43v1.21h-11v-1.21h.56a3.81,3.81,0,0,0,2.46-.54,2.07,2.07,0,0,0,.66-1.29c.06-.5.09-2,.09-4.36V276.79c0-2.18-.2-3.56-.62-4.14s-1.4-.87-3-.87v-1.21a18.08,18.08,0,0,0,6.8-1.11h.55Z" transform="translate(-709.89 -268.86)"/><path class="a" d="M900.74,283.25h.71a14.35,14.35,0,0,1,.69,4.45,13.8,13.8,0,0,1,4-3.35,9.12,9.12,0,0,1,4.35-1.1,7.59,7.59,0,0,1,4.23,1.08,4.85,4.85,0,0,1,2.12,2.65,16.59,16.59,0,0,1,.47,4.57v6.75a41.74,41.74,0,0,0,.14,4.56,1.62,1.62,0,0,0,.83,1.22,5.46,5.46,0,0,0,2.57.41v1.21H909.78v-1.21h.5a3.81,3.81,0,0,0,2.48-.55,2,2,0,0,0,.66-1.29c.05-.5.08-1.95.08-4.35v-7a18.17,18.17,0,0,0-.25-3.65,3.44,3.44,0,0,0-1.35-1.94,4.42,4.42,0,0,0-2.78-.84,6.61,6.61,0,0,0-3.67,1.14,12.16,12.16,0,0,0-3.31,3.44v8.81a41.74,41.74,0,0,0,.14,4.56,1.7,1.7,0,0,0,.85,1.22,5.53,5.53,0,0,0,2.59.41v1.21H894.81v-1.21a6,6,0,0,0,2.53-.37,1.61,1.61,0,0,0,.88-1.12,33.19,33.19,0,0,0,.17-4.7v-6.43a39.09,39.09,0,0,0-.14-4.58,1.71,1.71,0,0,0-.84-1.21,5.74,5.74,0,0,0-2.6-.41v-1.21a34.51,34.51,0,0,0,5.93-1.21" transform="translate(-709.89 -268.86)"/><path class="a" d="M938.59,305.34v-11.5h1.32q2.24,11.24,10.62,11.23a7.69,7.69,0,0,0,5.84-2.15,6.76,6.76,0,0,0,2.07-4.81,6.12,6.12,0,0,0-1.82-4.5,22.25,22.25,0,0,0-6.64-3.85,48.73,48.73,0,0,1-6.48-3.23,9.83,9.83,0,0,1-3.42-3.6,9.68,9.68,0,0,1-1.22-4.72,8.42,8.42,0,0,1,2.65-6.36,9.26,9.26,0,0,1,6.7-2.55,12.24,12.24,0,0,1,4.27.74,10.89,10.89,0,0,1,4.12,3.06A5.74,5.74,0,0,0,958,270h1.16v9.36H958a12.5,12.5,0,0,0-3.55-6.43,8.39,8.39,0,0,0-5.89-2.35,5.85,5.85,0,0,0-4.68,1.73,5.68,5.68,0,0,0-1.49,3.78,5.49,5.49,0,0,0,1.87,4.19,25.57,25.57,0,0,0,6.67,3.9,69.91,69.91,0,0,1,6.71,3.31,9.33,9.33,0,0,1,3.36,3.47,10,10,0,0,1,1.27,5.11,9.77,9.77,0,0,1-3.06,7.46,11.42,11.42,0,0,1-8.17,2.87,12.49,12.49,0,0,1-9.81-4.5,8.87,8.87,0,0,0-1.29,3.48Z" transform="translate(-709.89 -268.86)"/><path class="a" d="M979.53,285.33H973v13.05a20.34,20.34,0,0,0,.26,4,3,3,0,0,0,1.12,1.68,3,3,0,0,0,1.83.63,4,4,0,0,0,3.3-2.16l.84.5a5.64,5.64,0,0,1-2.41,2.62,6.58,6.58,0,0,1-3.23.88,5.25,5.25,0,0,1-3.33-1.12,4.61,4.61,0,0,1-1.79-2.62,26,26,0,0,1-.36-5.27V285.33h-3.14v-1.21A5.53,5.53,0,0,0,970,282.3a8.81,8.81,0,0,0,2.19-5H973v6.78h6.51Z" transform="translate(-709.89 -268.86)"/><path class="a" d="M986.83,295c0,3.83.63,6.52,1.87,8.06a7.18,7.18,0,0,0,10.53,0c1.22-1.54,1.84-4.23,1.84-8.06s-.61-6.5-1.82-8.12a7,7,0,0,0-10.59,0q-1.83,2.42-1.83,8.13m-4.37-.13a11.25,11.25,0,0,1,3.32-8.29,11.71,11.71,0,0,1,16.37,0,11.32,11.32,0,0,1,3.32,8.28,11.11,11.11,0,0,1-3.38,8.58,11.56,11.56,0,0,1-8.14,3.12,11.39,11.39,0,0,1-8.13-3.17,11.18,11.18,0,0,1-3.36-8.53" transform="translate(-709.89 -268.86)"/><path class="a" d="M1022.26,285.33h-6.51v13.05a20.34,20.34,0,0,0,.26,4,3,3,0,0,0,1.12,1.68,3,3,0,0,0,1.83.63,4,4,0,0,0,3.3-2.16l.84.5a5.64,5.64,0,0,1-2.41,2.62,6.58,6.58,0,0,1-3.23.88,5.23,5.23,0,0,1-3.33-1.12,4.68,4.68,0,0,1-1.8-2.62,27,27,0,0,1-.35-5.27V285.33h-3.14v-1.21a5.55,5.55,0,0,0,3.88-1.82,8.74,8.74,0,0,0,2.18-5h.85v6.78h6.51Z" transform="translate(-709.89 -268.86)"/><path class="a" d="M1038,285.33h-6.51v13.05a19.35,19.35,0,0,0,.27,4,2.91,2.91,0,0,0,1.12,1.68,3,3,0,0,0,1.83.63,4,4,0,0,0,3.29-2.16l.85.5a5.69,5.69,0,0,1-2.41,2.62,6.6,6.6,0,0,1-3.23.88,5.26,5.26,0,0,1-3.34-1.12,4.66,4.66,0,0,1-1.79-2.62,26,26,0,0,1-.36-5.27V285.33h-3.13v-1.21a5.51,5.51,0,0,0,3.87-1.82,8.81,8.81,0,0,0,2.19-5h.84v6.78H1038Z" transform="translate(-709.89 -268.86)"/><rect class="a" x="130.97" y="43.15" width="195.84" height="0.71"/><rect class="a" x="130.97" y="70.96" width="195.84" height="0.71"/><polygon class="a" points="132.39 49.69 133.75 49.69 139.78 64.07 139.83 64.07 145.79 49.69 147.16 49.69 147.16 65.13 146.21 65.13 146.21 50.86 146.16 50.86 140.28 65.13 139.33 65.13 133.38 50.86 133.34 50.86 133.34 65.13 132.39 65.13 132.39 49.69"/><polygon class="a" points="162.85 49.69 173.23 49.69 173.23 50.51 163.8 50.51 163.8 56.7 172.66 56.7 172.66 57.52 163.8 57.52 163.8 64.31 173.33 64.31 173.33 65.13 162.85 65.13 162.85 49.69"/><polygon class="a" points="187.93 49.69 189.29 49.69 195.32 64.07 195.36 64.07 201.33 49.69 202.69 49.69 202.69 65.13 201.74 65.13 201.74 50.86 201.7 50.86 195.82 65.13 194.87 65.13 188.92 50.86 188.88 50.86 188.88 65.13 187.93 65.13 187.93 49.69"/><path class="a" d="M928.54,326.27a8.94,8.94,0,0,0,.43,2.81,7.09,7.09,0,0,0,1.25,2.3,6.34,6.34,0,0,0,7.41,1.57,6.28,6.28,0,0,0,2-1.57,6.91,6.91,0,0,0,1.25-2.3,8.94,8.94,0,0,0,.44-2.81,8.85,8.85,0,0,0-.44-2.81,7,7,0,0,0-1.25-2.31,6.25,6.25,0,0,0-2-1.56,6.45,6.45,0,0,0-5.39,0,6.12,6.12,0,0,0-2,1.56,7.14,7.14,0,0,0-1.25,2.31,8.85,8.85,0,0,0-.43,2.81m13.73,0a9.87,9.87,0,0,1-.5,3.16,7.56,7.56,0,0,1-1.44,2.58,6.66,6.66,0,0,1-2.3,1.71,7.92,7.92,0,0,1-6.19,0,6.65,6.65,0,0,1-2.32-1.71,7.71,7.71,0,0,1-1.43-2.58,10.27,10.27,0,0,1,0-6.33,7.56,7.56,0,0,1,1.43-2.57,6.67,6.67,0,0,1,2.32-1.72,7.92,7.92,0,0,1,6.19,0,6.69,6.69,0,0,1,2.3,1.72,7.42,7.42,0,0,1,1.44,2.57,9.93,9.93,0,0,1,.5,3.17" transform="translate(-709.89 -268.86)"/><path class="a" d="M963.71,326.14a5.62,5.62,0,0,0,1.57-.21,3.32,3.32,0,0,0,1.24-.64,3,3,0,0,0,.82-1.1,3.9,3.9,0,0,0,.31-1.6,3.08,3.08,0,0,0-.33-1.48,2.81,2.81,0,0,0-.86-1,3.62,3.62,0,0,0-1.26-.56,6.54,6.54,0,0,0-1.49-.17h-5.49v6.77Zm-6.44-7.59h6.44a8.79,8.79,0,0,1,1.9.2,4.58,4.58,0,0,1,1.56.67,3.19,3.19,0,0,1,1.05,1.22,4.27,4.27,0,0,1,.38,1.89,4,4,0,0,1-.88,2.62,3.76,3.76,0,0,1-2.43,1.33v0a3.65,3.65,0,0,1,1.67.57,2.66,2.66,0,0,1,.92,1.06,4,4,0,0,1,.39,1.38,12.75,12.75,0,0,1,.09,1.51v.89a6.86,6.86,0,0,0,0,.81,4.56,4.56,0,0,0,.14.7,1.7,1.7,0,0,0,.27.54h-1.06a2.8,2.8,0,0,1-.33-1.26c0-.48,0-1,0-1.5s0-1-.07-1.55a3.23,3.23,0,0,0-.41-1.37,2.44,2.44,0,0,0-1.09-1,5,5,0,0,0-2.11-.36h-5.49v7h-1Z" transform="translate(-709.89 -268.86)"/><rect class="a" x="273.96" y="49.69" width="0.95" height="15.43"/><path class="a" d="M1009,328.21l-3.31-8.73h0l-3.44,8.73Zm-3.87-9.66h1l6.09,15.43h-1l-1.94-5h-7.39l-2,5h-1Z" transform="translate(-709.89 -268.86)"/><polygon class="a" points="316.4 49.69 317.35 49.69 317.35 64.31 326.11 64.31 326.11 65.13 316.4 65.13 316.4 49.69"/><path class="a" d="M816.51,364.46h5.17a3,3,0,0,0,2.08-.69,2.56,2.56,0,0,0,.73-2,2.45,2.45,0,0,0-.73-1.91,3,3,0,0,0-2.08-.66h-5.17Zm0-7.33h4.78a2.6,2.6,0,0,0,1.75-.6,2.13,2.13,0,0,0,.7-1.72,2.18,2.18,0,0,0-.63-1.78,2.84,2.84,0,0,0-1.82-.51h-4.78Zm-2.93-7h8.13a5.76,5.76,0,0,1,3.6,1,3.63,3.63,0,0,1,1.36,3.11,3.77,3.77,0,0,1-.62,2.17,4,4,0,0,1-1.77,1.39v.05a3.64,3.64,0,0,1,2.34,1.46,4.87,4.87,0,0,1,.8,2.85,4.81,4.81,0,0,1-.35,1.83,3.69,3.69,0,0,1-1.1,1.48,5.59,5.59,0,0,1-1.92,1,9.2,9.2,0,0,1-2.79.37h-7.68Z" transform="translate(-709.89 -268.86)"/><rect class="a" x="127.76" y="81.27" width="2.93" height="16.72"/><path class="a" d="M854.68,357.74h4.8a3,3,0,0,0,2.13-.67,2.59,2.59,0,0,0,.72-2,3,3,0,0,0-.23-1.3,2,2,0,0,0-.64-.79,2.5,2.5,0,0,0-.94-.37,6.5,6.5,0,0,0-1.09-.09h-4.75Zm-2.93-7.61h8a6.22,6.22,0,0,1,4.14,1.19,4.18,4.18,0,0,1,1.38,3.33,5,5,0,0,1-.35,2,4.29,4.29,0,0,1-.82,1.26,3.2,3.2,0,0,1-.92.69c-.31.14-.53.23-.67.28v.05a3.13,3.13,0,0,1,.81.23,2.58,2.58,0,0,1,.8.6,3.14,3.14,0,0,1,.62,1.07,4.51,4.51,0,0,1,.25,1.63,14.6,14.6,0,0,0,.22,2.68,3.61,3.61,0,0,0,.69,1.73h-3.14a2.87,2.87,0,0,1-.38-1.2c0-.43-.06-.86-.06-1.26a12.41,12.41,0,0,0-.14-2,3.32,3.32,0,0,0-.52-1.38,2.08,2.08,0,0,0-1-.81A4.53,4.53,0,0,0,859,360h-4.31v6.89h-2.93Z" transform="translate(-709.89 -268.86)"/><path class="a" d="M878.75,364.46h2.88a7.22,7.22,0,0,0,2.8-.46,4.12,4.12,0,0,0,1.71-1.26,4.63,4.63,0,0,0,.84-1.9,12.71,12.71,0,0,0,0-4.71,4.65,4.65,0,0,0-.84-1.89,4.22,4.22,0,0,0-1.71-1.27,7.42,7.42,0,0,0-2.8-.45h-2.88Zm-2.93-14.33h6.93a7.94,7.94,0,0,1,3.33.65,6.29,6.29,0,0,1,2.29,1.79,7.46,7.46,0,0,1,1.32,2.66,12.26,12.26,0,0,1,0,6.51,7.38,7.38,0,0,1-1.32,2.66,6.19,6.19,0,0,1-2.29,1.79,7.79,7.79,0,0,1-3.33.66h-6.93Z" transform="translate(-709.89 -268.86)"/><rect class="a" x="190.42" y="81.27" width="2.93" height="16.72"/><polygon class="a" points="204.4 81.27 207.49 81.27 215.12 93.59 215.17 93.59 215.17 81.27 217.96 81.27 217.96 97.99 214.87 97.99 207.26 85.7 207.19 85.7 207.19 97.99 204.4 97.99 204.4 81.27"/><path class="a" d="M953.49,366.85h-1.87l-.45-2a6.91,6.91,0,0,1-2.34,1.85,6.69,6.69,0,0,1-2.69.51,7.88,7.88,0,0,1-3.36-.69,7.51,7.51,0,0,1-2.52-1.88,8.5,8.5,0,0,1-1.58-2.79,10.69,10.69,0,0,1,0-6.77,8.35,8.35,0,0,1,1.58-2.78,7.56,7.56,0,0,1,2.52-1.9,7.74,7.74,0,0,1,3.36-.7,9.21,9.21,0,0,1,2.59.36,6.79,6.79,0,0,1,2.19,1.08,5.84,5.84,0,0,1,1.59,1.79,6.35,6.35,0,0,1,.79,2.48h-2.85a3.75,3.75,0,0,0-.51-1.44,3.56,3.56,0,0,0-1-1,4.19,4.19,0,0,0-1.31-.63,5.42,5.42,0,0,0-1.52-.21,4.7,4.7,0,0,0-2.31.54,4.45,4.45,0,0,0-1.58,1.44,6.74,6.74,0,0,0-.9,2,9.63,9.63,0,0,0,0,4.69,6.8,6.8,0,0,0,.9,2.05,4.65,4.65,0,0,0,1.58,1.44,4.7,4.7,0,0,0,2.31.54,5.59,5.59,0,0,0,2-.3,3.89,3.89,0,0,0,1.46-.91,3.83,3.83,0,0,0,.9-1.46,5.85,5.85,0,0,0,.33-1.92h-4.45V358h7.12Z" transform="translate(-709.89 -268.86)"/><path class="a" d="M981.29,364.46h2.88A7.22,7.22,0,0,0,987,364a4,4,0,0,0,1.7-1.26,4.52,4.52,0,0,0,.85-1.9,12.71,12.71,0,0,0,0-4.71,4.53,4.53,0,0,0-.85-1.89A4.12,4.12,0,0,0,987,353a7.42,7.42,0,0,0-2.8-.45h-2.88Zm-2.93-14.33h6.93a7.94,7.94,0,0,1,3.33.65,6.29,6.29,0,0,1,2.29,1.79,7.81,7.81,0,0,1,1.32,2.66,12.26,12.26,0,0,1,0,6.51,7.72,7.72,0,0,1-1.32,2.66,6.19,6.19,0,0,1-2.29,1.79,7.79,7.79,0,0,1-3.33.66h-6.93Z" transform="translate(-709.89 -268.86)"/><path class="a" d="M1006.29,360.2h5.11l-2.51-7.19h-.07Zm1-10.07h3.12l6.44,16.72h-3.14l-1.57-4.43h-6.67l-1.57,4.43h-3Z" transform="translate(-709.89 -268.86)"/><polygon class="a" points="318.79 91.43 312.51 81.27 315.9 81.27 320.33 88.77 324.69 81.27 327.96 81.27 321.71 91.43 321.71 97.99 318.79 97.99 318.79 91.43"/><path class="a" d="M774.3,360.82a.71.71,0,0,0,0-.2,1.28,1.28,0,0,0-.68.57,2,2,0,0,0-.46.81l.08,0c.32.12.32.36.37.62a.58.58,0,0,0,.21.31,11.87,11.87,0,0,1,1-.9l-.08,0C774.08,361.82,774,361.48,774.3,360.82Z" transform="translate(-709.89 -268.86)"/><path class="a" d="M762.91,363.11a1.34,1.34,0,0,1-1.34.57c-.48,0-.9.42-1.07,1s-.32.61-.64.65a.55.55,0,0,0,.49.5,3.29,3.29,0,0,1,.54.14.82.82,0,0,0,1.12-.23h.28s.07.09.11.09a2,2,0,0,0,1-.18c.39-.2.53-.71,1-.9.06,0,0-.18,0-.26a.89.89,0,0,1,.08-1.2A1.92,1.92,0,0,1,762.91,363.11Z" transform="translate(-709.89 -268.86)"/><path class="a" d="M775.81,272.31h0a.8.8,0,0,0-.87.3h0A1.91,1.91,0,0,0,775.81,272.31Z" transform="translate(-709.89 -268.86)"/><path class="a" d="M714,358h.09l.1-.11A1.18,1.18,0,0,1,714,358Z" transform="translate(-709.89 -268.86)"/><path class="a" d="M808.66,323.46c0-.2,0-.41.11-.58s0-.37.05-.56a.39.39,0,0,1,0-.57,38.75,38.75,0,0,0-.18-3.88,6.93,6.93,0,0,0-1.22-3.42c-.13-.16-.3-.31-.27-.55h0l.09-.35c0-.29.07-.57.11-.86s-.3-.34-.28-.58a2.11,2.11,0,0,0,.09-1.24,8.35,8.35,0,0,1-.12-1.81,9.48,9.48,0,0,0-1.14-5.64,1.09,1.09,0,0,0-.11-.1,7.45,7.45,0,0,0-.69-1.42c-.14-.27-.29-.54-.41-.82a1.27,1.27,0,0,0-.56-.69c-.36-.17-.29-.39-.13-.54a1.28,1.28,0,0,0,.39-1l-.09.08c0,.09,0,.2,0,.31s-.31.07-.29.29c-.2.05-.36.26-.61.18,0,0-.06-.08-.06-.11,0-.23,0-.46,0-.7.18,0,.22.17.33.24s0-.24.09-.34a.6.6,0,0,1,.11-.06c.12,0,.29.08.31-.16,0-.07.1-.14.16-.21l.09-.1a3.18,3.18,0,0,1,.14-.53,2.59,2.59,0,0,0,.15-.83,2.34,2.34,0,0,0,.75-1.53,2.12,2.12,0,0,1,.45-1.09c.32-.42.15-1,.33-1.48.06-.15,0-.33.09-.48a.35.35,0,0,1,.21-.25v-.57c-.13-.06-.12-.17-.11-.29s0-.51.24-.64a.76.76,0,0,1,.11-.67.46.46,0,0,0,.12-.46c-.13-.38-.25-.75.12-1.08,0,0,0-.18,0-.27-.09-.46-.16-.93-.25-1.39,0,0-.08-.05-.08-.12l.06,0a6.15,6.15,0,0,0-.55-1.7c-.06-.1-.1-.21,0-.29.25-.12.35.25.62.13a2.81,2.81,0,0,0-.37-.78,7.13,7.13,0,0,1-.73-1.36,8.37,8.37,0,0,0-.89-1.83,2.12,2.12,0,0,1-.43-1.17,5.86,5.86,0,0,1-1.31-1.74c-.36-.55-.78-1.06-1.19-1.57a2.21,2.21,0,0,1,.14.74,5.56,5.56,0,0,1-.47-.5c-.44-.56-.87-1.14-1.32-1.7-.09-.1-.26-.13-.38-.21a10.58,10.58,0,0,1-1.15-.84c-.33-.29-.26-.57.15-.72a6.37,6.37,0,0,0-1.36-.89c-.54-.22-.87-.72-1.39-1-.92-.42-1.83-.87-2.76-1.28a12.87,12.87,0,0,0-6.9-1,2.22,2.22,0,0,1-.85-.05,1.2,1.2,0,0,0-1,.08c-.07.05-.19.11-.25.09a4.73,4.73,0,0,0-2.36.2.65.65,0,0,0-.46.3,1.25,1.25,0,0,0-1.08.38.82.82,0,0,1-.42.17c-.47.25-.95.46-1.39.75a.76.76,0,0,1,.14.16c-.28.19-.56.37-.83.57-.56.4-1.3.54-1.65,1.23,0,.08-.21.08-.32.12a5.22,5.22,0,0,0-.56.18c-.4.19-.45.22-.86-.09a.64.64,0,0,0-.22.47,1.11,1.11,0,0,1-.78.63l-.12.57-.75.07.35-.41c-.16,0-.29,0-.25.29l-.15,0-.7,0c-.27-.18-.19.33-.48.23s-.26,0-.24.32c-.07.14-.15.27-.23.4v.26c0,.05.06.1,0,.15s0-.1,0-.15l0,.19h0a2.26,2.26,0,0,1-.53,1.2,4.34,4.34,0,0,0-.63,1.61,2.2,2.2,0,0,1-.8,1.5c-.29.18-.16.51-.22.78s-.09.25-.26.25c.47.35.51.46.37,1a4,4,0,0,0,.15.85.36.36,0,0,1,0,.2,11.66,11.66,0,0,1-.26,2.43c0,.08-.1.16-.14.24a16.77,16.77,0,0,0-.81,4,.24.24,0,0,0,0,.12l0,0v0h0v0c0-.2,0-.41,0-.61h.11c0,.2-.08.4-.13.6v0a0,0,0,0,1,0,0s0,0,0,.08a.26.26,0,0,0,.1.11c0,.33,0,.67,0,1a1.53,1.53,0,0,0-.11.84l-.15.86a.47.47,0,0,0-.28.37,1.41,1.41,0,0,1-.27.72,1,1,0,0,0,0,1.27s0,.06,0,.09c-.27.27-.51.59-1,.44-.22-.07-.43.15-.6.32a24.13,24.13,0,0,0-2.3,2.65c-.13.28-.5.4-.52.76-.2,0-.31.21-.46.32a.88.88,0,0,0-.71.71,7.23,7.23,0,0,1-1.13.3c0-.09,0-.21-.13-.21s-.12.16-.12.27a39.22,39.22,0,0,0-3.58,1.72c-.46.26-1,.38-1.28.9l.07.08-.07-.08a.14.14,0,0,0-.1.18c-.1,0-.16,0-.15.14a.18.18,0,0,0-.2.08c-.47.13-.62.61-1,.88,0-.06-.09,0-.12,0-.34.15-.53.49-.83.69l-.3.13c0,.26-.1.47-.16.79a.73.73,0,0,1-.17-.38l-.34.28a8,8,0,0,0-2,2h0a.69.69,0,0,1-.61.05c-.22-.09-.41,0-.42.21,0,.41-.33.55-.6.72l-2.58,1.59a1,1,0,0,0-.43.34l-.56.26c0,.06,0,.11,0,.17a.28.28,0,0,0-.29.13l-1.08.62a.36.36,0,0,0-.17.48c-.23.14-.56.11-.68.41a1.62,1.62,0,0,0-.73.39,1.35,1.35,0,0,1-1.14.38c-.16.21-.35.38-.32.68a.83.83,0,0,1-.31.69c-.38.38-.73.8-1.07,1.21a3.41,3.41,0,0,1-1.45,1.09,2.16,2.16,0,0,0-.62.33c-.54.47-1.2.89-.92,1.78h0a.66.66,0,0,0,0,.14l.18-.13c.54.27.53.27.4.82a1,1,0,0,1-.31.54,5.66,5.66,0,0,0-.79.9.45.45,0,0,1-.53.26,1.53,1.53,0,0,0-1.45.46,3.37,3.37,0,0,1-2.26,1.16c-.22,0-.36.19-.5.35a4.87,4.87,0,0,0-.32.47.72.72,0,0,1-.89.38,1.21,1.21,0,0,0-.82.12c-.92.35-1.62,1.11-2.56,1.43-.05,0-.07.12-.1.18h0a.47.47,0,0,0-.4.16,1.73,1.73,0,0,0-.8.4c-.64.44-.78.83-.39,1.48.21.33.08.47-.12.63a9.52,9.52,0,0,0-1,.76,12.14,12.14,0,0,1-1.85,1.5c-.18.12-.36.23-.37.48l-.12,0a4.65,4.65,0,0,0-2.35,2,.47.47,0,0,0-.06.2c-.06.34.09.53.43.44a3.74,3.74,0,0,0,1.39-.42l.42,0a1.06,1.06,0,0,0,1.24.36,15.06,15.06,0,0,0,3-.92.27.27,0,0,0,.31.06,3.18,3.18,0,0,0,.87-.42.22.22,0,0,1,.31,0,.23.23,0,0,1,0,.26c-.08.16-.23.29-.22.5a3.08,3.08,0,0,1-1.09,1,2,2,0,0,0-.82.85,1.26,1.26,0,0,1-.49.58c-.49.29-.93.64-1.43.9a6.89,6.89,0,0,0-2.19,2,1.77,1.77,0,0,0-.4.66c-.12.45,0,.72.42.76s.59.29.92.33.26.17.2.36a.72.72,0,0,0,0,.41s0,.05,0,.05c-.85.31-.87.34-1.15,1.3a.25.25,0,0,1-.19.19c-.32.05-.32.31-.37.53a6.17,6.17,0,0,0-.08.62,9.88,9.88,0,0,0,3.36.48l.27,0c.38,0,.39.17.17.42a.47.47,0,0,0-.07.12,3.23,3.23,0,0,0-1.23,1.23,4.52,4.52,0,0,0-1.14,1c-.5.39-1,.8-1.47,1.21.06.06.11.13.18.21l-.58.58-.14-.08c0-.09,0-.2,0-.3-.11.08-.2.17-.31.24-.41.3-.91.61-1,1.22a7.52,7.52,0,0,0-1.39,1,9.41,9.41,0,0,0-1.31,1.13.38.38,0,0,0-.14.43.14.14,0,0,0-.23-.05l-2.14,1.9c-.08.17-.27.19-.39.3s0,.58-.19.83a8.49,8.49,0,0,0,1.59-1.13,7.16,7.16,0,0,0,1.92-1.44c.1.47-.34.67-.24,1-.29.18-.32.5-.4.79a2,2,0,0,1-.35,1.18,4.67,4.67,0,0,1,1.88-.54c-.19.28-.25.47-.37.53s-.48.23-.72.33a4.18,4.18,0,0,0,.22.86.29.29,0,0,0,.29.24,1,1,0,0,0,.64.15c-.16.31-.5.52-.51.92l0,0c0,.12,0,.26-.11.3l-.46.21a1.47,1.47,0,0,0-.28.79,3,3,0,0,1-1.5.44,2.12,2.12,0,0,1-1.14.71c0,.09,0,.21-.13.23a3.54,3.54,0,0,0-1.57.9.75.75,0,0,1-.07.12c-.23.39-.23.39.24.43l.54,0h.17a1.81,1.81,0,0,1,1.58-.31c-.13.11-.25.2-.38.29l1,.06a6,6,0,0,0,2.31-.32c.07-.13.17-.27.31-.25.52,0,1-.22,1.54-.12a1.83,1.83,0,0,0,1.4-.34,1.45,1.45,0,0,1,.9-.28,7.1,7.1,0,0,1,1.6-.08c.24,0,.49-.06.71.14s.41.07.62.09l.14,0a.4.4,0,0,0,.33.46,7.11,7.11,0,0,0,1.65.21.47.47,0,0,0,.44-.29H726c.14.5.76.67.85,1.22,0,.09.39.22.51.16.51-.27,1-.1,1.58-.19a3.1,3.1,0,0,1,2,.07,3.46,3.46,0,0,0,2.18.23c.93-.1,1.62.44,2.43.64,0,0,0,0,0,.06.15.22.27.15.45,0a1.22,1.22,0,0,1,1.17-.27.79.79,0,0,0,.9-.2c.16-.18.34-.11.51,0H739a6.49,6.49,0,0,1,.77,0c.85.16,1.05,0,1.22-.89a.3.3,0,0,1,.28-.14c.22.19.25,0,.29-.15h.13c.26,0,.49.11.58.43.15.56.27.63.83.53.2,0,.4-.16.6,0a1.09,1.09,0,0,0,1.2,0,1.17,1.17,0,0,1,.88-.14c.29.1.45-.05.45-.36a.53.53,0,0,1,.16-.45,2,2,0,0,1,1.41-.71H748c.67.06.77.19.71.83,0,.34-.28.57-.38.9a1,1,0,0,0,1.15-.14,4.17,4.17,0,0,1,1.12-.45,1.26,1.26,0,0,1,.1-.18.63.63,0,0,0,.07.12,2,2,0,0,0,.34-.14.4.4,0,0,1,.34,0c.56.15.57.15.8-.3a.91.91,0,0,1,.87-.59c.41.06,1,0,1,.7a.53.53,0,0,0,.33.43c.52.3,1.13.44,1.64.77.14.09.32,0,.48-.07l1.25-.49c.21-.1.41-.15.58,0s.55.24.88.09h0a1,1,0,0,1,.35-1.28,3,3,0,0,1,1.18-.18,1.5,1.5,0,0,0,1.09-.43c.19-.21.36-.43.16-.78l-.83.09c0-.09,0-.16.09-.35a2.43,2.43,0,0,0-.64.19c-.78.46-.78.47-1.71.17.1-.41.47-.5.79-.62.8-.29,1.6-.57,2.43-.8a1.8,1.8,0,0,0,1.23-.76,1.66,1.66,0,0,1,.3-.28,1.71,1.71,0,0,0,.55.09,1,1,0,0,1,1,.44.83.83,0,0,0,.35.25.52.52,0,0,0-.08-.28.84.84,0,0,1-.14-.24.32.32,0,0,1,0-.34c.1-.11.2-.05.31,0a4.09,4.09,0,0,1,.77.88.8.8,0,0,0,.14.24,1,1,0,0,1,.14.16c.12.05.25.08.37.14.46.21.9.44,1.33,0a1,1,0,0,1,.4.95.67.67,0,0,1,.29.08,1.56,1.56,0,0,0,.34-.24,5.62,5.62,0,0,1,1.26-1.27c.12-.07.16-.3.21-.47a.86.86,0,0,1,.92-.72,1.13,1.13,0,0,0,.8-.32c.5-.42.7-.39,1,.16a.72.72,0,0,0,.75.49c.61,0,1.23,0,2,0a2,2,0,0,1-1.6.67,1.23,1.23,0,0,0-.55,0c.26,0,.4.13.56.29l.21.28c.17.24.42.21.66.23s.36-.22.56-.32A4.46,4.46,0,0,0,778.4,359c.55-1.13,1.06-2.27,1.57-3.42.21-.47.25-.5.74-.36l.59,3,.74-.59.43.38c.09,0,.19,0,.23-.08l.77-.91c.27-.31.54-.6,1.08-.36l-1,1.72.11.11a9.54,9.54,0,0,1,1.16-.44,9.7,9.7,0,0,1,1.29-.2c.34.37.2.82.14,1.25s-.08.64-.12,1a4.12,4.12,0,0,1-.06.52c-.24.87-.44,1-1.37,1-.07,0-.14,0-.23,0-.16.39,0,.94-.62,1.15a7.9,7.9,0,0,1-1.78-3.18c-.46,0-.54.29-.61.54s0,.36-.09.52-.22.29-.29.28a.63.63,0,0,1-.36-.3,5.9,5.9,0,0,1-.23-.82,2.57,2.57,0,0,0-.46.28.61.61,0,0,1-.62.14c-.51-.13-.65,0-.73.54a1.89,1.89,0,0,0,.64,1.61,2.23,2.23,0,0,0,.24.19c.25.2.56.41.45.79s-.52.45-.86.51-.89.11-1.33.18l-.07,0a3.56,3.56,0,0,1,.18.35.93.93,0,0,0,.14.14.78.78,0,0,0,.21,0c.6-.3,1.2-.58,1.82,0a.2.2,0,0,0,.13,0,1.4,1.4,0,0,1,.87.4,2.12,2.12,0,0,0,1.4.47.53.53,0,0,1,.06-.56l.85-1.31.12,0c0,.07,0,.14,0,.21l.06-.07.42.15a1.36,1.36,0,0,0,.13.24c.14-.08.3,0,.61.07l.21-.31c.07,0,.15.06.18.12s.13.27.19.4l.14-.09c.21-.15.4-.33.68-.29a2.47,2.47,0,0,0,1.41-.29H788a.8.8,0,0,0,.24.18.38.38,0,0,1,.23-.49c.21-.11.7.17.85.48s.12.34.19.55c.24.11.5.19.76.28h.14a1.43,1.43,0,0,1,.67.18c.35.14.42.09.42-.27s.08-.57.6-.56.62-.18.51-.59.05-.5.07-.75c-.3,0-.67.05-.34-.45,0-.05-.06-.17-.08-.26s.32-.19.2-.39a1.11,1.11,0,0,1-.09-.19,5.34,5.34,0,0,0-.9,0l.15.47c-.28,0-.51,0-.74,0-.66-.07-.79,0-1.05.64-.53-.06-.53-.06-1-1.19-.31.44-.64.82-1.22.77-.35-.55-.36-.56.18-.87a1.48,1.48,0,0,0,.82-1c.06-.35.26-.46.6-.34a2.37,2.37,0,0,0,.36.09c.53.09.66.44.32.88a1.11,1.11,0,0,0-.24.46,7.88,7.88,0,0,0,1.44-.68l-.31,0c-.11-.55-.11-.55-.65-.6l-.17-.28a.17.17,0,0,0,0-.12.61.61,0,0,1,.74-.43c.13.13.3.22.33.43s-.22.24-.05.35.2-.07.27-.17l.06-.12.39,0c0,.17.1.28.29.13a.88.88,0,0,1,.58,0l.14.05a2.86,2.86,0,0,1,.58-.13.37.37,0,0,1,0,.21.93.93,0,0,0,.66-.44c0-.11,0-.24,0-.33-.15-.25-.32-.46.17-.53.15,0,0-.24,0-.36a1.27,1.27,0,0,1,.95-.12c.05.1.1.2.14.3s.15.22.3.11c-.05-.2-.18-.39-.11-.62l-.15-.15H795c0-.39-.4-.29-.62-.43h-.07a2.38,2.38,0,0,1-.74-.15c.21-.36.68-.41.94-.72a.36.36,0,0,0-.37,0,1.35,1.35,0,0,1-.34.06c-.43,0-.5-.17-.57-.62s.22-.69.21-1.06a10.43,10.43,0,0,0-2.43,1.1l.33.41c-.18.33-.42.45-.63.25a.38.38,0,0,1-.13-.37.57.57,0,0,1-.26,0v-.31c.14-.1.16-.27.23-.41a11.55,11.55,0,0,1,1.24-2h0l0,0s0,0,0,0a3.72,3.72,0,0,1-.89-.54c-.12-.1-.14-.31-.27-.61a2.3,2.3,0,0,0,1.69.61,5.22,5.22,0,0,0,.58-1.24,4.07,4.07,0,0,0,.42-.73,4.75,4.75,0,0,0,.8-1.72c.11-.18.22-.36.34-.54a3.86,3.86,0,0,0,.54-1.14.55.55,0,0,1,.45-.1,1.33,1.33,0,0,0,1.11-.3,5.3,5.3,0,0,0,3-1.95c0-.21,0-.39-.2-.46.17.07.2.25.2.46a13.87,13.87,0,0,0,2.75-3.63,15.46,15.46,0,0,0,1-2,1.61,1.61,0,0,0,.46-.77c.3-.67.54-1.35.85-2,.5-1.12.61-2.36,1.19-3.45a4.35,4.35,0,0,0,.37-1.56c.41-.33.33-.86.55-1.27s.3-.74.4-1.12a9.6,9.6,0,0,0,.75-3.47,4.3,4.3,0,0,1,.09-.47c0-.4.25-.53.61-.48,0-.35-.4-.61-.28-1v-.14C808.51,323.73,808.49,323.56,808.66,323.46Zm-2-36.89a.06.06,0,0,1,0,.06h-.06s-.07-.07-.06-.08S806.63,286.52,806.67,286.57Zm-1-3.58c.09.13.34.21.14.43C805.67,283.29,805.42,283.22,805.62,283Zm-.25-.38s0,0,0,0l-.09.05-.05-.05A.18.18,0,0,1,805.37,282.61ZM804,279.69l.16.21L804,280l-.15-.25ZM723.1,350a2,2,0,0,1-.56,1.47A2.71,2.71,0,0,1,723.1,350Zm-1.05-2.17a5.18,5.18,0,0,1-1,2.65A4.79,4.79,0,0,1,722.05,347.85Zm-.71,7c-.14.53-.24.92-.39,1.45C720.73,355.39,720.74,355.37,721.34,354.81Zm-3.17,1.88.14,0-.36,1.77-.18,0C717.9,357.86,718,357.28,718.17,356.69Zm-1.41,3a.85.85,0,0,1-.07,1c-.61-1.2,0-2.07.46-3l.16.05c-.16.34-.29.7-.47,1A.92.92,0,0,0,716.76,359.67Zm.59-5.41c-.21-.16-.65-.05-.71-.48a.89.89,0,0,1,.27-.95,1.28,1.28,0,0,1,.94,1.19c0,.36.22.86-.43,1.1C717.4,354.82,717.38,354.56,717.35,354.26Zm.17,8.59c0-.76.61-1.17.87-1.82l-.29-.27,0-.12,1.06.14Zm1.29-4.7a2.28,2.28,0,0,1-.4,1.48A1.91,1.91,0,0,1,718.81,358.15Zm.41-5.52a1.37,1.37,0,0,1-.26.2v0h0v0a.74.74,0,0,1-.27.84l.27-.84s0,0,0,0h0a6.46,6.46,0,0,1,.87-2.21C719.53,351.27,719.7,352,719.22,352.63Zm.94,1a3.14,3.14,0,0,1-.42,2.07l-.2-.07C719.74,354.93,720,354.27,720.16,353.6Zm-.6,7.54.61-.75.15.13-.64.72Zm2.58.09a2.15,2.15,0,0,1-2.34,1.15c.16-1,1.15-1.42,1.41-2.37l2.14.54C722.74,361.29,722.48,361.45,722.14,361.23Zm2.53-14.83c-.32-.63-.15-1,.68-1.43A1.71,1.71,0,0,1,724.67,346.4Zm.9,5c-.28-.38,0-.65.08-1l.19,0Zm-.06-9.17-.11-.09.59-.7.11.09Zm1.48,3.23-.4,1.42-.54.05C726.39,345.93,726.41,345.89,727,345.48Zm-.59,4.21c-.22-.52-.12-.68.91-1.34C727,348.79,726.72,349.23,726.4,349.69Zm2.24-3.06.14.08-.19.31-.13-.08Zm-.8,4.82c.11-.41.2-.77.31-1.2l.46.32.25-.29c.11.16.2.31.29.45Zm.42,3.68c.36-.68,1.19-1,1.17-1.94A1.77,1.77,0,0,1,728.26,355.13Zm8.49-29.45c.12.12.3.24.28.29a1.19,1.19,0,0,0,.64,1.52l-1.08.44A3.23,3.23,0,0,1,736.75,325.68Zm.6,5.82a4,4,0,0,1,.24-2.45C737.62,329.87,738.07,330.72,737.35,331.5Zm-1.43-4,.06.23-.42.12c0-.09-.06-.25,0-.25A2.6,2.6,0,0,1,735.92,327.5Zm.22,10.43c0,.43-.06.86-.1,1.37A1,1,0,0,1,736.14,337.93Zm-1.46-7.18c.3.5,0,.86-.28,1.21C734.5,331.55,734.59,331.15,734.68,330.75Zm-.38,7.11c0,.23-.11.45-.16.68l-.23-.05c.07-.23.15-.45.23-.68Zm-2.14,2.71.06.08-.07.1a.5.5,0,0,1,0-.12S732.15,340.59,732.16,340.57Zm-.45-1,.07,0a2,2,0,0,1-.11.2l-.06,0Zm-.53-3.63a2.23,2.23,0,0,1-.73,1.81A4,4,0,0,1,731.18,335.92Zm-.85,11.76a1.88,1.88,0,0,1,0-.53c0-.06.08-.12.19-.24.12.09.26.15.26.2a2.46,2.46,0,0,1-.14.61A.65.65,0,0,1,730.33,347.68Zm.41,3.54-.09-.08.21-.23.09.09Zm-.14-6.36a2.74,2.74,0,0,0,0-.64h0v0l-.65-.17c-.19-1-.19-1,.08-1.67.62.18.63.7.65,1.2a2.8,2.8,0,0,1-.08.64h0v0c.13,0,.28,0,.35.08s.14.32.24.46c.38.52.39.52-.15.93A.66.66,0,0,1,730.6,344.86Zm.76,15.39c-.34-.79-.34-.8.25-1.14C731.65,359.52,731.78,359.94,731.36,360.25Zm.37-7.36.48-1.14.16.07A1.13,1.13,0,0,1,731.73,352.89Zm.45-6.21a.49.49,0,0,1-.39.11.44.44,0,0,1-.21-.35c0-.28.1-.56.15-.86C732.47,345.94,732.62,346.35,732.18,346.68Zm.57,5.25c.41,0,.56.21.6.64C732.73,352.55,732.73,352.55,732.75,351.93Zm.33-4.2c-.27,0-.31-.2-.33-.4a2.51,2.51,0,0,1,.08-1.32,1.43,1.43,0,0,1,.66,1.21C733.51,347.52,733.39,347.71,733.08,347.73Zm.76-11.37c0,.48.28,1-.07,1.47C733.33,337.28,733.58,336.81,733.84,336.36Zm0,8.75c.43.41.77.68,1,1a.46.46,0,0,1-.13.66c-.23.17-.5.3-.91.54Zm.52,9.84-.08.07,0,0a1,1,0,0,1,0-.1Zm-.11,8.37.05,0v.06Zm.72-6.2c-.21.18-.45.42-.84.08l.91-.85A.48.48,0,0,1,735,357.12Zm-.31-17.85c0-.25.09-.52.13-.78-.09-.08-.26-.16-.26-.25a1.91,1.91,0,0,1,.31-1.18c.31.54,0,1,0,1.4.39,0,.64.28.57.62S735.06,339.44,734.69,339.27Zm.63,9.83s0,0,0-.05l0,.1-.1.08A.29.29,0,0,1,735.32,349.1Zm.24,3.35c-.09-.14-.17-.29-.25-.43l.14-.08.24.44Zm.13,2.29a.44.44,0,0,1-.07-.21s.1-.07.16-.1.05.12.09.19Zm-.16-7.93c-.14-.47-.37-1,.06-1.47l.65.36c.11.51.22,1,.36,1.6C736.13,347.12,735.66,347.27,735.53,346.81Zm1.29-10c.44.61.43.83-.11,1.65C736.39,337.8,736.68,337.31,736.82,336.78Zm0,2.41.25-.95c.49.53.5.58.44,1.22Zm.56,16.15s0,0,0,0,0-.07,0-.11l.11.07Zm-.13-2.49v-1.31l.52,1A.36.36,0,0,1,737.3,352.85Zm44,12.17h-.07a.42.42,0,0,1,0-.1s0,0,.07,0S781.28,365,781.27,365Zm.37-1.64s-.06-.07,0-.09.07-.06.11-.09,0,.08,0,.1A.2.2,0,0,1,781.64,363.38Zm.44-.49c-.11-.19-.33-.39-.29-.51a.88.88,0,0,1,.47-.51c.4-.15.41.31.69.5Zm9.19-4.48a.67.67,0,0,1-.75.39c0-.22,0-.43,0-.74Zm6.26-85.36c-.5,0-.65-.38-1-.74C797.41,272.43,797.41,272.43,797.53,273.05Zm-2.24-1.36.33.11,0,.1-.33-.11A.3.3,0,0,1,795.29,271.69Zm.24,65.63a8.07,8.07,0,0,1,.89.43l-.09.26c-.33-.06-.66-.1-1-.19-.08,0-.12-.23-.18-.35C795.3,337.41,795.44,337.28,795.53,337.32Zm-2.13-66.49.48.18s0,0,0,.06l0,.06-.55-.22C793.36,270.87,793.39,270.82,793.4,270.83Zm-2.57.46.08.19-.43.16-.06-.14Zm.55,10.49a.94.94,0,0,1-.9.92.92.92,0,0,1-.87-.86.89.89,0,0,1,.9-.9A.87.87,0,0,1,791.38,281.78Zm-1.89-12.07.9.15v.1l-.89-.15Zm-.46.7.39.06s0,.08,0,.12l-.39,0Zm-1-.8v0h-.43v0Zm-1.18,63.21a.27.27,0,0,1,.09.25c-.15.29-.38.22-.7.1C786.42,332.81,786.6,332.69,786.88,332.82Zm0,15.21-.39.18a1.16,1.16,0,0,1,0-.18l.39-.1Zm-1.1-15-.35.06c0-.05,0-.13,0-.13l.35-.07S785.82,333,785.83,333.05ZM785,269.78h.06l.6-.09v.11l-.61,0H785l-.73-.16A.57.57,0,0,1,785,269.78Zm.08,1.16-.72-.23C784.83,270.49,784.83,270.49,785.08,270.94Zm-1.3,53.81s.08.06.08.09-.06.06-.09.09l-.1-.12Zm-.48-55.09s0,.09,0,.13l-1.27.12a.34.34,0,0,1,0-.1Zm-1.35.8.12.2-.45.2a1.09,1.09,0,0,1-.08-.15Zm-.88-.2a.86.86,0,0,0,.07.1c-.06.07-.11.17-.18.21s-.17,0-.25,0,0-.07,0-.11Zm0,1-.29.13a1.17,1.17,0,0,1-.05-.11l.29-.12S781.1,271.19,781.12,271.22Zm-.43,20.19c0-.05,0-.11,0-.14a1.24,1.24,0,0,1,.34-1.72,1.54,1.54,0,0,0,.25-.36h0v0c-.1,0-.26-.07-.29-.15-.14-.33-.24-.68-.37-1.08l.67-.18a2.9,2.9,0,0,1,.23.79,1.7,1.7,0,0,1-.24.62h0l.74-.29c-.34.58-.61,1-.95,1.59l.84-.19v.89l.27,0c.51,0,.81.36.6.8a2.73,2.73,0,0,1-.37.47c-.2.22-.41.42-.6.65s-.46.32-.66,0a3.94,3.94,0,0,0-.81-1.15c-.13-.1-.1-.4-.16-.71Zm1.09,49.13-.29-.12a.42.42,0,0,1,0-.1l.29.12Zm.13,4.68s.08,0,.16.09a1,1,0,0,1-.78.27l0-.14Zm-.37-18.45.1,0a.09.09,0,0,1,.05,0l-.1,0Zm.08,8.8c.25-.48.29-.48,1.07-.13C782.33,335.69,782.33,335.69,781.62,335.57Zm-1.89-64.67c-.05.49-.34.41-.53.5a2.12,2.12,0,0,1-.11-.21Zm-2.28,28.72s.07,0,.11,0,0,.12,0,.19-.11,0-.12-.07A.17.17,0,0,1,777.45,299.62Zm1.25.33c.08.27.17.55.23.74l1.05.68.41-.26c1,.54,1,.63.57,1.26l0,0c0,.35-.07.69-.11,1.14l-.57-.54a1,1,0,0,1-1.13.07c-.19-.12-.56,0-.85.08a4.27,4.27,0,0,1-.2,1,3.28,3.28,0,0,1-.59.65,1.81,1.81,0,0,1-1.24-1.26l1,.16c.8-.85.84-.92.78-1.35-.69,0-.69,0-1.1-.29.13-.39.25-.8.39-1.19C777.67,300,777.74,300,778.7,300Zm2.3,35.2s-.09,0-.12,0,0-.07,0-.11.06,0,.07,0S781,335.12,781,335.15Zm-2.14-30.42.93.63C778.92,305.52,778.79,305.42,778.86,304.73Zm.15,24-.08.1s-.06,0-.06,0a.5.5,0,0,1,0-.12Zm1,3.81c-.06,0-.15.1-.18.08l-1.6-.74C778.82,331.31,779.12,331.42,780,332.52Zm-.16-9a2.28,2.28,0,0,1,.45-.26c.05,0,.23.18.22.19a3.91,3.91,0,0,1-.37.47Zm-2.29,19.23c-.2.2-.2.2-.53,0Zm-1.25-43.37a.89.89,0,0,1-.19-.07.26.26,0,0,1,.12-.07.17.17,0,0,1,.11.06S776.31,299.4,776.3,299.39Zm.81-.16-.08.1s-.08-.06-.09-.1,0-.06.08-.1Zm-.23-18.1c-.41.37,0,.65.14.95-.1.15-.31.2-.29.39h-.11a.87.87,0,0,1-.83-.81.84.84,0,0,1,.78-.85Zm-2.15-.22a2.1,2.1,0,0,0,.06-.24c.24-1,.85-1.2,1.77-.37l-.37,0a1,1,0,0,0-1.12,1.2,1.47,1.47,0,0,0,1.88,1.37c0,.2,0,.12,0,.31A1.78,1.78,0,0,1,774.73,280.91Zm.79,18.48c-.52.38-1,.22-1.6.24C774.24,299.21,774.48,299.18,775.52,299.39Zm-2.1.14-.66.33C772.89,299.32,772.89,299.32,773.42,299.53Zm-1.94-19.78.25.15-.11.23a.73.73,0,0,1-.2-.19S771.45,279.81,771.48,279.75Zm-1.25,4.91-.14.07-.22-.45.19-.09C770.12,284.35,770.17,284.51,770.23,284.66Zm-.38-5.58.11,0c0,.12,0,.25-.05.38l-.1,0C769.82,279.33,769.84,279.2,769.85,279.08Zm.12,21.28c.47,0,.94.09,1.41.09a13.38,13.38,0,0,0,1.41-.11c.54,0,1.08-.15,1.63-.16a12.23,12.23,0,0,1,1.31.15,2,2,0,0,1-2.29,1c-.32.14-.33.41-.33.7a.54.54,0,0,1-.47.58,2.87,2.87,0,0,1-1.39-.06,4.87,4.87,0,0,1,1-.89c.4-.18.8-.26.88-.79-.51-.37-1-.17-1.44.11l-.35-.29a4.1,4.1,0,0,1-.88.23,4,4,0,0,1-.89-.17C769.49,300.48,769.7,300.35,770,300.36Zm5.72,42a.54.54,0,0,1,0,.1l-.12,0,.09-.08Zm-6-40.39.93-.3c.08.5.14.85.2,1.21C770,302.86,769.86,302.73,769.69,302Zm.94,2.32c-.38.56-.38.56-.85.61,0-.22-.06-.37.26-.34C770.19,304.57,770.34,304.43,770.63,304.29Zm.12,48.07.56.13c-.26.26-.45.22-.6.06C770.72,352.49,770.74,352.43,770.75,352.36Zm-1.09-49.06c.06,0,.27,0,.3.11.11.28-.09.38-.33.44C769.47,303.64,769.38,303.44,769.66,303.3Zm-.3-22.24s0,0,0,0,0,0,.07.05c-.05.19-.09.39-.15.6-.05,0-.1-.07-.1-.09C769.27,281.4,769.31,281.23,769.36,281.06Zm-1.86,51.7a.77.77,0,0,1,.48-.37,7.28,7.28,0,0,1,1.16,0,2.86,2.86,0,0,1,.25.47.52.52,0,0,1-.44.71,1.44,1.44,0,0,1-1.2-.25C767.54,333.15,767.4,333,767.5,332.76Zm.14,4,.24.24-.08.09-.25-.23Zm.52-31.78h0l.56-.43c0,.15.09.2.08.24s-.07.24-.12.42l-.52-.23h0l-.36.67c-.51-.21-.29-.59-.25-.95l.61.28Zm.2-6.71c.16-.21.26-.35.37-.48C768.87,298.1,768.75,298.23,768.36,298.23Zm.5,9a.4.4,0,0,1-.11.64.47.47,0,0,1-.7-.15,2.24,2.24,0,0,1-.26-.54c-.08-.24.11-.45.47-.43A3.3,3.3,0,0,1,768.86,307.24Zm-1.42-7.2a.2.2,0,0,1-.16-.12.38.38,0,0,1,.1-.17,1.73,1.73,0,0,1,.28.16C767.55,300,767.49,300.05,767.44,300Zm.35,27.3c-.17.61-.2.63-1,.6l-.38-.67C766.93,326.81,767,326.82,767.79,327.34Zm1.11,2c-.07,0-.24-.11-.25-.18,0-.34.22-.38.53-.4C769.32,329.08,769.17,329.25,768.9,329.31Zm.15-43.54.12,0,0,.41-.14,0C769,286,769,285.91,769.05,285.77Zm0,4.57-.37.71C768.58,290.52,768.57,290.52,769.07,290.34Zm-.73,4.16,0,.33-.12,0,0-.33Zm-.25-1.13.06.51-.17,0-.12-.49Zm-.57.84c.05.09.13.16.14.25s-.06.16-.1.24l-.11,0c0-.14,0-.28,0-.42Zm.15,3.52a.36.36,0,0,1,.12.3c0,.1-.17.25-.23.23-.27-.05-.62,0-.73-.6A6.31,6.31,0,0,1,767.67,297.73Zm-2.14,2,.14.14s-.1.07-.11.06a.18.18,0,0,1-.08-.11S765.51,299.73,765.53,299.7Zm0,3c.3-.12.38.12.46.34.21.53.41,1.06.61,1.6,0,0,.06.1,0,.14a5.09,5.09,0,0,1-.19.77s-.29,0-.31,0a2.83,2.83,0,0,1-.31-.79c0-.14.12-.31.18-.45l-.68-1A.36.36,0,0,1,765.56,302.72ZM765,330.5c.17,0,.33.13.49.15a2.51,2.51,0,0,0,.54,0,3.56,3.56,0,0,1,.13.45c.08.65-.14.86-.75.64-.3-.11-.71,0-.91-.43-.09-.19-.33-.31-.16-.57A.53.53,0,0,1,765,330.5Zm-.5-.78a.75.75,0,0,1,.76-.44c.12,0,.24.25.38.41A.78.78,0,0,1,764.45,329.72Zm1-6.09.85-.37C766.26,323.79,765.9,323.78,765.5,323.63Zm-1.15-20.34c.42.51.37.61-.31.74Zm.37,1.18c.07.08.21.18.2.23-.15.51-.16,1.12-1,1.26C764.2,305.42,764.79,305.14,764.72,304.47Zm0,9.42,1.36.8c-.27.26-.64.17-1,.19h0c-.21.09-.41.2-.62.27a1,1,0,0,1-1.21-.5.65.65,0,0,1,0-.49C763.52,313.64,764.13,313.54,764.71,313.89Zm-2.25,19.51c-.18.07-.37.11-.54.16-.46-.65-.45-.81,0-1.47l.61.35a3.39,3.39,0,0,0,.52.29c.25.09.56-.07.74.25a1.8,1.8,0,0,1,.4,1.18l0,.32a.79.79,0,0,1-.63-.6C763.31,333.05,763.3,333.05,762.46,333.4Zm.25,6.14c-.05.45-.24.67-.62.69s-.44-.07-.4-.4ZM761,343.79l-.43.69C760.41,344,760.41,344,761,343.79Zm-.29-4.25s.05-.06.14-.17c0,.19,0,.29-.05.4A2.18,2.18,0,0,1,760.68,339.54Zm.06-7.34a.37.37,0,0,1-.45-.37c0-.14.23-.38.33-.37s.32.2.57.38C761,332,760.87,332.18,760.74,332.2Zm-1.35-2.86a.62.62,0,0,1,0-1,1.91,1.91,0,0,0,.43.25c.58.15.58.14.34.73Zm.28,1.86a1.54,1.54,0,0,1,0,.17l-.39-.13,0-.16Zm-2.65-7c.16-.22.65-.09,1.18.3l-.68.61-.66-.34A1.62,1.62,0,0,1,757,324.23Zm-.75-7.11c-.06-.73,0-.75.69-.72Zm.85-4.69,1.15.36a1.73,1.73,0,0,1,0,1.12c-.08.28-.32.32-.5.1s-.1-.23-.18-.31-.47-.26-.53-.44A2.37,2.37,0,0,1,757.12,312.43Zm1.07,10.25c0-.06.06-.14.11-.15s.15.05.16.09a.39.39,0,0,1-.07.16Zm0-11.84a1.64,1.64,0,0,1,.22-.14c.28-.11.56-.19.86-.29.18.41.34.79.55,1.3l-.81.18Zm1,1.65,1.55,1.25c-.34.57-.49.63-1.07.36-.31-.14-.6-.31-1-.5C758.89,313.19,759,312.84,759.19,312.49Zm2.39-4.47.45.65h0v0c.26.57.26.58-.27.95l.27-.95h0l-.53.17A.55.55,0,0,1,761.58,308Zm-.05-1.33s.1-.06.15-.09a1.09,1.09,0,0,1,.05.14l-.15.11C761.56,306.8,761.51,306.73,761.53,306.69Zm1.52,19.83c-1.13.05-1.4-.36-1-1.39A2.58,2.58,0,0,1,763.05,326.52Zm-.14-5.12c.07-.09.15-.17.23-.26l.09.08a2.85,2.85,0,0,1-.23.26Zm.66,7.07c-.35.33-.63.57-1,.41a.69.69,0,0,1-.41-.87ZM762,310.33a.73.73,0,0,1-1.12.07C761.25,310.17,761.25,310.17,762,310.33Zm-.25,1.68-1.38.15C760.75,311.46,761.22,311.42,761.71,312Zm-1.08,11.34c0,.08-.09.14-.13.21l-.1,0c0-.15,0-.29.05-.44h.12A.71.71,0,0,1,760.63,323.35Zm-1.13-2.78-.3.08-.11-.1.34-.05Zm-.73,5.46,1.42.15a.4.4,0,0,1-.21.55,1.74,1.74,0,0,1-.72.33C758.84,327.08,758.71,326.75,758.77,326Zm2.24-4.39-.1-.15.94-.72C761.73,321.42,761.33,321.49,761,321.64Zm1.85-13.82c.24-.62.24-.62.75-.13Zm.11-1.25a2.08,2.08,0,0,1-.32-.69s.17-.16.27-.24c.21.36.39.67.64,1.13C763.25,306.67,763.05,306.67,763,306.57Zm.35-6.95c-.11.22-.12.32-.18.36a1.43,1.43,0,0,1-.31.12c0-.06-.05-.11-.07-.17Zm-.23,3.33s0,.12,0,.13l-.43.25c0-.09-.06-.18-.1-.27Zm-.51.8c.15.36.28.67.45,1.05l-.85.35c.07-.28.15-.43.12-.57a1.72,1.72,0,0,0-.26-.5Zm-.44,3.26c.09,0,.16.12.3.24-.17.08-.28.18-.35.16s-.14-.17-.15-.26S762.08,307,762.14,307Zm-.77-3.83.46.54c-.13.44-.48.51-.88.56,0-.24-.07-.45-.11-.73Zm-.88-1s.11.05.1.07a.68.68,0,0,1-.1.18l-.15-.14A.53.53,0,0,1,760.49,302.17Zm1,3.42c-.32.32-.69.23-1.13.18l.1-.6-.36-.23C760.91,304.59,760.91,304.59,761.5,305.59Zm-.72,1.26c-.22.46.52,1-.21,1.45l-.51-.88C760.18,307.15,760.27,306.84,760.78,306.85Zm-1.9,3.07c-.16-.31-.33-.58-.44-.86a.75.75,0,0,1,0-.49c.1-.39.38-.43.65-.13l.85,1C759.73,309.92,759.3,309.94,758.88,309.92Zm.7-6.17c0,.33,0,.64.06,1.06l-.87.12C759,304.42,758.71,303.79,759.58,303.75Zm-1-.78a.26.26,0,0,1,.05.12l-.36.21-.09-.21Zm0,2.55c.26.51.47.94.68,1.38a1,1,0,0,1-1,.2c-.05-.31-.11-.62-.17-1Zm-1.43,5.63a1.52,1.52,0,0,1-.34,0c0-.51-.92-.78-.29-1.5.28.22.56.42.81.64C757.73,310.71,757.67,311,757.13,311.15Zm-.37-6.87.21.11c-.21.29,0,.84-.78.9Zm-.9,2.4.22.44.16.4c-.55.29-.81.3-.94.05S755.35,307,755.86,306.68Zm-.92,7.32a5.53,5.53,0,0,1,2,1.4c-.43.49-.26.39-1.73.36C755,315.17,754.49,314.66,754.94,314Zm-.11-9.1c-.25,1-.25,1-.68,1Zm-1.26,2.59c.16.32.32.64.49,1a.33.33,0,0,1-.18.5,3.86,3.86,0,0,1-.55.17C753,308.34,753,308,753.57,307.49Zm-.51,2.42a2.81,2.81,0,0,1,.38-.35c.12.41.19.75.31,1.06s.27.58.41.87c-.69.43-1,.3-1.15-.43A1.44,1.44,0,0,1,753.06,309.91Zm-.79,5.61a5.45,5.45,0,0,0,2.17,1.29l-1.23.61C752.08,316.87,751.9,316.53,752.27,315.52Zm.25,10.23c-.26.05-.52.18-.68.11a.8.8,0,0,1-.53-.89A1,1,0,0,1,752.52,325.75Zm-.95-1.2a.33.33,0,0,1,.06-.1l0,0-.06.1Zm1,12.62.07.1-.1.08s-.06-.07-.06-.1S752.52,337.19,752.55,337.17Zm-.52-6.11c-.33-.61-.78-1.15-.29-1.86A1.4,1.4,0,0,1,752,331.06Zm-.78-8.7a.49.49,0,0,1-.21.08l-.16-.18.38-.24.12.09A.84.84,0,0,1,751.25,322.36Zm.48,4.65c.07.36,0,.59-.32.66s-.47-.16-.54-.6Zm-.63,14.34c.31.42.6.84.91,1.25s.6.75.92,1.14c-.27.16-.42.33-.64.05a1,1,0,0,0-.52-.35.88.88,0,0,1-.73-.76c-.08-.4-.13-.81-.19-1.22Zm-.47-32.15c.08-.18.17-.34.29-.56.53.31.39.88.65,1.26a.64.64,0,0,1-.85.1C750.43,309.79,750.5,309.48,750.63,309.2Zm1.24,4.08c-.43.45-.44.45-.91.15s-.46-.69,0-1.74Zm.08,5.44a2.75,2.75,0,0,0,.81.2c-.45.63-.72.7-1.43.44a6.23,6.23,0,0,0-.9-.18c-.25-.46-.08-.89.08-1.45A16.42,16.42,0,0,0,752,318.72Zm-2,7.55c.6.45.6.45.26,1.25C749.59,327.22,749.59,327.21,749.94,326.27Zm-.1-1.57c0-.09.07-.18.11-.27l.09,0-.1.27Zm.61,4.53c.17.19.34.39.13.64a.65.65,0,0,1-.86-.13c-.18-.26-.33-.54-.55-.92A1.36,1.36,0,0,1,750.45,329.23Zm-.64,2.7-.13.28-.12,0c0-.1.05-.2.08-.3Zm.5,9.27a1.07,1.07,0,0,1,.21,1.21,3,3,0,0,1-1.1-2.13C749.76,340.63,750,340.93,750.31,341.2Zm.41-4.1v.56C750.37,337.46,750.41,337.29,750.72,337.1Zm-.18-4.18c-.21-.1-.31-.25,0-.64a5.13,5.13,0,0,1,.24.53S750.59,332.94,750.54,332.92Zm-.19-16.59c-.43.66-.7.67-1.18.14a1.24,1.24,0,0,1-.13-1.69Zm-1.7-5.49.2,0a7.72,7.72,0,0,1,.4,1c.1.36-.09.48-.7.46A1.74,1.74,0,0,1,748.65,310.84Zm-.38,8.08c.23.54.43,1,.59,1.41.1.28.21.5.54.54s.43.09.65.14a1.55,1.55,0,0,1-1.74.42A2.49,2.49,0,0,1,748.27,318.92Zm-.67,10.77.39.85C747.4,330.48,747.4,330.48,747.6,329.69Zm.52,3.51-.16.11-.26-.45.11-.08Zm.2,13.91a2.1,2.1,0,0,1-.05,1.58.65.65,0,0,1-.62-.68c0-1.32-.51-2.62-.2-4A6.56,6.56,0,0,0,748.32,347.11Zm-.66-9.83.84,1.09C747.73,338.44,747.53,338.19,747.66,337.28Zm.47-9a.35.35,0,0,1,.44-.3c.29.06.34.25.19.87C748.21,328.7,748.05,328.56,748.13,328.24Zm-1.56-16.15h.15a1.38,1.38,0,0,1,.13.47c0,.11-.14.21-.22.32-.09-.12-.25-.24-.26-.36A1.14,1.14,0,0,1,746.57,312.09Zm-.16,3.74c.39.49.75.92,1.07,1.37a.78.78,0,0,1,.15.6c-.07.14-.35.23-.54.26-.39.07-.6-.08-.77-.49A1.83,1.83,0,0,1,746.41,315.83ZM746,312l.11,0-.19.36-.11-.06A3.9,3.9,0,0,1,746,312Zm.15,10a.93.93,0,0,1,.13.34c.23.76.25.77,1,.6a2.31,2.31,0,0,1-1.63,1.14,3.54,3.54,0,0,1-.29-2.93C745.66,321.42,745.91,321.68,746.13,322Zm-1.72,15a1.49,1.49,0,0,1,.16,1.65C744,338.05,744.35,337.58,744.41,337Zm-.27,7.84v-1.21A1.24,1.24,0,0,1,744.14,344.82Zm.08-12.88c-.72-.94-.72-.94-.52-1.59A1,1,0,0,1,744.22,331.94Zm-.11,2.66c.16.22.25.44,0,.66s-.41.1-.62-.12c-.39-.42-.84-.79-.41-1.58a2.78,2.78,0,0,1,.49.33C743.77,334.11,743.93,334.36,744.11,334.6Zm0,11.13c.13.11.28.17.33.28a2.81,2.81,0,0,0,.47,1c.14.16,0,.58-.06,1C744.14,347.53,744,346.89,744.15,345.73Zm.58-12v-1C745.13,333.18,745.13,333.18,744.73,333.77Zm.26-4.93c-.25.27-.49.11-.75-.17l.68-.6C745.33,328.34,745.2,328.63,745,328.84Zm.33,10.69.86.39s0,0,0,.06c-.33.31-.57.35-.86.12S745.05,339.76,745.32,339.53Zm.55-11.43a.82.82,0,0,1,.9.52.65.65,0,0,1,0,.53.34.34,0,0,1-.57.05c-.1-.09-.31-.06-.52-.09C745.52,328.44,745.57,328.19,745.87,328.1Zm.18,12.89a2,2,0,0,1,0,2.5A4.53,4.53,0,0,1,746.05,341Zm.62-9.82c.21.52.67.87.27,1.38C746.42,332.24,746.4,332.17,746.67,331.17Zm-2.51-14.32,1.07,2c-.57.43-1,.38-1.22-.15A1.81,1.81,0,0,1,744.16,316.85Zm-.16,8a.83.83,0,0,1-.9.58c-.46,0-.61-.16-.69-.62a6.72,6.72,0,0,1,.2-2.24A4.36,4.36,0,0,0,744,324.89Zm-2.21,22.71a5.2,5.2,0,0,1-.29-2.53c.43.44.71.71.71,1.2,0,.21.2.43.32.64s.16.6-.11.79S741.92,347.88,741.79,347.6Zm.56,3.16-.15.2-.05,0a1.51,1.51,0,0,1,.11-.22Zm-.42-1.5h-.52a1.21,1.21,0,0,1,0-.19l.52,0Zm.71-10.34c-.41-.09-.53-.33-.45-.62,0-.09.26-.13.51-.25C742.68,338.41,742.66,338.65,742.64,338.92Zm-.15-21.42c.13.08.22.1.23.14.09.45.19.9.25,1.36a.64.64,0,0,1-.09.47c-.09.07-.31,0-.47,0a1.54,1.54,0,0,1-.35-.2C742.2,318.65,742.34,318.1,742.49,317.5Zm.11,13.65c-.34.19-.52.5-.82.28s-.14-.51.22-1ZM741.48,326c.71.49.58,1.31-.3,1.82A3.75,3.75,0,0,1,741.48,326Zm-.86-7,.12.06c0,.32.09.63.12.94s-.12.58-.66.45Zm-.91.88.14,0c0,.14-.08.27-.13.4l-.1,0Zm-.22,4.08a9.54,9.54,0,0,0,.88,2.5c-.53.44-1,.34-1.2-.3A3.63,3.63,0,0,1,739.49,323.9Zm0,15.47-.17.08c0-.12-.07-.24-.11-.36l.13,0Zm-.24-6.5c-.06.21-.1.37-.17.66C738.81,333.14,738.86,333,739.26,332.87Zm-.89,4,.52.7c.13.17.14.17-.12.65C738.15,338,738.15,338,738.37,336.87Zm-.12,8.8c1,.41,1.23,1.29.45,2A5.65,5.65,0,0,1,738.25,345.67Zm2,7.36a.54.54,0,0,1-.84.08,2.1,2.1,0,0,1-.46-.89c-.09-.28.08-.51.41-.69,0,.21,0,.37.07.55l.4.15C740.25,352.4,740.42,352.73,740.27,353Zm-.07-5.37c-.63-.67-.51-1.41-.44-2.33.37.47.17,1.12.82,1.12C740.82,347,740.54,347.29,740.2,347.66Zm.13-14.54c-.1-.27-.18-.54-.3-.91l.53-.39.47,1.45C740.7,333.44,740.46,333.48,740.33,333.12Zm.48,6.78c0-.37,0-.57.06-.81C741.36,339.39,741.36,339.39,740.81,339.9Zm.39,13.17c0-.44.07-.7.49-.83a4.48,4.48,0,0,0,.84-.52c.14.38.28.73.41,1.08l-.09.12C742.27,352.57,741.78,353,741.2,353.07Zm1.66,4.71c-.07,0-.16-.07-.27-.13.07-.08.11-.17.15-.17a.59.59,0,0,1,.24.09C742.94,357.64,742.91,357.77,742.86,357.78Zm.28-18.72c.33.38.9.57.68,1.24C743.1,340.15,742.9,339.81,743.14,339.06Zm.52,2.23a1.92,1.92,0,0,1-.19,1.55C743.47,342.36,743.15,341.84,743.66,341.29Zm.12,15.87c-.06-.44.15-.45.46-.31Zm.53-4c-.07-.12-.14-.24-.25-.4l-.63.46c-.08-.57,0-.79.44-.82a.48.48,0,0,1,.39.14,2.26,2.26,0,0,1,.22.55Zm.58-3.52c-.21-.18-.57-.34-.15-.67l1.23.79C745.59,350.17,745.47,350.16,744.89,349.68ZM746,360.53l-.13-.14.08-.08c.06,0,.1.08.15.11Zm3.34-9.76v0h0a1.66,1.66,0,0,1-.54,1.47c-.46.4-.39.93.13,1.62a.65.65,0,0,1-.91-.22,2.6,2.6,0,0,0-.54-.6.94.94,0,0,0-.68-.16c-.33.07-.59.11-.81-.18a.78.78,0,0,1,0-1,1.68,1.68,0,0,0,.49.26c.15,0,.3-.13.5-.22.24.35.46.67.68,1a1.61,1.61,0,0,0,1.21-1.48,1.2,1.2,0,0,0-.29-.65c-.16-.22-.42-.36-.58-.58a.47.47,0,0,1,0-.46.42.42,0,0,1,.43-.07c.39.27,1,.47.62,1.14l.25.15h0l.23-.64C749.72,350.65,749.72,350.66,749.32,350.77Zm-.4-5.43c.42.48.79.88,1.13,1.29.14.18.07.43-.16.9C748.88,347.46,748.55,346.79,748.92,345.34Zm2.53,19-.48-1c.32.19.34.72.89.68Zm-.2-11.23a4.17,4.17,0,0,1-.94-.48.51.51,0,0,1-.22-.71c.13-.26.68-.57.88-.46a9,9,0,0,1,1,.69c.09.06.11.21.14.26A.73.73,0,0,1,751.25,353.14Zm.75-2.91a2.28,2.28,0,0,1-.17-.58.6.6,0,0,1,.2-.35s.22,0,.26.05a.6.6,0,0,1,.12.39C752.36,349.88,752.21,350,752,350.23Zm.57-3.69c.41,0,.51.41.76.61a4.31,4.31,0,0,1,.49.62c.39.41.39.64-.06,1.17C752.58,347.94,752.57,348.18,752.57,346.54Zm.63-7.64.53.14C753.3,339.31,753.3,339.31,753.2,338.9Zm.69.76.13-.1.11.13s-.08.07-.1.07A1.21,1.21,0,0,1,753.89,339.66Zm.32,15.08c-.8-.21-1-.56-.5-1.28C754.42,354,754.47,354.16,754.21,354.74Zm-1.15-20.05c.22.65,1.18.34,1.36,1.07C753.34,336,753.1,335.84,753.06,334.69Zm1.74,21a2.34,2.34,0,0,0,0-.26h.1l0,.26Zm-.23-30.19c-.06-.3-.11-.54-.17-.82a2.3,2.3,0,0,1,.79.12c.16.08.23.33.34.51a2.4,2.4,0,0,1-.46.27A1.81,1.81,0,0,1,754.57,325.54Zm1.17,35.38a.51.51,0,0,1-.16-.09l.1-.09.15.11S755.76,360.93,755.74,360.92Zm-.23-33.58c.45.35,1.14.12,1.47.77-.39.64-.44.66-1.12.4C755.44,328.35,755.36,328.12,755.51,327.34Zm.86,2.43,1.12.85-.59.54C755.88,330.61,755.75,330.27,756.37,329.77Zm0,3.28c-.3-.44-.1-.75.61-.89.06.31.12.57.17.83.68.44.68.44.48,1A2.73,2.73,0,0,1,756.33,333.05Zm.65,14.88c-.07-.64-.42-1.21-.14-2a15.83,15.83,0,0,1,.83,1.39C757.85,347.72,757.63,347.91,757,347.93Zm1.06,3c-.27,0-.4-.17-.32-.43.18-.59.54-.71,1.24-.39A1,1,0,0,1,758,351Zm1-5c-.06.12-.28.15-.43.22-.56-.1-1-.29-1.06-.9,0-.27-.2-.52-.25-.78s0-.41.13-.46a1,1,0,0,1,.55,0,.51.51,0,0,1,.23.19c.27.41.55.82.79,1.24A.65.65,0,0,1,759.05,345.94Zm-.08-3.16s.07-.15.11-.25l.94.55a.45.45,0,0,1,.17.64.39.39,0,0,1-.64,0A6,6,0,0,1,759,342.78Zm.91,12.25a.82.82,0,0,1,0-1c.26-.28.59-.05.94,0C760.66,354.52,760.27,354.73,759.88,355Zm1.55-2.29a4,4,0,0,0-.6,0c-.55.1-.82-.2-1-.68a2.8,2.8,0,0,1,1.47-1c0,.2,0,.35,0,.56l.59-.21a5,5,0,0,1,.24.54A.63.63,0,0,1,761.43,352.74Zm.71-2.86c0-.07-.14-.15-.13-.18.09-.22.2-.43.3-.64h.2l.31.59Zm.92-11.41c-.1-.29-.15-.57.07-.76a.8.8,0,0,1,.61-.09,9.61,9.61,0,0,1,1,.32l1.3,2.41c-.67.35-1.21,0-1.85-.21.41-.55-.29-.8-.23-1.28C763.68,338.78,763.24,339,763.06,338.47Zm2.11,3.62c-.42.24-.42.24-1.52-.09.05-.28.11-.56.18-.87C764.85,341,765,341.14,765.17,342.09Zm-1.85,13.24s0-.07-.06-.11.09,0,.11,0,0,.07.06.11S763.34,355.35,763.32,355.33Zm1.12-7.51c-.18.39-.36.47-.77.3s-.44-.32-.24-.7.39-.63.68-1.08C764.33,346.92,764.68,347.3,764.44,347.82Zm.13-2.06c0-.4,0-.4.33-.76C765,345.52,765,345.52,764.57,345.76Zm.53,12.79a2.68,2.68,0,0,0,.83.39c.26,0,.53-.18.8-.28C765.82,359.42,765.29,359.37,765.1,358.55Zm1.36,1.08c.57-.33.86-.25,1.22.41Zm.8-6.09v-.18h1A.76.76,0,0,1,767.26,353.54ZM769,337.29s-.11,0-.16-.06l.11-.16.14.05C769.06,337.18,769.05,337.26,769,337.29Zm.6,19.4a1.17,1.17,0,0,1,0-.2l.63.15C770,356.9,769.8,356.89,769.6,356.69Zm.71-21.11a1.81,1.81,0,0,1-2,.55,1.36,1.36,0,0,1-.52-.59c-.12-.26.08-.45.31-.5a10.06,10.06,0,0,1,1.08-.15,7.07,7.07,0,0,1,1,.12C770.46,335.09,770.5,335.3,770.31,335.58ZM771.9,359c-.44.23-.91.39-1.4.59a.55.55,0,0,1,.3-.8c.56-.3,1.15-.53,1.82-.83A1.47,1.47,0,0,1,771.9,359Zm-.32-9.48,2.73.41A2.74,2.74,0,0,1,771.58,349.51Zm1.91-34.33c.44-.13.58-.09,1.12.39ZM775,357.91c-.12-.17-.23-.27-.25-.39s.16-.22.23-.2.21.14.32.21Zm.7-5.35v-.05h.13v.05Zm.31-7.25h0c-.46.13-.93.35-1.35-.25.54-.18.91.26,1.35.25h0l1.3.17C777,345.91,776.66,345.86,776,345.31Zm1.17,11.89a.83.83,0,0,1,.15-.17s.08,0,.13,0a.59.59,0,0,0,0,.13Zm.46-7.38c-.2-.09-.3-.25-.16-.58l.81.31A.45.45,0,0,1,777.61,349.82Zm.6-9.45h1.42C779.34,341.26,779.07,341.27,778.21,340.37Zm1.22,9.26s0,0,0,0l-.11-.08.1-.07A.37.37,0,0,1,779.43,349.63Zm-.73,2.76a8.17,8.17,0,0,0,1,0c.27,0,.54-.12.82-.14C779.8,352.93,779.43,353,778.7,352.39Zm1.37-7.47s.09,0,.11,0,0,.07.05.11-.09,0-.11,0A.26.26,0,0,1,780.07,344.92Zm-.57-7.33c.17-.07.34-.21.43-.17a2,2,0,0,0,1.46,0s.08.05.11.08C780.88,338.37,780.3,338.4,779.5,337.59Zm1.67,16,1,.13C781.67,354.2,781.45,354.17,781.17,353.63Zm1.21,2.55-.13-.18.78-.54C783,355.94,782.67,356,782.38,356.18Zm.29-10.84-.14-.16c.05-.29.29-.33.61-.28Zm-.79-2.9,1.74.22C782.87,343,782.36,343,781.88,342.44Zm.63-12.49a.45.45,0,0,1,.65-.3,6.85,6.85,0,0,0,2.05.36l.21.06C784.86,330.8,783.8,330.76,782.51,330Zm2.7,7.66c-.09.11-.1.14-.12.15-.24.06-.5.16-.65-.14a.25.25,0,0,1,.06-.25C784.79,337.24,785,337.36,785.21,337.61Zm-1.33,4.85a2.11,2.11,0,0,1,1-.4v0l0,0,0,0h0c.1-.12.21-.23.35-.38.05.37-.19.33-.35.38l0,0h0C784.65,342.37,784.43,342.68,783.88,342.46Zm.5,4.65.73.1C784.82,347.51,784.58,347.43,784.38,347.11Zm.93,6.95-.16-.14a1,1,0,0,1,.22-.14s.08.09.12.14Zm.3-8.84.76-.14c0,.06,0,.12,0,.18l-.74.22Zm.22,9.23a4.06,4.06,0,0,0,2.43,1,1,1,0,0,1-1.17.57C786.13,355.77,785.84,355.41,785.83,354.45Zm2.35,4.42a.94.94,0,0,1-.59-.2c-.33-.25-.61-.57-.93-.83-.16-.14-.34-.25-.2-.48s.34-.14.52-.06a2.07,2.07,0,0,1,.78.41,1.18,1.18,0,0,0,1.23.41A.92.92,0,0,1,788.18,358.87Zm-.09-6.18a.78.78,0,0,1-.79-.31c-.26-.33-.53-.65-.84-1a.68.68,0,0,1,.79.18,1.66,1.66,0,0,0,2,.56A1.76,1.76,0,0,1,788.09,352.69Zm.47-7.29.08.18-.55.29-.1-.22Zm-.64-2.93c-.11,0-.26-.14-.38-.22l0-.17.89-.08.06.16A2.64,2.64,0,0,1,787.92,342.47Zm-.69-12.05h1.93C788.31,331.09,787.66,331.08,787.23,330.42Zm2.28,19.14a1.18,1.18,0,0,1,0-.2l.5-.12a2.21,2.21,0,0,1,0,.25Zm.89,2.34s-.08,0-.12,0l.08-.14.11.08S790.43,351.9,790.4,351.9Zm-.2-11.73,0-.11.28-.13,0,.18Zm-.14-8.08c0-.09,0-.22.05-.27.23-.19.39-.06.5.33Zm-2-49c-.33-.17-.69-.29-1.07-.45.29-.75.56-1.36,1.45-1.57a3.3,3.3,0,0,1-.27.68c-.33.47,0,.89.29,1.17a1.06,1.06,0,0,0,.33.18,4.55,4.55,0,0,0,3.23-.14c.41-.18.7-.7,1-1.11.17-.24.07-.51-.18-.72a2.48,2.48,0,0,0-1.31-.7,1.3,1.3,0,0,1-.49-.17,2.05,2.05,0,0,1,1.61.18c.39.17.74.42,1.12.62a.42.42,0,0,1,.21.62,2.45,2.45,0,0,1-1.21,1.3A4.88,4.88,0,0,1,788.07,283.05Zm6.24,59-.72-.47C794,341.43,794.14,341.63,794.31,342.07Zm-1.41,1.69-.2-.17s.11-.12.14-.11.09.1.14.15Zm.07,4.12-.58.29-.07-.16.59-.26Zm-1.84-.24-.18-.29.1-.05.18.28Zm1.3,3.84h0v0c-.42-.08-.92-.05-1-.67a1.37,1.37,0,0,1,.06-.3l.9,1h0v0h0l1-.52A.78.78,0,0,1,792.43,351.48Zm1-6.1.85-.09C794,345.76,794,345.78,793.47,345.38Zm1-5.75a1.17,1.17,0,0,1-.17-.28s.08-.07.18-.15a2.68,2.68,0,0,1,.14.33S794.48,339.63,794.47,339.63Zm.16-66.11-.18-.14a.77.77,0,0,1,.18-.18s.11.06.16.09Zm.5,73.46,1.24.22C795.71,347.63,795.27,347.56,795.13,347Zm.73-1.78c.45-.23.72.15,1.21.2C796.35,345.66,796.26,345.64,795.86,345.2Zm1.13-6.62.52-.22C797.39,338.66,797.39,338.66,797,338.58Zm.46,7.49a.67.67,0,0,1-.06-.15s.07,0,.11-.06a.61.61,0,0,1,0,.12Zm-.37-71.24a12.49,12.49,0,0,1-1.31-.32l0-.16.65-.11c.14,0,.34,0,.41-.11.27-.36.59-.28,1-.17,0,.23,0,.53-.13.66A.93.93,0,0,1,797.08,274.83Zm.84,69.42s-.09-.08-.11-.13.05-.1.08-.1a1.09,1.09,0,0,1,.21.09C798,344.18,798,344.25,797.92,344.25Zm.41-3.34-.28-.24.14-.15.24.3Zm.48-9.37-.15-.41.16-.05.09.43Zm4.61-52.79.14.23-.07.06-.19-.21Zm-.71,19.3a1.72,1.72,0,0,0,.19-.41c.07-.15.14-.16.3,0l.12.13c0,.14,0,.27-.08.35a.65.65,0,0,0-.25.4h-.32a.43.43,0,0,1,0-.13A.37.37,0,0,1,802.71,298.05Zm-3.14,37c0-.23,0-.43-.05-.61l1.56-.11C800.75,334.92,800.19,334.92,799.57,335.05Zm.23,4.25s-.06-.11,0-.12.19-.18.28-.27l.15.22Zm.68-2.75c0-.26-.1-.44,0-.54.16-.26.36-.14.65.07Zm1.15-3.69c-.09-.53-.09-.53.39-.48C802,332.63,802,332.87,801.63,332.86Zm.85-32.75c-.09-.11-.21-.08-.32-.07s-.11.12-.1.21a1.06,1.06,0,0,1-.64-.35,1,1,0,0,1-.61-.21c-.18-.09-.13-.33-.29-.44,0-.11,0-.23.07-.33l.29.28a.51.51,0,0,1,.43.12.35.35,0,0,0,0-.38s-.07-.06-.09-.1a.29.29,0,0,1,0-.13s0,0,0,0h.05c.12.16.22.33.35.49s.27.26.39.4,0,.12,0,.19h.34l.33-.4a.69.69,0,0,0,0-.25c-.06-.09-.16-.16-.06-.29s.16.12.24.19v.36c.06.12.14.2.13.27s-.12.2-.12.3.09.14.12.22a.12.12,0,0,1,0,.12c-.06,0-.17.05-.18,0S802.57,300.21,802.48,300.11Zm.24,30.74-.07-.37.2,0c0,.12,0,.23.06.35Zm.19-4,.79-.14C803.5,327.12,803.25,327.3,802.91,326.84Z" transform="translate(-709.89 -268.86)"/><path class="a" d="M776.1,363.59a.42.42,0,0,1-.12.08c0,.17.06.33.09.47a1,1,0,0,1,.63,0,.29.29,0,0,0,.22,0l.12-.21Z" transform="translate(-709.89 -268.86)"/><path class="a" d="M774.78,273l0-.27.1-.1a1.94,1.94,0,0,0-.57.28l.23.18A.51.51,0,0,1,774.78,273Z" transform="translate(-709.89 -268.86)"/><path class="a" d="M773.21,274.4a.48.48,0,0,1,.32-.23h0c0-.07,0-.15,0-.23l-.12-.06-.44.52Z" transform="translate(-709.89 -268.86)"/><path class="a" d="M752.66,305.84h0l0-.12c-.26.28-.37.4-.36.53A1.09,1.09,0,0,0,752.66,305.84Z" transform="translate(-709.89 -268.86)"/><path class="a" d="M767.87,290.25a.59.59,0,0,0-.26.68c.09-.21.18-.42.26-.63Z" transform="translate(-709.89 -268.86)"/><path class="a" d="M788.57,364a.83.83,0,0,1-.38-.1c0,.12.07.23.09.34l1.27.47-.09-.27a1.67,1.67,0,0,1-.43-.28A.76.76,0,0,0,788.57,364Z" transform="translate(-709.89 -268.86)"/><path class="a" d="M804.4,298.89l.17-.18c0-.13,0-.26.09-.38a.29.29,0,0,0,0-.38c-.12,0-.06.15-.1.21s-.1.1-.15.15a.9.9,0,0,0,0,.23C804.39,298.66,804.4,298.77,804.4,298.89Z" transform="translate(-709.89 -268.86)"/><path class="a" d="M784.11,364.12c-.14.07-.27.25-.52.59,0-.21-.05-.37-.07-.53s0-.25,0-.38c-.12.14-.23.28-.35.41a.67.67,0,0,0-.24.68c.1.4,0,.5-.41.54h0a.86.86,0,0,0,.2.26c.31-.44.6-.52,1.05-.16a1.33,1.33,0,0,0,1,.14,4.35,4.35,0,0,0,1-.53,6.67,6.67,0,0,1-.35-.6.42.42,0,0,1-.06-.14A.74.74,0,0,1,784.11,364.12Z" transform="translate(-709.89 -268.86)"/><path class="a" d="M714.49,357.63a1.71,1.71,0,0,0-.26.21A.92.92,0,0,0,714.49,357.63Z" transform="translate(-709.89 -268.86)"/><path class="a" d="M776.57,272.22c.44-.23,1-.29,1.26-.79,0,0,.13,0,.2,0h0a3.06,3.06,0,0,1,.62-.52.43.43,0,0,0-.57,0c-.49.29-1,.61-1.45.91-.28.18-.54.38-.82.55A.88.88,0,0,0,776.57,272.22Z" transform="translate(-709.89 -268.86)"/><path class="a" d="M774.79,363.84a.45.45,0,0,1,.56-.45.69.69,0,0,1,.19.1c.14.09.28.22.44.18l0-.13.15,0,0,0c.22-.24.54-.42.43-.83a1.68,1.68,0,0,1-.11-.55V362c-.44,0-.33-.54-.55-.6l-.14,0a10.35,10.35,0,0,0-.94.64c.18.06.33.14.34.36a.75.75,0,0,1-.32.68.87.87,0,0,1-1-.14l-.19.19c-.17.17-.36.32-.58.51.08-.46.3-.9.17-1.2a.84.84,0,0,1-.06-.45.79.79,0,0,0-.71.12c-.07.06-.18.16-.23.14-.52-.22-1.14-.15-1.61-.53-.27,0-.42.3-.7.29-.23.47-.25.5-.64.28l-.07,0-.3.17a2.18,2.18,0,0,0,0-.25.51.51,0,0,0-.45.23c-.34.43-.7.23-1.08.1a.65.65,0,0,1-.45-.77,1,1,0,0,0-.12-.62c-.3-.1-.61-.19-.9-.3l-.28-.12a.34.34,0,0,1-.19.27c-.35.18-.36.43-.24.77a.66.66,0,0,1-.14.66c-.19.21-.34.45-.53.66s-.11.12-.15.18c.31-.07.63-.16,1-.21.77.52,1.71.29,2.59.49,0,.13,0,.27,0,.45.19.08.38.14.56.23a4.71,4.71,0,0,1,1.11.59,1,1,0,0,0,1.21.14,2.35,2.35,0,0,1,2.14-.25.76.76,0,0,0,.84-.1,1.13,1.13,0,0,1,1.05-.2,11.62,11.62,0,0,0,1.33.26c0-.17-.07-.34-.1-.52a2.09,2.09,0,0,0-.44.19A.65.65,0,0,1,774.79,363.84Z" transform="translate(-709.89 -268.86)"/><path class="a" d="M799.63,274c.12.26.57.26.8.52s.46.6.68.9.49.64.75.95a9.83,9.83,0,0,0-1-1.67l.56-.37c-.1-.33-.2-.65-.29-1l-1.35.32c-.06-.27-.1-.45-.15-.72a6.1,6.1,0,0,0-.75.16h0l.17.12A1.9,1.9,0,0,1,799.63,274Z" transform="translate(-709.89 -268.86)"/><polygon class="a" points="64.45 91.76 64.46 91.76 64.45 91.76 64.45 91.76"/><path class="a" d="M791.05,360.59h0a1,1,0,0,1,1.06.43,3.38,3.38,0,0,1,.18.44,1.72,1.72,0,0,1,.71.27.59.59,0,0,0,.76,0l.71-.5c-.46-.12-.91.16-1.21-.3.33-.13.75-.13.78-.6,0-.22-.06-.39-.39-.38l-.19.49c-.35-.09-.26-.31-.24-.52a1.27,1.27,0,0,1-.6-.08A7.33,7.33,0,0,0,791.05,360.59Z" transform="translate(-709.89 -268.86)"/><path class="a" d="M791.05,355.91l-.28-.34c0,.25-.13.45-.15.63a.9.9,0,0,0,.28-.18S791,356,791.05,355.91Z" transform="translate(-709.89 -268.86)"/><path class="a" d="M715.2,357.74a2.86,2.86,0,0,1-1.07.21,1.88,1.88,0,0,0-.24.36,4.08,4.08,0,0,0,1.39-.36.49.49,0,0,1,0-.12Z" transform="translate(-709.89 -268.86)"/><path class="a" d="M759.3,365a1.91,1.91,0,0,0,.16.32,1.85,1.85,0,0,0,.4,0h0C759.81,364.88,759.65,364.81,759.3,365Z" transform="translate(-709.89 -268.86)"/><path class="a" d="M806.81,286.77a.11.11,0,0,0-.08-.12.36.36,0,0,1,0,.1Z" transform="translate(-709.89 -268.86)"/><path class="a" d="M792,353.48l0,0c.37.12,1-.36,1.13-.76a2.33,2.33,0,0,1-.65.19A2.09,2.09,0,0,1,792,353.48Z" transform="translate(-709.89 -268.86)"/><path class="a" d="M711.57,364.29a1.29,1.29,0,0,0-.4.47,2.35,2.35,0,0,0,1.6-.49A6.87,6.87,0,0,0,711.57,364.29Z" transform="translate(-709.89 -268.86)"/><path class="a" d="M715.88,360.15s0-.06,0-.08-.31-.09-.39,0c-.34.24-.65.51-1,.78l.08.13.69-.28A1.88,1.88,0,0,1,715.88,360.15Z" transform="translate(-709.89 -268.86)"/><path class="a" d="M777,364.07l-.11,0c-.18.36-.35.67-.51,1,.56.39.81.16.9-.84.13,0,.26-.11.4-.15C777.57,363.85,777.46,363.89,777,364.07Z" transform="translate(-709.89 -268.86)"/><path class="a" d="M750.57,364.62c0,.05.07.1.11.15s.09-.1.1-.16a.2.2,0,0,0,0-.08.85.85,0,0,1-.17.06Z" transform="translate(-709.89 -268.86)"/><path class="a" d="M806.94,286.85s0-.06-.07-.08h-.06a.06.06,0,0,0,0,.06.16.16,0,0,0,.08.06S806.92,286.87,806.94,286.85Z" transform="translate(-709.89 -268.86)"/><path class="a" d="M806.73,285.38s-.06.07-.06.11,0,.17.14.16a.61.61,0,0,0,0-.19S806.75,285.41,806.73,285.38Z" transform="translate(-709.89 -268.86)"/><path class="a" d="M806.94,285.73s0-.06-.07-.08h-.06a.06.06,0,0,0,0,.06.27.27,0,0,0,.08.07Z" transform="translate(-709.89 -268.86)"/><path class="a" d="M714.16,366.32c.5.2.8,0,1.13-.7C714.53,365.58,714.4,365.66,714.16,366.32Z" transform="translate(-709.89 -268.86)"/><path class="a" d="M807,287.58a.15.15,0,0,0,0-.23s0,0,0,0a.15.15,0,0,0,0,.23Z" transform="translate(-709.89 -268.86)"/><path class="a" d="M772.56,274.36c0-.08,0-.17,0-.34l-.69.39C772.22,274.6,772.44,274.73,772.56,274.36Z" transform="translate(-709.89 -268.86)"/><path class="a" d="M711.34,362.63a1.73,1.73,0,0,0,.81-.32c.14-.1.16-.36.26-.64a1.55,1.55,0,0,0-1.29.16.51.51,0,0,0-.18.44C711,362.42,711.22,362.65,711.34,362.63Z" transform="translate(-709.89 -268.86)"/><path class="a" d="M710.9,357.56l-1,1,.16.15c.52-.17.71-.63,1-1Z" transform="translate(-709.89 -268.86)"/><path class="a" d="M767.57,291.9h-.13c-.05.43-.11.86-.18,1.28l.11,0C767.44,292.76,767.51,292.33,767.57,291.9Z" transform="translate(-709.89 -268.86)"/><path class="a" d="M768.55,284.78l-.1,0c-.05.31-.1.61-.16.92h.1C768.45,285.38,768.5,285.08,768.55,284.78Z" transform="translate(-709.89 -268.86)"/><path class="a" d="M768.16,287.12h0c0,.15,0,.29,0,.43h0Z" transform="translate(-709.89 -268.86)"/><path class="a" d="M807,292.8c-.07.05-.07.2,0,.22s.07-.06.1-.09,0-.1-.06-.13Z" transform="translate(-709.89 -268.86)"/><path class="a" d="M794,353.37l.15.07.21-.37-.17-.07A3.2,3.2,0,0,0,794,353.37Z" transform="translate(-709.89 -268.86)"/><path class="a" d="M794.36,351.18s0,.18,0,.19a.46.46,0,0,0,.32,0,2.4,2.4,0,0,0,.45-.35,2.69,2.69,0,0,0-.53-.05A.52.52,0,0,0,794.36,351.18Z" transform="translate(-709.89 -268.86)"/><path class="a" d="M807.18,288l.05-.05-.1,0s0,0,0,0Z" transform="translate(-709.89 -268.86)"/><path class="a" d="M806.25,296.36c0,.06,0,.16.2.19.12-.14.28-.23.36-.38v-.37s0,0-.07-.1c-.1.12-.2.19-.23.35S806.34,296.25,806.25,296.36Z" transform="translate(-709.89 -268.86)"/><path class="a" d="M806.43,285.07a.31.31,0,0,0,.1-.05l0,0-.09,0S806.42,285.07,806.43,285.07Z" transform="translate(-709.89 -268.86)"/><path class="a" d="M722.85,345.86l0,0-.12.11s0,0,0,.05A1.59,1.59,0,0,1,722.85,345.86Z" transform="translate(-709.89 -268.86)"/><path class="a" d="M807.37,291.17a.57.57,0,0,0,0,.13.65.65,0,0,0,0,.14s.06,0,.09.05,0,0,0,0a1.22,1.22,0,0,0,0-.27s0-.05-.09-.06A.07.07,0,0,0,807.37,291.17Z" transform="translate(-709.89 -268.86)"/><path class="a" d="M807.46,289.82l.06-.14s-.08-.1-.1-.09-.08.17,0,.22Z" transform="translate(-709.89 -268.86)"/><path class="a" d="M807.3,291a.17.17,0,0,0,0-.28A.17.17,0,0,0,807.3,291Z" transform="translate(-709.89 -268.86)"/><path class="a" d="M719.39,349.57c.27-.3.53-.57.77-.86s.4-.56,0-.91a.9.9,0,0,1-.24-.6,2.63,2.63,0,0,0-.71-1.43.31.31,0,0,0-.56,0,1.54,1.54,0,0,1-.67.57c-.26.14-.46.4-.72.54a4,4,0,0,1-.78.29v.17l1,.4c0,.69-.82.56-1,1.1.67.42,1.38.19,2,.33,0,.2-.09.34-.13.47l.73.21c0,.11,0,.21,0,.31l.5-.41Z" transform="translate(-709.89 -268.86)"/><path class="a" d="M796.69,349.49l-.34.26.18.19c.09-.12.18-.23.26-.35Z" transform="translate(-709.89 -268.86)"/><path class="a" d="M790.29,366.23c0-.42,0-.72.05-1.05C789.78,365.39,789.78,365.39,790.29,366.23Z" transform="translate(-709.89 -268.86)"/><path class="a" d="M795.71,348.9s0,.08,0,.07a.29.29,0,0,0,.12-.07l-.07-.09Z" transform="translate(-709.89 -268.86)"/><path class="a" d="M777.66,364.64c0,.06.09.12.15.19l.23-.22c-.1-.08-.19-.18-.23-.16A.26.26,0,0,0,777.66,364.64Z" transform="translate(-709.89 -268.86)"/><path class="a" d="M806.6,295.29l-.05,0a.31.31,0,0,0,.05.1l0-.05Z" transform="translate(-709.89 -268.86)"/><path class="a" d="M759.24,365.28a.75.75,0,0,0-.19.17s.06.1.08.1a.41.41,0,0,0,.19-.08,1,1,0,0,0,.12-.17A.47.47,0,0,0,759.24,365.28Z" transform="translate(-709.89 -268.86)"/><path class="a" d="M759.44,365.3h0Z" transform="translate(-709.89 -268.86)"/><path class="a" d="M779,365.11l.2.13s0,0,0-.05a2.74,2.74,0,0,0,0-.28Z" transform="translate(-709.89 -268.86)"/><path class="a" d="M724.48,364.77l.08.08.3-.22-.12-.13Z" transform="translate(-709.89 -268.86)"/></svg>