<?xml version="1.0" encoding="utf-8"?>
<!-- Generator: Adobe Illustrator 27.3.1, SVG Export Plug-In . SVG Version: 6.00 Build 0)  -->
<svg version="1.1" id="Capa_1" xmlns="http://www.w3.org/2000/svg" xmlns:xlink="http://www.w3.org/1999/xlink" x="0px" y="0px"
	 viewBox="0 0 350.6 350.6" style="enable-background:new 0 0 350.6 350.6;" xml:space="preserve">
<style type="text/css">
	.st0{fill:#FFFFFF;}
</style>
<g>
	<path class="st0" d="M349.8,76.1c-4.9-1.8-21.4-8.6-25.3-18l-0.1-0.2c-4.4-10.4-14.6-34.7-43-34.7c-36.4,0-46.9,33.7-48.6,40.4
		c-3,11.5-9.1,35.5-63,73.1c-15.6,10.9-45.2,36.8-71.9,63c-18,17.6-47.8,48.3-45.5,55.6c0.2,0.7,0.9,1.9,3.2,1.9c0,0,0,0,0,0
		c2.2,0,5.6-1.1,10.3-3.3c-2.3,2.1-5.3,4.8-8.6,7.8C29.7,286.2,0.4,313,0,321.8c0,1,0.2,1.8,0.8,2.4c2,2.1,4.2,3.1,6.6,3.1
		c2.7,0,5.4-1.2,8.2-2.5c3.4-1.5,6.9-3.1,11-3.1c0.9,0,1.9,0.1,2.8,0.3l0.3,0c2.2,0,12.7-6.3,38-21.7c24-14.6,56.8-34.7,62.1-34.7
		c0.1,0,0.2,0,0.2,0l0,0c3.6,1.5,31.9,8.3,64.1,8.3c1.6,0,3.3,0,4.8-0.1c7.2,6.5,16.3,14.6,20,17.1c1.7,1.2,3.2,2.4,4.7,3.6
		c1.2,1,2.5,2,3.9,3c-1.6,0.6-3.4,1.2-5.3,1.9c-2,0.8-3.1,3.1-2.3,5.2c0.6,1.5,2.1,2.5,3.7,2.5l0,0c0.3,0,0.4,0,8.3-2.7
		c2.9-1,6.1-2.1,6.9-2.3c1.7,0.3,3.6,0.5,5.4,0.5c7.1,0,13.1-2.2,14.6-2.7c1.5,0.4,7.4,2.3,11.2,4.4c0.8,0.5,1.5,0.3,1.9-0.3
		c0.3-0.4,0.2-1.1-0.1-1.8l-2.6-3.7c0.7,0,1.3,0.1,2,0.1c7.1,0,13.1-2.2,14.6-2.7c1.5,0.4,7.4,2.3,11.2,4.4c0.3,0.2,0.6,0.3,0.9,0.3
		c0.4,0,0.8-0.2,1-0.5c0.3-0.4,0.2-1.1-0.1-1.8l-2.9-4c-0.1-0.1-2.2-2.9-6.5-4.2c-1.5-0.5-3.3-0.7-5.2-0.7c-2.8,0-4.6,0.4-6.2,0.8
		c-1.2,0.3-2.3,0.5-3.7,0.5l0,0c-1.7,0-3.8-0.4-6.4-1.2c-5.8-1.7-18.8-13.6-27.3-21.8c6.9-2.3,13.1-5.2,18.4-8.8
		c38.8-25.9,40.7-62.8,41.7-84.8c0.2-4.3,0.4-8,0.8-10.8c1.1-7.1,2.2-16,3.3-24.7c1.4-11.9,2.8-23.1,4.1-28.1
		c3.9-15.1,17.1-25.8,39.4-31.7c2.1-0.6,2.6-0.7,2.6-1.5C350.6,76.7,350.3,76.3,349.8,76.1z M227,271c6.9,6.3,15.3,13.6,18.7,15.9
		c1.7,1.2,3.2,2.4,4.6,3.6c1.2,1,2.3,2,3.6,2.9c-1.2,0.2-2.2,0.4-3.1,0.6c-1.3,0.3-2.3,0.5-3.7,0.5c-1.7,0-3.8-0.4-6.4-1.2
		c-5.5-1.6-17.4-12.4-25.9-20.5C219,272.4,223.1,271.8,227,271z"/>
</g>
</svg>
